<?xml version="1.0" encoding="UTF-8" standalone="no"?>
<svg xmlns="http://www.w3.org/2000/svg" id="panel" viewBox="0 0 1341 948" version="1.1">
  <script type="text/javascript" id="script1"><![CDATA[
          document.addEventListener("DOMContentLoaded", function() {
            console.log("SVG DOM ready!");

            const buttons = document.querySelectorAll('.button-box');

            buttons.forEach(function(button) {
              button.style.cursor = 'pointer';
              button.addEventListener('click', function() {
                const message = "clicked:" + button.id;
                console.log(message);
                window.status = message;
              });
            });
          });
        ]]></script>
  <style>
    html,
    body {
      margin: 0;
      height: 100%;
      font-family: system-ui;
    }
    image {
      pointer-events: none;
    }

    /* boxes: invisible but mouse friendly */
    .button-box {
      fill: rgba(0, 255, 0, 0);
      stroke: rgba(0, 255, 0, 0);
      cursor: pointer;
      transition: 0.15s;
    }
    .button-box:hover {
      fill: rgba(0, 255, 0, 0.12);
      stroke: rgba(0, 255, 0, 0.85);
      stroke-width: 2;
    }
    .button-box.selected {
      fill: rgba(255, 255, 0, 0.15);
      stroke: rgba(255, 255, 0, 1);
      stroke-width: 2;
    }
    .button-text {
      pointer-events: none;
      font-size: 10px;
      font-weight: 500;
      text-anchor: start;
      dominant-baseline: middle;
      fill: #444;
      transform: translate(-50px, 0);
    }
    .button-text {
      paint-order: stroke;
      stroke: rgba(255, 255, 255, 1);
      stroke-width: 4;
    }
  </style>
  <image href="../resources/images/vpc_alpha_prime_R.png" x="0" y="0" width="1341" height="948" id="image1"/>
  <g id="buttons">
    <rect class="button-box" rx="10" ry="10" x="946.91998" y="332.23001" width="105.33" height="44.860001" id="button1"/>
    <rect class="button-box" rx="10" ry="10" x="946.72998" y="384.89001" width="105.33" height="44.860001" id="button2"/>
    <rect class="button-box" rx="10" ry="10" x="946.63" y="438.46997" width="105.33" height="44.860001" id="button3"/>
    <rect class="button-box" rx="10" ry="10" x="947.60999" y="523.14001" width="105.33" height="44.860001" id="button4"/>
    <rect class="button-box" rx="10" ry="10" x="947.92999" y="576.31" width="105.33" height="44.860001" id="button5"/>
    <rect class="button-box" rx="10" ry="10" x="274.63" y="96.029999" width="105.33" height="44.860001" id="button6"/>
    <rect class="button-box" rx="10" ry="10" x="522.95001" y="95.029999" width="105.33" height="44.860001" id="button7"/>
    <rect class="button-box" rx="10" ry="10" x="947.92999" y="95.389999" width="105.33" height="44.860001" id="button8"/>
    <rect class="button-box" rx="10" ry="10" x="947.29999" y="41.029999" width="105.33" height="44.860001" id="button9"/>
    <rect class="button-box" rx="10" ry="10" x="803.92999" y="95.690002" width="105.33" height="44.860001" id="button10"/>
    <rect class="button-box" rx="10" ry="10" x="949.58002" y="149.03" width="105.33" height="44.860001" id="button11"/>
    <rect class="button-box" rx="10" ry="10" x="1091.5701" y="94.309998" width="105.33" height="44.860001" id="button12"/>
    <rect class="button-box" rx="10" ry="10" x="947.23999" y="224.31" width="105.33" height="44.860001" id="button13"/>
    <rect class="button-box" rx="10" ry="10" x="275.23999" y="304.66998" width="105.33" height="44.860001" id="button14"/>
    <rect class="button-box" rx="10" ry="10" x="275.58002" y="251.34" width="105.33" height="44.860001" id="button15"/>
    <rect class="button-box" rx="10" ry="10" x="132.21002" y="304.97998" width="105.33" height="44.860001" id="button16"/>
    <rect class="button-box" rx="10" ry="10" x="273.87" y="356.31" width="105.33" height="44.860001" id="button17"/>
    <rect class="button-box" rx="10" ry="10" x="419.15002" y="303.76999" width="105.33" height="44.860001" id="button18"/>
    <rect class="button-box" rx="10" ry="10" x="274.16998" y="518.13" width="105.33" height="44.860001" id="button19"/>
    <rect class="button-box" rx="10" ry="10" x="274.08002" y="570.42999" width="105.33" height="44.860001" id="button20"/>
    <rect class="button-box" rx="10" ry="10" x="274.07999" y="465.89001" width="105.33" height="44.860001" id="button21"/>
    <rect class="button-box" rx="10" ry="10" x="275.04999" y="624.56" width="105.33" height="44.860001" id="button22"/>
    <rect class="button-box" rx="10" ry="10" x="741.09998" y="736.20001" width="105.33" height="44.860001" id="button23"/>
    <rect class="button-box" rx="10" ry="10" x="740.07996" y="682.25" width="105.33" height="44.860001" id="button24"/>
    <rect class="button-box" rx="10" ry="10" x="597.63" y="735.20996" width="105.33" height="44.860001" id="button25"/>
    <rect class="button-box" rx="10" ry="10" x="741.63" y="787.57001" width="105.33" height="44.860001" id="button26"/>
    <rect class="button-box" rx="10" ry="10" x="885.97998" y="734.23999" width="105.33" height="44.860001" id="button27"/>
    <rect class="button-box" rx="10" ry="10" x="1158.61" y="278.90002" width="105.33" height="44.860001" id="button28"/>
    <rect class="button-box" rx="10" ry="10" x="1159.29" y="226.23999" width="105.33" height="44.860001" id="button29"/>
    <rect class="button-box" rx="10" ry="10" x="1159.97" y="331.09998" width="105.33" height="44.860001" id="button30"/>
    <rect class="button-box" rx="10" ry="10" x="741.46997" y="872.57001" width="105.33" height="44.860001" id="button31"/>
    <rect class="button-box" rx="10" ry="10" x="740" y="524" width="105.33" height="44.860001" id="x-2"/>
    <rect class="button-box" rx="10" ry="10" x="1180.0901" y="430.77002" width="105.33" height="44.860001" id="x"/>
    <rect class="button-box" rx="10" ry="10" x="1180.0901" y="477.58002" width="105.33" height="44.860001" id="y"/>
    <rect class="button-box" rx="10" ry="10" x="247.42999" y="734.63" width="105.33" height="44.860001" id="z"/>
    <rect class="button-box" rx="10" ry="10" x="246.57001" y="149.17" width="105.33" height="44.860001" id="rotx"/>
    <rect class="button-box" rx="10" ry="10" x="246.67" y="40.77" width="105.33" height="44.860001" id="roty"/>
    <rect class="button-box" rx="10" ry="10" x="717.58002" y="577.33002" width="105.33" height="44.860001" id="slider1"/>
  </g>
  <g id="labels">
    <text class="button-text" id="lbl_button1" data-for="button1" x="999.59003" y="354.66">
      .
    </text>
    <text class="button-text" id="lbl_button2" data-for="button2" x="999.39001" y="407.32001">
      .
    </text>
    <text class="button-text" id="lbl_button3" data-for="button3" x="999.29999" y="460.90002">
      .
    </text>
    <text class="button-text" id="lbl_button4" data-for="button4" x="1000.27" y="545.57001">
      .
    </text>
    <text class="button-text" id="lbl_button5" data-for="button5" x="1000.59" y="598.73999">
      .
    </text>
    <text class="button-text" id="lbl_button6" data-for="button6" x="327.29999" y="118.46001">
      .
    </text>
    <text class="button-text" id="lbl_button7" data-for="button7" x="575.62" y="117.45999">
      .
    </text>
    <text class="button-text" id="lbl_button8" data-for="button8" x="1000.59" y="117.82001">
      .
    </text>
    <text class="button-text" id="lbl_button9" data-for="button9" x="999.96002" y="67.459991">
      .
    </text>
    <text class="button-text" id="lbl_button10" data-for="button10" x="856.59003" y="118.13">
      .
    </text>
    <text class="button-text" id="lbl_button11" data-for="button11" x="1002.25" y="171.45999">
      .
    </text>
    <text class="button-text" id="lbl_button12" data-for="button12" x="1144.23" y="116.73999">
      .
    </text>
    <text class="button-text" id="lbl_button13" data-for="button13" x="999.90002" y="246.73999">
      .
    </text>
    <text class="button-text" id="lbl_button14" data-for="button14" x="327.90002" y="327.10001">
      .
    </text>
    <text class="button-text" id="lbl_button15" data-for="button15" x="328.25" y="273.76999">
      .
    </text>
    <text class="button-text" id="lbl_button16" data-for="button16" x="184.88" y="327.41">
      .
    </text>
    <text class="button-text" id="lbl_button17" data-for="button17" x="326.53003" y="378.73999">
      .
    </text>
    <text class="button-text" id="lbl_button18" data-for="button18" x="471.81989" y="326.20001">
      .
    </text>
    <text class="button-text" id="lbl_button19" data-for="button19" x="326.84003" y="540.56">
      .
    </text>
    <text class="button-text" id="lbl_button20" data-for="button20" x="326.73999" y="592.87">
      .
    </text>
    <text class="button-text" id="lbl_button21" data-for="button21" x="326.73999" y="488.32001">
      .
    </text>
    <text class="button-text" id="lbl_button22" data-for="button22" x="327.72" y="646.98999">
      .
    </text>
    <text class="button-text" id="lbl_button23" data-for="button23" x="793.77002" y="758.63">
      .
    </text>
    <text class="button-text" id="lbl_button24" data-for="button24" x="792.73999" y="704.67999">
      .
    </text>
    <text class="button-text" id="lbl_button25" data-for="button25" x="650.29999" y="757.64001">
      .
    </text>
    <text class="button-text" id="lbl_button26" data-for="button26" x="794.29999" y="810">
      .
    </text>
    <text class="button-text" id="lbl_button27" data-for="button27" x="938.65002" y="756.66998">
      .
    </text>
    <text class="button-text" id="lbl_button28" data-for="button28" x="1211.28" y="301.34003">
      .
    </text>
    <text class="button-text" id="lbl_button29" data-for="button29" x="1211.95" y="248.66998">
      .
    </text>
    <text class="button-text" id="lbl_button30" data-for="button30" x="1212.63" y="353.53003">
      .
    </text>
    <text class="button-text" id="lbl_button31" data-for="button31" x="794.14001" y="895">
      .
    </text>
    <text class="button-text" id="lbl_button32" data-for="button32" x="788.85999" y="547.745">
      .
    </text>
    <text class="button-text" id="lbl_button33" data-for="x" x="1232.76" y="453.20001">
      x axis
    </text>
    <text class="button-text" id="lbl_button34" data-for="y" x="1232.76" y="500.01001">
      y axis
    </text>
    <text class="button-text" id="lbl_button35" data-for="z" x="300.09998" y="757.06">
      .
    </text>
    <text class="button-text" id="lbl_button36" data-for="rotx" x="299.23999" y="171.61">
      .
    </text>
    <text class="button-text" id="lbl_button37" data-for="roty" x="299.32999" y="63.199997">
      .
    </text>
    <text class="button-text" id="lbl_button38" data-for="slider1" x="770.25" y="599.77002">
      .
    </text>
  </g>
</svg>
