<?xml version="1.0"?>
<svg xmlns="http://www.w3.org/2000/svg" id="panel" viewBox="0 0 1341 948">
  <style>
    html,
    body {
      margin: 0;
      height: 100%;
      font-family: system-ui;
    }
    image {
      pointer-events: none;
    }

    /* boxes: invisible but mouse friendly */
    .button-box {
      fill: rgba(0, 255, 0, 0);
      stroke: rgba(0, 255, 0, 0);
      cursor: pointer;
      transition: 0.15s;
    }
    .button-box:hover {
      fill: rgba(0, 255, 0, 0.12);
      stroke: rgba(0, 255, 0, 0.85);
      stroke-width: 2;
    }
    .button-text {
      pointer-events: none;
      font-size: 9px;
      font-weight: 500;
      text-anchor: start;
      dominant-baseline: middle;
      fill: #444;
      transform: translate(-50px, 0);
    }
    .button-text {
      paint-order: stroke;
      stroke: rgba(255, 255, 255, 1);
      stroke-width: 4;
    }
  </style>
  <image href="../resources/images/vpc_mongoose_t50cm3.png" width="1341" height="948"/>
  <g id="buttons">
    <rect class="button-box" rx="10" ry="10" x="76.37" y="165.90" width="103.58" height="44.77" id="button1"/>
    <rect class="button-box" rx="10" ry="10" x="77.24" y="113.23" width="103.58" height="44.77" id="button2"/>
    <rect class="button-box" rx="10" ry="10" x="77.24" y="219.44" width="103.58" height="44.77" id="button3"/>
    <rect class="button-box" rx="10" ry="10" x="76.37" y="318.63" width="103.58" height="44.77" id="button4"/>
    <rect class="button-box" rx="10" ry="10" x="221.20" y="423.97" width="103.58" height="44.77" id="button5"/>
    <rect class="button-box" rx="10" ry="10" x="220.32" y="371.30" width="103.58" height="44.77" id="button6"/>
    <rect class="button-box" rx="10" ry="10" x="221.20" y="318.63" width="103.58" height="44.77" id="button7"/>
    <rect class="button-box" rx="10" ry="10" x="365.16" y="423.97" width="103.58" height="44.77" id="button8"/>
    <rect class="button-box" rx="10" ry="10" x="835.64" y="169.41" width="103.58" height="44.77" id="button9"/>
    <rect class="button-box" rx="10" ry="10" x="835.64" y="115.87" width="103.58" height="44.77" id="button10"/>
    <rect class="button-box" rx="10" ry="10" x="980.48" y="168.53" width="103.58" height="44.77" id="button11"/>
    <rect class="button-box" rx="10" ry="10" x="835.64" y="222.08" width="103.58" height="44.77" id="button12"/>
    <rect class="button-box" rx="10" ry="10" x="692.57" y="168.53" width="103.58" height="44.77" id="button13"/>
    <rect class="button-box" rx="10" ry="10" x="1192.02" y="126.40" width="103.58" height="44.77" id="button14"/>
    <rect class="button-box" rx="10" ry="10" x="766.30" y="370.42" width="103.58" height="44.77" id="button15"/>
    <rect class="button-box" rx="10" ry="10" x="766.30" y="423.97" width="103.58" height="44.77" id="button16"/>
    <rect class="button-box" rx="10" ry="10" x="1048.07" y="296.69" width="103.58" height="44.77" id="button17"/>
    <rect class="button-box" rx="10" ry="10" x="1192.02" y="296.69" width="103.58" height="44.77" id="button18"/>
    <rect class="button-box" rx="10" ry="10" x="1048.07" y="349.36" width="103.58" height="44.77" id="button19"/>
    <rect class="button-box" rx="10" ry="10" x="904.11" y="295.81" width="103.58" height="44.77" id="button20"/>
    <rect class="button-box" rx="10" ry="10" x="1047.19" y="243.14" width="103.58" height="44.77" id="button21"/>
    <rect class="button-box" rx="10" ry="10" x="1191.14" y="591.62" width="103.58" height="44.77" id="button22"/>
    <rect class="button-box" rx="10" ry="10" x="576.70" y="296.69" width="103.58" height="44.77" id="button23"/>
    <rect class="button-box" rx="10" ry="10" x="576.70" y="349.36" width="103.58" height="44.77" id="button24"/>
    <rect class="button-box" rx="10" ry="10" x="433.62" y="296.69" width="103.58" height="44.77" id="button25"/>
    <rect class="button-box" rx="10" ry="10" x="576.70" y="243.14" width="103.58" height="44.77" id="button26"/>
    <rect class="button-box" rx="10" ry="10" x="721.53" y="295.81" width="103.58" height="44.77" id="button27"/>
    <rect class="button-box" rx="10" ry="10" x="1047.19" y="478.39" width="103.58" height="44.77" id="button28"/>
    <rect class="button-box" rx="10" ry="10" x="1047.19" y="531.06" width="103.58" height="44.77" id="button29"/>
    <rect class="button-box" rx="10" ry="10" x="903.23" y="477.51" width="103.58" height="44.77" id="button30"/>
    <rect class="button-box" rx="10" ry="10" x="1048.07" y="424.84" width="103.58" height="44.77" id="button31"/>
    <rect class="button-box" rx="10" ry="10" x="576.70" y="424.84" width="103.58" height="44.77" id="button32"/>
    <rect class="button-box" rx="10" ry="10" x="1048.07" y="613.57" width="103.58" height="44.77" id="button33"/>
    <rect class="button-box" rx="10" ry="10" x="576.70" y="489.80" width="103.58" height="44.77" id="button34"/>
    <rect class="button-box" rx="10" ry="10" x="575.82" y="565.29" width="103.58" height="44.77" id="button35"/>
    <rect class="button-box" rx="10" ry="10" x="365.16" y="489.80" width="103.58" height="44.77" id="button36"/>
    <rect class="button-box" rx="10" ry="10" x="364.28" y="543.34" width="103.58" height="44.77" id="button37"/>
    <rect class="button-box" rx="10" ry="10" x="901.48" y="723.29" width="103.58" height="44.77" id="button38"/>
    <rect class="button-box" rx="10" ry="10" x="1045.43" y="721.53" width="103.58" height="44.77" id="button39"/>
    <rect class="button-box" rx="10" ry="10" x="1190.27" y="721.53" width="103.58" height="44.77" id="button40"/>
    <rect class="button-box" rx="10" ry="10" x="901.48" y="775.08" width="103.58" height="44.77" id="button41"/>
    <rect class="button-box" rx="10" ry="10" x="1045.43" y="775.08" width="103.58" height="44.77" id="button42"/>
    <rect class="button-box" rx="10" ry="10" x="1191.14" y="775.08" width="103.58" height="44.77" id="button43"/>
    <rect class="button-box" rx="10" ry="10" x="77.24" y="607.42" width="103.58" height="44.77" id="button44"/>
    <rect class="button-box" rx="10" ry="10" x="76.37" y="660.97" width="103.58" height="44.77" id="button45"/>
    <rect class="button-box" rx="10" ry="10" x="220.32" y="607.42" width="103.58" height="44.77" id="button46"/>
    <rect class="button-box" rx="10" ry="10" x="220.32" y="660.97" width="103.58" height="44.77" id="button47"/>
    <rect class="button-box" rx="10" ry="10" x="365.16" y="607.42" width="103.58" height="44.77" id="button48"/>
    <rect class="button-box" rx="10" ry="10" x="366.03" y="660.97" width="103.58" height="44.77" id="button49"/>
    <rect class="button-box" rx="10" ry="10" x="145.71" y="810.19" width="103.58" height="44.77" id="button50"/>
    <rect class="button-box" rx="10" ry="10" x="145.71" y="862.86" width="103.58" height="44.77" id="button51"/>
    <rect class="button-box" rx="10" ry="10" x="146.59" y="756.64" width="103.58" height="44.77" id="button52"/>
    <rect class="button-box" rx="10" ry="10" x="290.54" y="810.19" width="103.58" height="44.77" id="button53"/>
    <rect class="button-box" rx="10" ry="10" x="290.54" y="862.86" width="103.58" height="44.77" id="button54"/>
    <rect class="button-box" rx="10" ry="10" x="290.54" y="757.52" width="103.58" height="44.77" id="button55"/>
    <rect class="button-box" rx="10" ry="10" x="1163.93" y="179.07" width="103.58" height="44.77" id="button56"/>
    <rect class="button-box" rx="10" ry="10" x="1163.93" y="72.86" width="103.58" height="44.77" id="button57"/>
    <rect class="button-box" rx="10" ry="10" x="336.19" y="219.44" width="103.58" height="44.77" id="button58"/>
    <rect class="button-box" rx="10" ry="10" x="114.99" y="24.58" width="103.58" height="44.77" id="button59"/>
    <rect class="button-box" rx="10" ry="10" x="548.61" y="24.58" width="103.58" height="44.77" id="button60"/>
    <rect class="button-box" rx="10" ry="10" x="873.39" y="634.63" width="103.58" height="44.77" id="button61"/>
    <rect class="button-box" rx="10" ry="10" x="471.37" y="862.86" width="103.58" height="44.77" id="button62"/>
    <rect class="button-box" rx="10" ry="10" x="615.32" y="862.86" width="103.58" height="44.77" id="button63"/>
    <rect class="button-box" rx="10" ry="10" x="758.40" y="862.86" width="103.58" height="44.77" id="button64"/>
    <rect class="button-box" rx="10" ry="10" x="901.48" y="862.86" width="103.58" height="44.77" id="button65"/>
    <rect class="button-box" rx="10" ry="10" x="1045.43" y="862.86" width="103.58" height="44.77" id="button66"/>
    <rect class="button-box" rx="10" ry="10" x="1191.14" y="477.51" width="103.58" height="44.77" id="button67"/>
  </g>
  <g id="labels">
    <text class="button-text" id="lbl_button1" data-for="button1" x="128.16" y="188.72" data-row="5" data-col="1">
     .
    </text>
    <text class="button-text" id="lbl_button2" data-for="button2" x="129.03" y="136.06" data-row="3" data-col="1">
     .
    </text>
    <text class="button-text" id="lbl_button3" data-for="button3" x="129.03" y="242.27">
     .
    </text>
    <text class="button-text" id="lbl_button4" data-for="button4" x="128.16" y="340.58" data-row="10" data-col="1">
     .
    </text>
    <text class="button-text" id="lbl_button5" data-for="button5" x="273.87" y="445.91">
     .
    </text>
    <text class="button-text" id="lbl_button6" data-for="button6" x="272.99" y="393.24">
     .
    </text>
    <text class="button-text" id="lbl_button7" data-for="button7" x="273.87" y="340.58" data-row="7" data-col="1">
     .
    </text>
    <text class="button-text" id="lbl_button8" data-for="button8" x="416.94" y="445.91">
     .
    </text>
    <text class="button-text" id="lbl_button9" data-for="button9" x="888.31" y="191.36">
     .
    </text>
    <text class="button-text" id="lbl_button10" data-for="button10" x="888.31" y="137.81">
     .
    </text>
    <text class="button-text" id="lbl_button11" data-for="button11" x="1032.27" y="190.48">
     .
    </text>
    <text class="button-text" id="lbl_button12" data-for="button12" x="888.31" y="244.02">
     .
    </text>
    <text class="button-text" id="lbl_button13" data-for="button13" x="744.36" y="190.48">
     .
    </text>
    <text class="button-text" id="lbl_button14" data-for="button14" x="1243.81" y="148.34">
     .
    </text>
    <text class="button-text" id="lbl_button15" data-for="button15" x="818.97" y="392.37">
     .
    </text>
    <text class="button-text" id="lbl_button16" data-for="button16" x="818.97" y="445.91">
     .
    </text>
    <text class="button-text" id="lbl_button17" data-for="button17" x="1100.73" y="319.51">
     .
    </text>
    <text class="button-text" id="lbl_button18" data-for="button18" x="1243.81" y="319.51">
     .
    </text>
    <text class="button-text" id="lbl_button19" data-for="button19" x="1100.73" y="372.18">
     .
    </text>
    <text class="button-text" id="lbl_button20" data-for="button20" x="955.90" y="318.63">
     .
    </text>
    <text class="button-text" id="lbl_button21" data-for="button21" x="1098.98" y="265.97">
     .
    </text>
    <text class="button-text" id="lbl_button22" data-for="button22" x="1243.81" y="613.57">
     .
    </text>
    <text class="button-text" id="lbl_button23" data-for="button23" x="629.37" y="319.51">
     .
    </text>
    <text class="button-text" id="lbl_button24" data-for="button24" x="629.37" y="372.18">
     .
    </text>
    <text class="button-text" id="lbl_button25" data-for="button25" x="485.41" y="319.51">
     .
    </text>
    <text class="button-text" id="lbl_button26" data-for="button26" x="629.37" y="265.97">
     .
    </text>
    <text class="button-text" id="lbl_button27" data-for="button27" x="773.32" y="318.63">
     .
    </text>
    <text class="button-text" id="lbl_button28" data-for="button28" x="1098.98" y="500.33">
     .
    </text>
    <text class="button-text" id="lbl_button29" data-for="button29" x="1098.98" y="553.00">
     .
    </text>
    <text class="button-text" id="lbl_button30" data-for="button30" x="955.90" y="499.46">
     .
    </text>
    <text class="button-text" id="lbl_button31" data-for="button31" x="1099.86" y="446.79">
     .
    </text>
    <text class="button-text" id="lbl_button32" data-for="button32" x="629.37" y="446.79">
     .
    </text>
    <text class="button-text" id="lbl_button33" data-for="button33" x="1099.86" y="636.39">
     .
    </text>
    <text class="button-text" id="lbl_button34" data-for="button34" x="629.37" y="512.62">
     .
    </text>
    <text class="button-text" id="lbl_button35" data-for="button35" x="627.61" y="587.23">
     .
    </text>
    <text class="button-text" id="lbl_button36" data-for="button36" x="416.94" y="512.62">
     .
    </text>
    <text class="button-text" id="lbl_button37" data-for="button37" x="416.07" y="566.17">
     .
    </text>
    <text class="button-text" id="lbl_button38" data-for="button38" x="953.27" y="745.23">
     .
    </text>
    <text class="button-text" id="lbl_button39" data-for="button39" x="1098.10" y="744.36">
     .
    </text>
    <text class="button-text" id="lbl_button40" data-for="button40" x="1242.93" y="744.36">
     .
    </text>
    <text class="button-text" id="lbl_button41" data-for="button41" x="953.27" y="797.90">
     .
    </text>
    <text class="button-text" id="lbl_button42" data-for="button42" x="1098.10" y="797.90">
     .
    </text>
    <text class="button-text" id="lbl_button43" data-for="button43" x="1243.81" y="797.90">
     .
    </text>
    <text class="button-text" id="lbl_button44" data-for="button44" x="129.03" y="630.24" data-row="20" data-col="1">
     .
    </text>
    <text class="button-text" id="lbl_button45" data-for="button45" x="128.16" y="683.79" data-row="22" data-col="1">
     .
    </text>
    <text class="button-text" id="lbl_button46" data-for="button46" x="272.99" y="630.24">
     .
    </text>
    <text class="button-text" id="lbl_button47" data-for="button47" x="272.99" y="683.79">
     .
    </text>
    <text class="button-text" id="lbl_button48" data-for="button48" x="416.94" y="630.24">
     .
    </text>
    <text class="button-text" id="lbl_button49" data-for="button49" x="417.82" y="683.79">
     .
    </text>
    <text class="button-text" id="lbl_button50" data-for="button50" x="197.50" y="833.01">
     .
    </text>
    <text class="button-text" id="lbl_button51" data-for="button51" x="197.50" y="885.68">
     .
    </text>
    <text class="button-text" id="lbl_button52" data-for="button52" x="198.38" y="779.47">
     .
    </text>
    <text class="button-text" id="lbl_button53" data-for="button53" x="342.33" y="833.01">
     .
    </text>
    <text class="button-text" id="lbl_button54" data-for="button54" x="343.21" y="885.68">
     .
    </text>
    <text class="button-text" id="lbl_button55" data-for="button55" x="342.33" y="780.34">
     .
    </text>
    <text class="button-text" id="lbl_button56" data-for="x" x="1215.72" y="201.89">
     .
    </text>
    <text class="button-text" id="lbl_button57" data-for="y" x="1215.72" y="95.68">
     .
    </text>
    <text class="button-text" id="lbl_button58" data-for="z" x="388.86" y="242.27">
     .
    </text>
    <text class="button-text" id="lbl_button59" data-for="rotx" x="167.66" y="47.40">
     . 
    </text>
    <text class="button-text" id="lbl_button60" data-for="roty" x="600.40" y="46.52">
     . 
    </text>
    <text class="button-text" id="lbl_button61" data-for="rotz" x="925.18" y="657.46">
     . 
    </text>
    <text class="button-text" id="lbl_button62" data-for="button62" x="523.16" y="885.68">
      62-off
    </text>
    <text class="button-text" id="lbl_button63" data-for="button63" x="667.11" y="885.68">
      63-blue
    </text>
    <text class="button-text" id="lbl_button64" data-for="button64" x="810.19" y="885.68">
      64-green
    </text>
    <text class="button-text" id="lbl_button65" data-for="button65" x="954.14" y="885.68">
      65-red
    </text>
    <text class="button-text" id="lbl_button66" data-for="button66" x="1098.10" y="885.68">
      66-yellow
    </text>
    <text class="button-text" id="lbl_button67" data-for="button67" x="1242.93" y="500.33">
      ?
    </text>
  </g>
</svg>
