<?xml version="1.0" encoding="UTF-8" standalone="no"?>
<!DOCTYPE svg PUBLIC "-//W3C//DTD SVG 1.1//EN"
 "http://www.w3.org/Graphics/SVG/1.1/DTD/svg11.dtd">
<!-- Generated by graphviz version 9.0.0 (0)
 -->
<!-- Pages: 1 -->
<svg width="3306pt" height="1968pt"
 viewBox="0.00 0.00 3305.63 1967.72" xmlns="http://www.w3.org/2000/svg" xmlns:xlink="http://www.w3.org/1999/xlink">
<g id="graph0" class="graph" transform="scale(1 1) rotate(0) translate(4 1963.72)">
<polygon fill="white" stroke="none" points="-4,4 -4,-1963.72 3301.63,-1963.72 3301.63,4 -4,4"/>
<!-- clojure.java.io/file -->
<g id="node1" class="node">
<title>clojure.java.io/file</title>
<ellipse fill="none" stroke="black" cx="953.43" cy="-1088.17" rx="99.61" ry="18"/>
<text text-anchor="middle" x="953.43" y="-1083.5" font-family="Times,serif" font-size="14.00">clojure.java.io/file</text>
</g>
<!-- aeonik.joystick&#45;fixer.core/correlate&#45;joystick&#45;name -->
<g id="node2" class="node">
<title>aeonik.joystick&#45;fixer.core/correlate&#45;joystick&#45;name</title>
<ellipse fill="none" stroke="black" cx="1411.41" cy="-1753.09" rx="255.34" ry="18"/>
<text text-anchor="middle" x="1411.41" y="-1748.42" font-family="Times,serif" font-size="14.00">aeonik.joystick&#45;fixer.core/correlate&#45;joystick&#45;name</text>
</g>
<!-- aeonik.joystick&#45;fixer.core/evdev&#45;regexp -->
<g id="node9" class="node">
<title>aeonik.joystick&#45;fixer.core/evdev&#45;regexp</title>
<ellipse fill="none" stroke="black" cx="1734.35" cy="-1693.05" rx="205.36" ry="18"/>
<text text-anchor="middle" x="1734.35" y="-1688.37" font-family="Times,serif" font-size="14.00">aeonik.joystick&#45;fixer.core/evdev&#45;regexp</text>
</g>
<!-- aeonik.joystick&#45;fixer.core/correlate&#45;joystick&#45;name&#45;&gt;aeonik.joystick&#45;fixer.core/evdev&#45;regexp -->
<g id="edge1" class="edge">
<title>aeonik.joystick&#45;fixer.core/correlate&#45;joystick&#45;name&#45;&gt;aeonik.joystick&#45;fixer.core/evdev&#45;regexp</title>
<path fill="none" stroke="black" d="M1503.95,-1735.88C1544.5,-1728.35 1592.19,-1719.48 1633.62,-1711.77"/>
<polygon fill="black" stroke="black" points="1634.17,-1715.23 1643.37,-1709.96 1632.9,-1708.35 1634.17,-1715.23"/>
</g>
<!-- aeonik.joystick&#45;fixer.core/regex&#45;search&#45;&gt;id&#45;symlinks -->
<g id="node28" class="node">
<title>aeonik.joystick&#45;fixer.core/regex&#45;search&#45;&gt;id&#45;symlinks</title>
<ellipse fill="none" stroke="black" cx="1097.65" cy="-1353.66" rx="270.6" ry="18"/>
<text text-anchor="middle" x="1097.65" y="-1348.99" font-family="Times,serif" font-size="14.00">aeonik.joystick&#45;fixer.core/regex&#45;search&#45;&gt;id&#45;symlinks</text>
</g>
<!-- aeonik.joystick&#45;fixer.core/correlate&#45;joystick&#45;name&#45;&gt;aeonik.joystick&#45;fixer.core/regex&#45;search&#45;&gt;id&#45;symlinks -->
<g id="edge2" class="edge">
<title>aeonik.joystick&#45;fixer.core/correlate&#45;joystick&#45;name&#45;&gt;aeonik.joystick&#45;fixer.core/regex&#45;search&#45;&gt;id&#45;symlinks</title>
<path fill="none" stroke="black" d="M1393.5,-1734.82C1337.25,-1677.44 1167.86,-1504.62 1167.86,-1504.62 1167.86,-1504.62 1131.26,-1425.93 1110.91,-1382.17"/>
<polygon fill="black" stroke="black" points="1114.14,-1380.84 1106.75,-1373.25 1107.8,-1383.79 1114.14,-1380.84"/>
</g>
<!-- aeonik.joystick&#45;fixer.core/joydev&#45;regexp -->
<g id="node31" class="node">
<title>aeonik.joystick&#45;fixer.core/joydev&#45;regexp</title>
<ellipse fill="none" stroke="black" cx="1824.79" cy="-1632.68" rx="208.51" ry="18"/>
<text text-anchor="middle" x="1824.79" y="-1628" font-family="Times,serif" font-size="14.00">aeonik.joystick&#45;fixer.core/joydev&#45;regexp</text>
</g>
<!-- aeonik.joystick&#45;fixer.core/correlate&#45;joystick&#45;name&#45;&gt;aeonik.joystick&#45;fixer.core/joydev&#45;regexp -->
<g id="edge3" class="edge">
<title>aeonik.joystick&#45;fixer.core/correlate&#45;joystick&#45;name&#45;&gt;aeonik.joystick&#45;fixer.core/joydev&#45;regexp</title>
<path fill="none" stroke="black" d="M1446.52,-1734.88C1480.66,-1717.18 1527.39,-1692.94 1527.39,-1692.94 1527.39,-1692.94 1588.78,-1679.11 1588.78,-1679.11 1588.78,-1679.11 1662.89,-1664.53 1728.05,-1651.71"/>
<polygon fill="black" stroke="black" points="1728.63,-1655.16 1737.77,-1649.8 1727.28,-1648.3 1728.63,-1655.16"/>
</g>
<!-- aeonik.joystick&#45;fixer.core/by&#45;id&#45;&gt;by&#45;path -->
<g id="node3" class="node">
<title>aeonik.joystick&#45;fixer.core/by&#45;id&#45;&gt;by&#45;path</title>
<ellipse fill="none" stroke="black" cx="1178.12" cy="-773.06" rx="212.2" ry="18"/>
<text text-anchor="middle" x="1178.12" y="-768.39" font-family="Times,serif" font-size="14.00">aeonik.joystick&#45;fixer.core/by&#45;id&#45;&gt;by&#45;path</text>
</g>
<!-- aeonik.joystick&#45;fixer.core/by&#45;id&#45;&gt;by&#45;path&#45;&gt;clojure.java.io/file -->
<g id="edge4" class="edge">
<title>aeonik.joystick&#45;fixer.core/by&#45;id&#45;&gt;by&#45;path&#45;&gt;clojure.java.io/file</title>
<path fill="none" stroke="black" d="M1108.54,-790.49C1056.42,-803.54 994.07,-819.16 994.07,-819.16 994.07,-819.16 968.45,-988.72 957.9,-1058.61"/>
<polygon fill="black" stroke="black" points="954.48,-1057.78 956.45,-1068.19 961.4,-1058.82 954.48,-1057.78"/>
</g>
<!-- aeonik.joystick&#45;fixer.core/file&#45;&gt;symlink -->
<g id="node25" class="node">
<title>aeonik.joystick&#45;fixer.core/file&#45;&gt;symlink</title>
<ellipse fill="none" stroke="black" cx="696.55" cy="-958.64" rx="203.78" ry="18"/>
<text text-anchor="middle" x="696.55" y="-953.97" font-family="Times,serif" font-size="14.00">aeonik.joystick&#45;fixer.core/file&#45;&gt;symlink</text>
</g>
<!-- aeonik.joystick&#45;fixer.core/by&#45;id&#45;&gt;by&#45;path&#45;&gt;aeonik.joystick&#45;fixer.core/file&#45;&gt;symlink -->
<g id="edge5" class="edge">
<title>aeonik.joystick&#45;fixer.core/by&#45;id&#45;&gt;by&#45;path&#45;&gt;aeonik.joystick&#45;fixer.core/file&#45;&gt;symlink</title>
<path fill="none" stroke="black" d="M1108.54,-790.49C1056.42,-803.54 994.07,-819.16 994.07,-819.16 994.07,-819.16 829.98,-896.09 745.52,-935.68"/>
<polygon fill="black" stroke="black" points="744.08,-932.49 736.51,-939.91 747.05,-938.83 744.08,-932.49"/>
</g>
<!-- aeonik.joystick&#45;fixer.core/device&#45;paths -->
<g id="node29" class="node">
<title>aeonik.joystick&#45;fixer.core/device&#45;paths</title>
<ellipse fill="none" stroke="black" cx="1262.79" cy="-1117.12" rx="201.15" ry="18"/>
<text text-anchor="middle" x="1262.79" y="-1112.44" font-family="Times,serif" font-size="14.00">aeonik.joystick&#45;fixer.core/device&#45;paths</text>
</g>
<!-- aeonik.joystick&#45;fixer.core/by&#45;id&#45;&gt;by&#45;path&#45;&gt;aeonik.joystick&#45;fixer.core/device&#45;paths -->
<g id="edge6" class="edge">
<title>aeonik.joystick&#45;fixer.core/by&#45;id&#45;&gt;by&#45;path&#45;&gt;aeonik.joystick&#45;fixer.core/device&#45;paths</title>
<path fill="none" stroke="black" d="M1271.15,-789.65C1315.66,-797.58 1359.4,-805.38 1359.4,-805.38 1359.4,-805.38 1421.66,-819.25 1421.66,-819.25 1421.66,-819.25 1317.48,-1014.58 1277.84,-1088.89"/>
<polygon fill="black" stroke="black" points="1274.82,-1087.13 1273.2,-1097.6 1280.99,-1090.42 1274.82,-1087.13"/>
</g>
<!-- aeonik.joystick&#45;fixer.core/get&#45;corresponding&#45;path -->
<g id="node33" class="node">
<title>aeonik.joystick&#45;fixer.core/get&#45;corresponding&#45;path</title>
<ellipse fill="none" stroke="black" cx="702.53" cy="-737.61" rx="255.34" ry="18"/>
<text text-anchor="middle" x="702.53" y="-732.94" font-family="Times,serif" font-size="14.00">aeonik.joystick&#45;fixer.core/get&#45;corresponding&#45;path</text>
</g>
<!-- aeonik.joystick&#45;fixer.core/by&#45;id&#45;&gt;by&#45;path&#45;&gt;aeonik.joystick&#45;fixer.core/get&#45;corresponding&#45;path -->
<g id="edge7" class="edge">
<title>aeonik.joystick&#45;fixer.core/by&#45;id&#45;&gt;by&#45;path&#45;&gt;aeonik.joystick&#45;fixer.core/get&#45;corresponding&#45;path</title>
<path fill="none" stroke="black" d="M1016.77,-761.04C976.55,-758.04 933.07,-754.8 891.64,-751.71"/>
<polygon fill="black" stroke="black" points="892.04,-748.23 881.81,-750.98 891.52,-755.21 892.04,-748.23"/>
</g>
<!-- aeonik.joystick&#45;fixer.core/search&#45;path -->
<g id="node4" class="node">
<title>aeonik.joystick&#45;fixer.core/search&#45;path</title>
<ellipse fill="none" stroke="black" cx="622.03" cy="-1393.55" rx="196.94" ry="18"/>
<text text-anchor="middle" x="622.03" y="-1388.87" font-family="Times,serif" font-size="14.00">aeonik.joystick&#45;fixer.core/search&#45;path</text>
</g>
<!-- aeonik.joystick&#45;fixer.core/search&#45;path&#45;&gt;clojure.java.io/file -->
<g id="edge8" class="edge">
<title>aeonik.joystick&#45;fixer.core/search&#45;path&#45;&gt;clojure.java.io/file</title>
<path fill="none" stroke="black" d="M641.77,-1375.36C698.18,-1323.38 860.22,-1174.06 925.59,-1113.82"/>
<polygon fill="black" stroke="black" points="927.7,-1116.64 932.68,-1107.29 922.96,-1111.49 927.7,-1116.64"/>
</g>
<!-- aeonik.joystick&#45;fixer.core/symlink&#45;target&#45;&gt;info -->
<g id="node5" class="node">
<title>aeonik.joystick&#45;fixer.core/symlink&#45;target&#45;&gt;info</title>
<ellipse fill="none" stroke="black" cx="1367.44" cy="-130.86" rx="241.66" ry="18"/>
<text text-anchor="middle" x="1367.44" y="-126.18" font-family="Times,serif" font-size="14.00">aeonik.joystick&#45;fixer.core/symlink&#45;target&#45;&gt;info</text>
</g>
<!-- aeonik.joystick&#45;fixer.core/evdev&#45;path&#45;regexp -->
<g id="node26" class="node">
<title>aeonik.joystick&#45;fixer.core/evdev&#45;path&#45;regexp</title>
<ellipse fill="none" stroke="black" cx="1741.86" cy="-18" rx="231.14" ry="18"/>
<text text-anchor="middle" x="1741.86" y="-13.32" font-family="Times,serif" font-size="14.00">aeonik.joystick&#45;fixer.core/evdev&#45;path&#45;regexp</text>
</g>
<!-- aeonik.joystick&#45;fixer.core/symlink&#45;target&#45;&gt;info&#45;&gt;aeonik.joystick&#45;fixer.core/evdev&#45;path&#45;regexp -->
<g id="edge9" class="edge">
<title>aeonik.joystick&#45;fixer.core/symlink&#45;target&#45;&gt;info&#45;&gt;aeonik.joystick&#45;fixer.core/evdev&#45;path&#45;regexp</title>
<path fill="none" stroke="black" d="M1426.77,-112.98C1493.32,-92.92 1601.16,-60.41 1671.8,-39.12"/>
<polygon fill="black" stroke="black" points="1672.8,-42.47 1681.36,-36.24 1670.78,-35.77 1672.8,-42.47"/>
</g>
<!-- aeonik.joystick&#45;fixer.core/symlink&#45;target&#45;&gt;joydev&#45;info -->
<g id="node27" class="node">
<title>aeonik.joystick&#45;fixer.core/symlink&#45;target&#45;&gt;joydev&#45;info</title>
<ellipse fill="none" stroke="black" cx="1480.88" cy="-572.29" rx="277.44" ry="18"/>
<text text-anchor="middle" x="1480.88" y="-567.62" font-family="Times,serif" font-size="14.00">aeonik.joystick&#45;fixer.core/symlink&#45;target&#45;&gt;joydev&#45;info</text>
</g>
<!-- aeonik.joystick&#45;fixer.core/symlink&#45;target&#45;&gt;info&#45;&gt;aeonik.joystick&#45;fixer.core/symlink&#45;target&#45;&gt;joydev&#45;info -->
<g id="edge10" class="edge">
<title>aeonik.joystick&#45;fixer.core/symlink&#45;target&#45;&gt;info&#45;&gt;aeonik.joystick&#45;fixer.core/symlink&#45;target&#45;&gt;joydev&#45;info</title>
<path fill="none" stroke="black" d="M1380.64,-149.12C1435.3,-224.74 1641.06,-509.42 1641.06,-509.42 1641.06,-509.42 1583.79,-531.9 1537.74,-549.98"/>
<polygon fill="black" stroke="black" points="1536.65,-546.64 1528.62,-553.55 1539.21,-553.16 1536.65,-546.64"/>
</g>
<!-- aeonik.joystick&#45;fixer.core/symlink&#45;target&#45;&gt;evdev&#45;info -->
<g id="node32" class="node">
<title>aeonik.joystick&#45;fixer.core/symlink&#45;target&#45;&gt;evdev&#45;info</title>
<ellipse fill="none" stroke="black" cx="1365.19" cy="-509.32" rx="274.28" ry="18"/>
<text text-anchor="middle" x="1365.19" y="-504.65" font-family="Times,serif" font-size="14.00">aeonik.joystick&#45;fixer.core/symlink&#45;target&#45;&gt;evdev&#45;info</text>
</g>
<!-- aeonik.joystick&#45;fixer.core/symlink&#45;target&#45;&gt;info&#45;&gt;aeonik.joystick&#45;fixer.core/symlink&#45;target&#45;&gt;evdev&#45;info -->
<g id="edge11" class="edge">
<title>aeonik.joystick&#45;fixer.core/symlink&#45;target&#45;&gt;info&#45;&gt;aeonik.joystick&#45;fixer.core/symlink&#45;target&#45;&gt;evdev&#45;info</title>
<path fill="none" stroke="black" d="M1367.33,-149.11C1366.97,-209.82 1365.81,-405.28 1365.36,-479.95"/>
<polygon fill="black" stroke="black" points="1361.86,-479.72 1365.3,-489.74 1368.86,-479.76 1361.86,-479.72"/>
</g>
<!-- aeonik.joystick&#45;fixer.core/&#45;main -->
<g id="node6" class="node">
<title>aeonik.joystick&#45;fixer.core/&#45;main</title>
<ellipse fill="none" stroke="black" cx="983.48" cy="-1941.72" rx="165.9" ry="18"/>
<text text-anchor="middle" x="983.48" y="-1937.04" font-family="Times,serif" font-size="14.00">aeonik.joystick&#45;fixer.core/&#45;main</text>
</g>
<!-- aeonik.joystick&#45;fixer.core/process&#45;all&#45;joysticks -->
<g id="node8" class="node">
<title>aeonik.joystick&#45;fixer.core/process&#45;all&#45;joysticks</title>
<ellipse fill="none" stroke="black" cx="1407.96" cy="-1504.72" rx="238.5" ry="18"/>
<text text-anchor="middle" x="1407.96" y="-1500.04" font-family="Times,serif" font-size="14.00">aeonik.joystick&#45;fixer.core/process&#45;all&#45;joysticks</text>
</g>
<!-- aeonik.joystick&#45;fixer.core/&#45;main&#45;&gt;aeonik.joystick&#45;fixer.core/process&#45;all&#45;joysticks -->
<g id="edge12" class="edge">
<title>aeonik.joystick&#45;fixer.core/&#45;main&#45;&gt;aeonik.joystick&#45;fixer.core/process&#45;all&#45;joysticks</title>
<path fill="none" stroke="black" d="M999.88,-1923.63C1042.67,-1876.42 1154.47,-1753.09 1154.47,-1753.09 1154.47,-1753.09 1315.95,-1594.87 1381.14,-1530.99"/>
<polygon fill="black" stroke="black" points="1383.55,-1533.54 1388.24,-1524.04 1378.65,-1528.54 1383.55,-1533.54"/>
</g>
<!-- clojure.pprint/pprint -->
<g id="node35" class="node">
<title>clojure.pprint/pprint</title>
<ellipse fill="none" stroke="black" cx="1400.37" cy="-1826.4" rx="113.82" ry="18"/>
<text text-anchor="middle" x="1400.37" y="-1821.73" font-family="Times,serif" font-size="14.00">clojure.pprint/pprint</text>
</g>
<!-- aeonik.joystick&#45;fixer.core/&#45;main&#45;&gt;clojure.pprint/pprint -->
<g id="edge13" class="edge">
<title>aeonik.joystick&#45;fixer.core/&#45;main&#45;&gt;clojure.pprint/pprint</title>
<path fill="none" stroke="black" d="M1045.44,-1924.58C1122.13,-1903.36 1252.31,-1867.36 1331.89,-1845.35"/>
<polygon fill="black" stroke="black" points="1332.61,-1848.78 1341.31,-1842.74 1330.74,-1842.03 1332.61,-1848.78"/>
</g>
<!-- aeonik.joystick&#45;fixer.core/filename&#45;&gt;joystick&#45;name -->
<g id="node7" class="node">
<title>aeonik.joystick&#45;fixer.core/filename&#45;&gt;joystick&#45;name</title>
<ellipse fill="none" stroke="black" cx="2163.93" cy="-1183.32" rx="261.13" ry="18"/>
<text text-anchor="middle" x="2163.93" y="-1178.65" font-family="Times,serif" font-size="14.00">aeonik.joystick&#45;fixer.core/filename&#45;&gt;joystick&#45;name</text>
</g>
<!-- aeonik.joystick&#45;fixer.core/extract&#45;name&#45;rexexp -->
<g id="node23" class="node">
<title>aeonik.joystick&#45;fixer.core/extract&#45;name&#45;rexexp</title>
<ellipse fill="none" stroke="black" cx="2546.79" cy="-1067.69" rx="241.66" ry="18"/>
<text text-anchor="middle" x="2546.79" y="-1063.02" font-family="Times,serif" font-size="14.00">aeonik.joystick&#45;fixer.core/extract&#45;name&#45;rexexp</text>
</g>
<!-- aeonik.joystick&#45;fixer.core/filename&#45;&gt;joystick&#45;name&#45;&gt;aeonik.joystick&#45;fixer.core/extract&#45;name&#45;rexexp -->
<g id="edge14" class="edge">
<title>aeonik.joystick&#45;fixer.core/filename&#45;&gt;joystick&#45;name&#45;&gt;aeonik.joystick&#45;fixer.core/extract&#45;name&#45;rexexp</title>
<path fill="none" stroke="black" d="M2223.33,-1165.38C2291.75,-1144.72 2404.06,-1110.8 2476.7,-1088.86"/>
<polygon fill="black" stroke="black" points="2477.55,-1092.26 2486.11,-1086.02 2475.53,-1085.56 2477.55,-1092.26"/>
</g>
<!-- aeonik.joystick&#45;fixer.core/process&#45;all&#45;joysticks&#45;&gt;aeonik.joystick&#45;fixer.core/correlate&#45;joystick&#45;name -->
<g id="edge15" class="edge">
<title>aeonik.joystick&#45;fixer.core/process&#45;all&#45;joysticks&#45;&gt;aeonik.joystick&#45;fixer.core/correlate&#45;joystick&#45;name</title>
<path fill="none" stroke="black" d="M1408.21,-1522.98C1408.8,-1565.5 1410.27,-1671.45 1410.99,-1723.4"/>
<polygon fill="black" stroke="black" points="1407.49,-1723.34 1411.13,-1733.29 1414.49,-1723.24 1407.49,-1723.34"/>
</g>
<!-- aeonik.joystick&#45;fixer.core/get&#45;joystick&#45;info -->
<g id="node10" class="node">
<title>aeonik.joystick&#45;fixer.core/get&#45;joystick&#45;info</title>
<ellipse fill="none" stroke="black" cx="1652.71" cy="-914.14" rx="217.98" ry="18"/>
<text text-anchor="middle" x="1652.71" y="-909.47" font-family="Times,serif" font-size="14.00">aeonik.joystick&#45;fixer.core/get&#45;joystick&#45;info</text>
</g>
<!-- aeonik.joystick&#45;fixer.core/process&#45;all&#45;joysticks&#45;&gt;aeonik.joystick&#45;fixer.core/get&#45;joystick&#45;info -->
<g id="edge16" class="edge">
<title>aeonik.joystick&#45;fixer.core/process&#45;all&#45;joysticks&#45;&gt;aeonik.joystick&#45;fixer.core/get&#45;joystick&#45;info</title>
<path fill="none" stroke="black" d="M1407.43,-1486.37C1406,-1436.48 1402.14,-1302.04 1402.14,-1302.04 1402.14,-1302.04 1577.24,-1030.97 1634.69,-942.04"/>
<polygon fill="black" stroke="black" points="1637.49,-944.16 1639.97,-933.86 1631.61,-940.36 1637.49,-944.16"/>
</g>
<!-- aeonik.joystick&#45;fixer.core/get&#45;joystick&#45;names -->
<g id="node20" class="node">
<title>aeonik.joystick&#45;fixer.core/get&#45;joystick&#45;names</title>
<ellipse fill="none" stroke="black" cx="1635.4" cy="-1302.15" rx="231.66" ry="18"/>
<text text-anchor="middle" x="1635.4" y="-1297.47" font-family="Times,serif" font-size="14.00">aeonik.joystick&#45;fixer.core/get&#45;joystick&#45;names</text>
</g>
<!-- aeonik.joystick&#45;fixer.core/process&#45;all&#45;joysticks&#45;&gt;aeonik.joystick&#45;fixer.core/get&#45;joystick&#45;names -->
<g id="edge17" class="edge">
<title>aeonik.joystick&#45;fixer.core/process&#45;all&#45;joysticks&#45;&gt;aeonik.joystick&#45;fixer.core/get&#45;joystick&#45;names</title>
<path fill="none" stroke="black" d="M1428.54,-1486.38C1469.23,-1450.15 1560,-1369.3 1606.59,-1327.81"/>
<polygon fill="black" stroke="black" points="1608.76,-1330.57 1613.9,-1321.3 1604.1,-1325.34 1608.76,-1330.57"/>
</g>
<!-- aeonik.joystick&#45;fixer.core/process&#45;all&#45;joysticks&#45;&gt;aeonik.joystick&#45;fixer.core/device&#45;paths -->
<g id="edge18" class="edge">
<title>aeonik.joystick&#45;fixer.core/process&#45;all&#45;joysticks&#45;&gt;aeonik.joystick&#45;fixer.core/device&#45;paths</title>
<path fill="none" stroke="black" d="M1403.36,-1486.52C1393.22,-1446.39 1369.83,-1353.84 1369.83,-1353.84 1369.83,-1353.84 1304.19,-1208.68 1275.71,-1145.71"/>
<polygon fill="black" stroke="black" points="1278.94,-1144.35 1271.63,-1136.68 1272.56,-1147.23 1278.94,-1144.35"/>
</g>
<!-- aeonik.joystick&#45;fixer.core/join&#45;evdev+joydev&#45;info -->
<g id="node22" class="node">
<title>aeonik.joystick&#45;fixer.core/join&#45;evdev+joydev&#45;info</title>
<ellipse fill="none" stroke="black" cx="2125.48" cy="-862.26" rx="252.18" ry="18"/>
<text text-anchor="middle" x="2125.48" y="-857.58" font-family="Times,serif" font-size="14.00">aeonik.joystick&#45;fixer.core/join&#45;evdev+joydev&#45;info</text>
</g>
<!-- aeonik.joystick&#45;fixer.core/get&#45;joystick&#45;info&#45;&gt;aeonik.joystick&#45;fixer.core/join&#45;evdev+joydev&#45;info -->
<g id="edge19" class="edge">
<title>aeonik.joystick&#45;fixer.core/get&#45;joystick&#45;info&#45;&gt;aeonik.joystick&#45;fixer.core/join&#45;evdev+joydev&#45;info</title>
<path fill="none" stroke="black" d="M1785.98,-899.52C1844.59,-893.09 1913.73,-885.5 1974.26,-878.85"/>
<polygon fill="black" stroke="black" points="1974.4,-882.36 1983.95,-877.79 1973.63,-875.4 1974.4,-882.36"/>
</g>
<!-- aeonik.joystick&#45;fixer.core/get&#45;joystick&#45;info&#45;&gt;aeonik.joystick&#45;fixer.core/symlink&#45;target&#45;&gt;joydev&#45;info -->
<g id="edge20" class="edge">
<title>aeonik.joystick&#45;fixer.core/get&#45;joystick&#45;info&#45;&gt;aeonik.joystick&#45;fixer.core/symlink&#45;target&#45;&gt;joydev&#45;info</title>
<path fill="none" stroke="black" d="M1643.47,-895.76C1615.15,-839.42 1529.41,-668.83 1495.2,-600.77"/>
<polygon fill="black" stroke="black" points="1498.47,-599.48 1490.85,-592.11 1492.21,-602.62 1498.47,-599.48"/>
</g>
<!-- aeonik.joystick&#45;fixer.core/get&#45;joystick&#45;info&#45;&gt;aeonik.joystick&#45;fixer.core/symlink&#45;target&#45;&gt;evdev&#45;info -->
<g id="edge21" class="edge">
<title>aeonik.joystick&#45;fixer.core/get&#45;joystick&#45;info&#45;&gt;aeonik.joystick&#45;fixer.core/symlink&#45;target&#45;&gt;evdev&#45;info</title>
<path fill="none" stroke="black" d="M1628.47,-895.76C1534.82,-824.74 1201.85,-572.23 1201.85,-572.23 1201.85,-572.23 1260.25,-549.74 1307.21,-531.65"/>
<polygon fill="black" stroke="black" points="1308.46,-534.92 1316.53,-528.06 1305.94,-528.39 1308.46,-534.92"/>
</g>
<!-- aeonik.joystick&#45;fixer.core/deep&#45;merge -->
<g id="node11" class="node">
<title>aeonik.joystick&#45;fixer.core/deep&#45;merge</title>
<ellipse fill="none" stroke="black" cx="876.47" cy="-309" rx="197.47" ry="18"/>
<text text-anchor="middle" x="876.47" y="-304.32" font-family="Times,serif" font-size="14.00">aeonik.joystick&#45;fixer.core/deep&#45;merge</text>
</g>
<!-- aeonik.joystick&#45;fixer.core/deep&#45;merge&#45;&gt;aeonik.joystick&#45;fixer.core/deep&#45;merge -->
<g id="edge22" class="edge">
<title>aeonik.joystick&#45;fixer.core/deep&#45;merge&#45;&gt;aeonik.joystick&#45;fixer.core/deep&#45;merge</title>
<path fill="none" stroke="black" d="M1066.28,-314.22C1082.09,-313.09 1091.93,-311.36 1091.93,-309 1091.93,-307.27 1086.63,-305.87 1077.54,-304.81"/>
<polygon fill="black" stroke="black" points="1078.06,-301.34 1067.79,-303.92 1077.43,-308.31 1078.06,-301.34"/>
</g>
<!-- aeonik.joystick&#45;fixer.core/by&#45;path&#45;&gt;by&#45;id -->
<g id="node12" class="node">
<title>aeonik.joystick&#45;fixer.core/by&#45;path&#45;&gt;by&#45;id</title>
<ellipse fill="none" stroke="black" cx="1207.87" cy="-819.21" rx="212.2" ry="18"/>
<text text-anchor="middle" x="1207.87" y="-814.53" font-family="Times,serif" font-size="14.00">aeonik.joystick&#45;fixer.core/by&#45;path&#45;&gt;by&#45;id</text>
</g>
<!-- aeonik.joystick&#45;fixer.core/by&#45;path&#45;&gt;by&#45;id&#45;&gt;clojure.java.io/file -->
<g id="edge23" class="edge">
<title>aeonik.joystick&#45;fixer.core/by&#45;path&#45;&gt;by&#45;id&#45;&gt;clojure.java.io/file</title>
<path fill="none" stroke="black" d="M1190.78,-837.27C1146.78,-883.78 1029.47,-1007.79 978.1,-1062.09"/>
<polygon fill="black" stroke="black" points="975.81,-1059.42 971.49,-1069.09 980.9,-1064.23 975.81,-1059.42"/>
</g>
<!-- aeonik.joystick&#45;fixer.core/by&#45;path&#45;&gt;by&#45;id&#45;&gt;aeonik.joystick&#45;fixer.core/file&#45;&gt;symlink -->
<g id="edge24" class="edge">
<title>aeonik.joystick&#45;fixer.core/by&#45;path&#45;&gt;by&#45;id&#45;&gt;aeonik.joystick&#45;fixer.core/file&#45;&gt;symlink</title>
<path fill="none" stroke="black" d="M1143.37,-836.8C1048.65,-862.62 872.34,-910.71 771.83,-938.11"/>
<polygon fill="black" stroke="black" points="771.04,-934.7 762.32,-940.71 772.88,-941.45 771.04,-934.7"/>
</g>
<!-- aeonik.joystick&#45;fixer.core/by&#45;path&#45;&gt;by&#45;id&#45;&gt;aeonik.joystick&#45;fixer.core/device&#45;paths -->
<g id="edge25" class="edge">
<title>aeonik.joystick&#45;fixer.core/by&#45;path&#45;&gt;by&#45;id&#45;&gt;aeonik.joystick&#45;fixer.core/device&#45;paths</title>
<path fill="none" stroke="black" d="M1211.22,-837.39C1220.41,-887.25 1246.07,-1026.47 1257.35,-1087.65"/>
<polygon fill="black" stroke="black" points="1253.88,-1088.1 1259.13,-1097.3 1260.76,-1086.83 1253.88,-1088.1"/>
</g>
<!-- aeonik.joystick&#45;fixer.core/by&#45;path&#45;&gt;by&#45;id&#45;&gt;aeonik.joystick&#45;fixer.core/get&#45;corresponding&#45;path -->
<g id="edge26" class="edge">
<title>aeonik.joystick&#45;fixer.core/by&#45;path&#45;&gt;by&#45;id&#45;&gt;aeonik.joystick&#45;fixer.core/get&#45;corresponding&#45;path</title>
<path fill="none" stroke="black" d="M1107.12,-802.94C1023.82,-789.49 905.47,-770.38 818.28,-756.3"/>
<polygon fill="black" stroke="black" points="818.93,-752.86 808.5,-754.72 817.81,-759.77 818.93,-752.86"/>
</g>
<!-- aeonik.joystick&#45;fixer.core/symlink&#45;&gt;target -->
<g id="node13" class="node">
<title>aeonik.joystick&#45;fixer.core/symlink&#45;&gt;target</title>
<ellipse fill="none" stroke="black" cx="219.56" cy="-752.85" rx="219.56" ry="18"/>
<text text-anchor="middle" x="219.56" y="-748.18" font-family="Times,serif" font-size="14.00">aeonik.joystick&#45;fixer.core/symlink&#45;&gt;target</text>
</g>
<!-- aeonik.joystick&#45;fixer.core/example&#45;joystick&#45;names -->
<g id="node14" class="node">
<title>aeonik.joystick&#45;fixer.core/example&#45;joystick&#45;names</title>
<ellipse fill="none" stroke="black" cx="2197.44" cy="-600" rx="257.44" ry="18"/>
<text text-anchor="middle" x="2197.44" y="-595.32" font-family="Times,serif" font-size="14.00">aeonik.joystick&#45;fixer.core/example&#45;joystick&#45;names</text>
</g>
<!-- aeonik.joystick&#45;fixer.core/split&#45;usb&#45;pci -->
<g id="node15" class="node">
<title>aeonik.joystick&#45;fixer.core/split&#45;usb&#45;pci</title>
<ellipse fill="none" stroke="black" cx="2505.68" cy="-745.97" rx="199.04" ry="18"/>
<text text-anchor="middle" x="2505.68" y="-741.29" font-family="Times,serif" font-size="14.00">aeonik.joystick&#45;fixer.core/split&#45;usb&#45;pci</text>
</g>
<!-- aeonik.joystick&#45;fixer.core/simple&#45;replace -->
<g id="node16" class="node">
<title>aeonik.joystick&#45;fixer.core/simple&#45;replace</title>
<ellipse fill="none" stroke="black" cx="2202.28" cy="-406" rx="211.15" ry="18"/>
<text text-anchor="middle" x="2202.28" y="-401.32" font-family="Times,serif" font-size="14.00">aeonik.joystick&#45;fixer.core/simple&#45;replace</text>
</g>
<!-- clojure.string/replace -->
<g id="node34" class="node">
<title>clojure.string/replace</title>
<ellipse fill="none" stroke="black" cx="1864.55" cy="-406" rx="118.55" ry="18"/>
<text text-anchor="middle" x="1864.55" y="-401.32" font-family="Times,serif" font-size="14.00">clojure.string/replace</text>
</g>
<!-- aeonik.joystick&#45;fixer.core/simple&#45;replace&#45;&gt;clojure.string/replace -->
<g id="edge27" class="edge">
<title>aeonik.joystick&#45;fixer.core/simple&#45;replace&#45;&gt;clojure.string/replace</title>
<path fill="none" stroke="black" d="M1990.79,-406C1990.63,-406 1990.47,-406 1990.31,-406"/>
<polygon fill="black" stroke="black" points="1994.77,-402.5 1984.77,-406 1994.77,-409.5 1994.77,-402.5"/>
</g>
<!-- aeonik.joystick&#45;fixer.core/transform&#45;data -->
<g id="node17" class="node">
<title>aeonik.joystick&#45;fixer.core/transform&#45;data</title>
<ellipse fill="none" stroke="black" cx="2056.25" cy="-212" rx="213.25" ry="18"/>
<text text-anchor="middle" x="2056.25" y="-207.32" font-family="Times,serif" font-size="14.00">aeonik.joystick&#45;fixer.core/transform&#45;data</text>
</g>
<!-- aeonik.joystick&#45;fixer.core/data2 -->
<g id="node18" class="node">
<title>aeonik.joystick&#45;fixer.core/data2</title>
<ellipse fill="none" stroke="black" cx="845.43" cy="-1667" rx="166.43" ry="18"/>
<text text-anchor="middle" x="845.43" y="-1662.32" font-family="Times,serif" font-size="14.00">aeonik.joystick&#45;fixer.core/data2</text>
</g>
<!-- aeonik.joystick&#45;fixer.core/example&#45;joydev&#45;info -->
<g id="node19" class="node">
<title>aeonik.joystick&#45;fixer.core/example&#45;joydev&#45;info</title>
<ellipse fill="none" stroke="black" cx="3059.66" cy="-1497.67" rx="237.98" ry="18"/>
<text text-anchor="middle" x="3059.66" y="-1493" font-family="Times,serif" font-size="14.00">aeonik.joystick&#45;fixer.core/example&#45;joydev&#45;info</text>
</g>
<!-- aeonik.joystick&#45;fixer.core/get&#45;joystick&#45;names&#45;&gt;clojure.java.io/file -->
<g id="edge28" class="edge">
<title>aeonik.joystick&#45;fixer.core/get&#45;joystick&#45;names&#45;&gt;clojure.java.io/file</title>
<path fill="none" stroke="black" d="M1578.43,-1284.27C1451.39,-1244.41 1145.81,-1148.53 1014.78,-1107.42"/>
<polygon fill="black" stroke="black" points="1016.18,-1104.19 1005.59,-1104.54 1014.09,-1110.87 1016.18,-1104.19"/>
</g>
<!-- aeonik.joystick&#45;fixer.core/get&#45;joystick&#45;names&#45;&gt;aeonik.joystick&#45;fixer.core/filename&#45;&gt;joystick&#45;name -->
<g id="edge29" class="edge">
<title>aeonik.joystick&#45;fixer.core/get&#45;joystick&#45;names&#45;&gt;aeonik.joystick&#45;fixer.core/filename&#45;&gt;joystick&#45;name</title>
<path fill="none" stroke="black" d="M1712.82,-1284.74C1808.99,-1263.12 1972.77,-1226.3 2074.29,-1203.47"/>
<polygon fill="black" stroke="black" points="2074.97,-1206.91 2083.96,-1201.3 2073.44,-1200.08 2074.97,-1206.91"/>
</g>
<!-- aeonik.joystick&#45;fixer.core/get&#45;joystick&#45;names&#45;&gt;aeonik.joystick&#45;fixer.core/evdev&#45;regexp -->
<g id="edge30" class="edge">
<title>aeonik.joystick&#45;fixer.core/get&#45;joystick&#45;names&#45;&gt;aeonik.joystick&#45;fixer.core/evdev&#45;regexp</title>
<path fill="none" stroke="black" d="M1633.87,-1320.46C1631.79,-1345.27 1628.33,-1386.53 1628.33,-1386.53 1628.33,-1386.53 1648.06,-1504.81 1648.06,-1504.81 1648.06,-1504.81 1614.69,-1632.5 1614.69,-1632.5 1614.69,-1632.5 1654.53,-1652.66 1688.24,-1669.71"/>
<polygon fill="black" stroke="black" points="1686.59,-1672.8 1697.1,-1674.2 1689.75,-1666.56 1686.59,-1672.8"/>
</g>
<!-- aeonik.joystick&#45;fixer.core/example&#45;joystick&#45;map -->
<g id="node21" class="node">
<title>aeonik.joystick&#45;fixer.core/example&#45;joystick&#45;map</title>
<ellipse fill="none" stroke="black" cx="2567.08" cy="-1473" rx="246.39" ry="18"/>
<text text-anchor="middle" x="2567.08" y="-1468.32" font-family="Times,serif" font-size="14.00">aeonik.joystick&#45;fixer.core/example&#45;joystick&#45;map</text>
</g>
<!-- aeonik.joystick&#45;fixer.core/example&#45;joystick&#45;map&#45;&gt;aeonik.joystick&#45;fixer.core/example&#45;joydev&#45;info -->
<g id="edge31" class="edge">
<title>aeonik.joystick&#45;fixer.core/example&#45;joystick&#45;map&#45;&gt;aeonik.joystick&#45;fixer.core/example&#45;joydev&#45;info</title>
<path fill="none" stroke="black" d="M2772.06,-1483.27C2797.25,-1484.53 2823.04,-1485.82 2848.33,-1487.09"/>
<polygon fill="black" stroke="black" points="2847.85,-1490.57 2858.01,-1487.57 2848.2,-1483.58 2847.85,-1490.57"/>
</g>
<!-- aeonik.joystick&#45;fixer.core/example&#45;evdev&#45;info -->
<g id="node30" class="node">
<title>aeonik.joystick&#45;fixer.core/example&#45;evdev&#45;info</title>
<ellipse fill="none" stroke="black" cx="2077.82" cy="-1497.64" rx="234.82" ry="18"/>
<text text-anchor="middle" x="2077.82" y="-1492.96" font-family="Times,serif" font-size="14.00">aeonik.joystick&#45;fixer.core/example&#45;evdev&#45;info</text>
</g>
<!-- aeonik.joystick&#45;fixer.core/example&#45;joystick&#45;map&#45;&gt;aeonik.joystick&#45;fixer.core/example&#45;evdev&#45;info -->
<g id="edge32" class="edge">
<title>aeonik.joystick&#45;fixer.core/example&#45;joystick&#45;map&#45;&gt;aeonik.joystick&#45;fixer.core/example&#45;evdev&#45;info</title>
<path fill="none" stroke="black" d="M2362.43,-1483.31C2337.56,-1484.56 2312.13,-1485.84 2287.2,-1487.1"/>
<polygon fill="black" stroke="black" points="2287.1,-1483.6 2277.29,-1487.59 2287.46,-1490.59 2287.1,-1483.6"/>
</g>
<!-- aeonik.joystick&#45;fixer.core/join&#45;evdev+joydev&#45;info&#45;&gt;aeonik.joystick&#45;fixer.core/filename&#45;&gt;joystick&#45;name -->
<g id="edge33" class="edge">
<title>aeonik.joystick&#45;fixer.core/join&#45;evdev+joydev&#45;info&#45;&gt;aeonik.joystick&#45;fixer.core/filename&#45;&gt;joystick&#45;name</title>
<path fill="none" stroke="black" d="M2127.65,-880.44C2134.01,-933.51 2152.58,-1088.59 2160.4,-1153.85"/>
<polygon fill="black" stroke="black" points="2156.88,-1153.93 2161.55,-1163.44 2163.83,-1153.09 2156.88,-1153.93"/>
</g>
<!-- aeonik.joystick&#45;fixer.core/join&#45;evdev+joydev&#45;info&#45;&gt;aeonik.joystick&#45;fixer.core/split&#45;usb&#45;pci -->
<g id="edge34" class="edge">
<title>aeonik.joystick&#45;fixer.core/join&#45;evdev+joydev&#45;info&#45;&gt;aeonik.joystick&#45;fixer.core/split&#45;usb&#45;pci</title>
<path fill="none" stroke="black" d="M2184.05,-844.34C2252.31,-823.46 2364.94,-789.02 2437.18,-766.92"/>
<polygon fill="black" stroke="black" points="2437.99,-770.33 2446.53,-764.06 2435.95,-763.64 2437.99,-770.33"/>
</g>
<!-- aeonik.joystick&#45;fixer.core/lookup&#45;all&#45;symlinks -->
<g id="node24" class="node">
<title>aeonik.joystick&#45;fixer.core/lookup&#45;all&#45;symlinks</title>
<ellipse fill="none" stroke="black" cx="435.72" cy="-1106.86" rx="233.77" ry="18"/>
<text text-anchor="middle" x="435.72" y="-1102.19" font-family="Times,serif" font-size="14.00">aeonik.joystick&#45;fixer.core/lookup&#45;all&#45;symlinks</text>
</g>
<!-- aeonik.joystick&#45;fixer.core/lookup&#45;all&#45;symlinks&#45;&gt;clojure.java.io/file -->
<g id="edge35" class="edge">
<title>aeonik.joystick&#45;fixer.core/lookup&#45;all&#45;symlinks&#45;&gt;clojure.java.io/file</title>
<path fill="none" stroke="black" d="M648.54,-1099.18C715.73,-1096.75 787.2,-1094.17 844.04,-1092.12"/>
<polygon fill="black" stroke="black" points="843.83,-1095.63 853.7,-1091.77 843.58,-1088.64 843.83,-1095.63"/>
</g>
<!-- aeonik.joystick&#45;fixer.core/lookup&#45;all&#45;symlinks&#45;&gt;aeonik.joystick&#45;fixer.core/file&#45;&gt;symlink -->
<g id="edge36" class="edge">
<title>aeonik.joystick&#45;fixer.core/lookup&#45;all&#45;symlinks&#45;&gt;aeonik.joystick&#45;fixer.core/file&#45;&gt;symlink</title>
<path fill="none" stroke="black" d="M467.97,-1088.54C515.12,-1061.74 602.9,-1011.86 654.89,-982.32"/>
<polygon fill="black" stroke="black" points="656.5,-985.42 663.47,-977.44 653.05,-979.34 656.5,-985.42"/>
</g>
<!-- aeonik.joystick&#45;fixer.core/file&#45;&gt;symlink&#45;&gt;aeonik.joystick&#45;fixer.core/symlink&#45;&gt;target -->
<g id="edge37" class="edge">
<title>aeonik.joystick&#45;fixer.core/file&#45;&gt;symlink&#45;&gt;aeonik.joystick&#45;fixer.core/symlink&#45;&gt;target</title>
<path fill="none" stroke="black" d="M654.64,-940.56C567.63,-903.02 367.57,-816.71 272.11,-775.52"/>
<polygon fill="black" stroke="black" points="273.51,-772.31 262.94,-771.57 270.73,-778.74 273.51,-772.31"/>
</g>
<!-- aeonik.joystick&#45;fixer.core/symlink&#45;target&#45;&gt;joydev&#45;info&#45;&gt;aeonik.joystick&#45;fixer.core/by&#45;id&#45;&gt;by&#45;path -->
<g id="edge38" class="edge">
<title>aeonik.joystick&#45;fixer.core/symlink&#45;target&#45;&gt;joydev&#45;info&#45;&gt;aeonik.joystick&#45;fixer.core/by&#45;id&#45;&gt;by&#45;path</title>
<path fill="none" stroke="black" d="M1453.21,-590.64C1398.48,-626.94 1276.38,-707.9 1214.93,-748.65"/>
<polygon fill="black" stroke="black" points="1213.27,-745.55 1206.87,-753.99 1217.14,-751.38 1213.27,-745.55"/>
</g>
<!-- aeonik.joystick&#45;fixer.core/symlink&#45;target&#45;&gt;joydev&#45;info&#45;&gt;aeonik.joystick&#45;fixer.core/by&#45;path&#45;&gt;by&#45;id -->
<g id="edge39" class="edge">
<title>aeonik.joystick&#45;fixer.core/symlink&#45;target&#45;&gt;joydev&#45;info&#45;&gt;aeonik.joystick&#45;fixer.core/by&#45;path&#45;&gt;by&#45;id</title>
<path fill="none" stroke="black" d="M1472.83,-590.46C1450.93,-639.89 1391.91,-773.07 1391.91,-773.07 1391.91,-773.07 1338.02,-786.58 1288.57,-798.98"/>
<polygon fill="black" stroke="black" points="1287.76,-795.57 1278.91,-801.4 1289.47,-802.36 1287.76,-795.57"/>
</g>
<!-- aeonik.joystick&#45;fixer.core/regex&#45;search&#45;&gt;id&#45;symlinks&#45;&gt;clojure.java.io/file -->
<g id="edge40" class="edge">
<title>aeonik.joystick&#45;fixer.core/regex&#45;search&#45;&gt;id&#45;symlinks&#45;&gt;clojure.java.io/file</title>
<path fill="none" stroke="black" d="M1087.73,-1335.42C1063.03,-1289.95 998.6,-1171.34 968.87,-1116.6"/>
<polygon fill="black" stroke="black" points="971.98,-1115 964.13,-1107.88 965.83,-1118.34 971.98,-1115"/>
</g>
<!-- aeonik.joystick&#45;fixer.core/regex&#45;search&#45;&gt;id&#45;symlinks&#45;&gt;aeonik.joystick&#45;fixer.core/search&#45;path -->
<g id="edge41" class="edge">
<title>aeonik.joystick&#45;fixer.core/regex&#45;search&#45;&gt;id&#45;symlinks&#45;&gt;aeonik.joystick&#45;fixer.core/search&#45;path</title>
<path fill="none" stroke="black" d="M926.61,-1368.01C878.9,-1372.01 827.29,-1376.33 780.35,-1380.27"/>
<polygon fill="black" stroke="black" points="780.34,-1376.76 770.66,-1381.08 780.92,-1383.73 780.34,-1376.76"/>
</g>
<!-- aeonik.joystick&#45;fixer.core/regex&#45;search&#45;&gt;id&#45;symlinks&#45;&gt;aeonik.joystick&#45;fixer.core/file&#45;&gt;symlink -->
<g id="edge42" class="edge">
<title>aeonik.joystick&#45;fixer.core/regex&#45;search&#45;&gt;id&#45;symlinks&#45;&gt;aeonik.joystick&#45;fixer.core/file&#45;&gt;symlink</title>
<path fill="none" stroke="black" d="M1079.1,-1335.4C1014.42,-1271.7 798.61,-1059.16 722.99,-984.69"/>
<polygon fill="black" stroke="black" points="725.55,-982.29 715.97,-977.77 720.64,-987.28 725.55,-982.29"/>
</g>
<!-- aeonik.joystick&#45;fixer.core/regex&#45;search&#45;&gt;id&#45;symlinks&#45;&gt;aeonik.joystick&#45;fixer.core/device&#45;paths -->
<g id="edge43" class="edge">
<title>aeonik.joystick&#45;fixer.core/regex&#45;search&#45;&gt;id&#45;symlinks&#45;&gt;aeonik.joystick&#45;fixer.core/device&#45;paths</title>
<path fill="none" stroke="black" d="M1110.33,-1335.5C1139.09,-1294.3 1209.39,-1193.6 1243.54,-1144.69"/>
<polygon fill="black" stroke="black" points="1246.34,-1146.79 1249.19,-1136.59 1240.6,-1142.79 1246.34,-1146.79"/>
</g>
<!-- aeonik.joystick&#45;fixer.core/symlink&#45;target&#45;&gt;evdev&#45;info&#45;&gt;aeonik.joystick&#45;fixer.core/by&#45;id&#45;&gt;by&#45;path -->
<g id="edge44" class="edge">
<title>aeonik.joystick&#45;fixer.core/symlink&#45;target&#45;&gt;evdev&#45;info&#45;&gt;aeonik.joystick&#45;fixer.core/by&#45;id&#45;&gt;by&#45;path</title>
<path fill="none" stroke="black" d="M1317.94,-527.52C1269.7,-546.1 1201.85,-572.23 1201.85,-572.23 1201.85,-572.23 1188.19,-687.86 1181.59,-743.64"/>
<polygon fill="black" stroke="black" points="1178.14,-743.04 1180.44,-753.38 1185.09,-743.86 1178.14,-743.04"/>
</g>
<!-- aeonik.joystick&#45;fixer.core/symlink&#45;target&#45;&gt;evdev&#45;info&#45;&gt;aeonik.joystick&#45;fixer.core/by&#45;path&#45;&gt;by&#45;id -->
<g id="edge45" class="edge">
<title>aeonik.joystick&#45;fixer.core/symlink&#45;target&#45;&gt;evdev&#45;info&#45;&gt;aeonik.joystick&#45;fixer.core/by&#45;path&#45;&gt;by&#45;id</title>
<path fill="none" stroke="black" d="M1317.94,-527.52C1269.7,-546.1 1201.85,-572.23 1201.85,-572.23 1201.85,-572.23 1391.91,-773.07 1391.91,-773.07 1391.91,-773.07 1338.02,-786.58 1288.57,-798.98"/>
<polygon fill="black" stroke="black" points="1287.76,-795.57 1278.91,-801.4 1289.47,-802.36 1287.76,-795.57"/>
</g>
<!-- aeonik.joystick&#45;fixer.core/get&#45;corresponding&#45;path&#45;&gt;clojure.java.io/file -->
<g id="edge46" class="edge">
<title>aeonik.joystick&#45;fixer.core/get&#45;corresponding&#45;path&#45;&gt;clojure.java.io/file</title>
<path fill="none" stroke="black" d="M718.85,-755.7C766.47,-808.49 901.93,-958.65 901.93,-958.65 901.93,-958.65 926.81,-1021.22 941.98,-1059.39"/>
<polygon fill="black" stroke="black" points="938.65,-1060.48 945.6,-1068.48 945.16,-1057.9 938.65,-1060.48"/>
</g>
<!-- aeonik.joystick&#45;fixer.core/get&#45;corresponding&#45;path&#45;&gt;aeonik.joystick&#45;fixer.core/symlink&#45;&gt;target -->
<g id="edge47" class="edge">
<title>aeonik.joystick&#45;fixer.core/get&#45;corresponding&#45;path&#45;&gt;aeonik.joystick&#45;fixer.core/symlink&#45;&gt;target</title>
<path fill="none" stroke="black" d="M468.12,-745.01C457.62,-745.34 447.1,-745.67 436.64,-746"/>
<polygon fill="black" stroke="black" points="436.72,-742.5 426.84,-746.31 436.94,-749.49 436.72,-742.5"/>
</g>
<!-- aeonik.joystick&#45;fixer.core/temp&#45;file -->
<g id="node36" class="node">
<title>aeonik.joystick&#45;fixer.core/temp&#45;file</title>
<ellipse fill="none" stroke="black" cx="1812.13" cy="-1386.7" rx="182.21" ry="18"/>
<text text-anchor="middle" x="1812.13" y="-1382.03" font-family="Times,serif" font-size="14.00">aeonik.joystick&#45;fixer.core/temp&#45;file</text>
</g>
<!-- aeonik.joystick&#45;fixer.core/temp&#45;file&#45;&gt;aeonik.joystick&#45;fixer.core/process&#45;all&#45;joysticks -->
<g id="edge48" class="edge">
<title>aeonik.joystick&#45;fixer.core/temp&#45;file&#45;&gt;aeonik.joystick&#45;fixer.core/process&#45;all&#45;joysticks</title>
<path fill="none" stroke="black" d="M1752.49,-1404.12C1679.93,-1425.3 1557.51,-1461.05 1479.82,-1483.73"/>
<polygon fill="black" stroke="black" points="1479.24,-1480.26 1470.62,-1486.42 1481.2,-1486.98 1479.24,-1480.26"/>
</g>
</g>
</svg>
