<?xml version="1.0" encoding="UTF-8" standalone="no"?>
<!DOCTYPE svg PUBLIC "-//W3C//DTD SVG 1.1//EN"
 "http://www.w3.org/Graphics/SVG/1.1/DTD/svg11.dtd">
<!-- Generated by graphviz version 9.0.0 (0)
 -->
<!-- Pages: 1 -->
<svg width="5402pt" height="1585pt"
 viewBox="0.00 0.00 5401.82 1585.46" xmlns="http://www.w3.org/2000/svg" xmlns:xlink="http://www.w3.org/1999/xlink">
<g id="graph0" class="graph" transform="scale(1 1) rotate(0) translate(4 1581.46)">
<polygon fill="white" stroke="none" points="-4,4 -4,-1581.46 5397.82,-1581.46 5397.82,4 -4,4"/>
<!-- clojure.java.io/file -->
<g id="node1" class="node">
<title>clojure.java.io/file</title>
<ellipse fill="none" stroke="black" cx="1605" cy="-18" rx="99.61" ry="18"/>
<text text-anchor="middle" x="1605" y="-13.32" font-family="Times,serif" font-size="14.00">clojure.java.io/file</text>
</g>
<!-- aeonik.joystick&#45;fixer.core/correlate&#45;joystick&#45;name -->
<g id="node2" class="node">
<title>aeonik.joystick&#45;fixer.core/correlate&#45;joystick&#45;name</title>
<ellipse fill="none" stroke="black" cx="2287" cy="-774" rx="255.34" ry="18"/>
<text text-anchor="middle" x="2287" y="-769.33" font-family="Times,serif" font-size="14.00">aeonik.joystick&#45;fixer.core/correlate&#45;joystick&#45;name</text>
</g>
<!-- aeonik.joystick&#45;fixer.core/evdev&#45;regexp -->
<g id="node9" class="node">
<title>aeonik.joystick&#45;fixer.core/evdev&#45;regexp</title>
<ellipse fill="none" stroke="black" cx="3018" cy="-522" rx="205.36" ry="18"/>
<text text-anchor="middle" x="3018" y="-517.33" font-family="Times,serif" font-size="14.00">aeonik.joystick&#45;fixer.core/evdev&#45;regexp</text>
</g>
<!-- aeonik.joystick&#45;fixer.core/correlate&#45;joystick&#45;name&#45;&gt;aeonik.joystick&#45;fixer.core/evdev&#45;regexp -->
<g id="edge1" class="edge">
<title>aeonik.joystick&#45;fixer.core/correlate&#45;joystick&#45;name&#45;&gt;aeonik.joystick&#45;fixer.core/evdev&#45;regexp</title>
<path fill="none" stroke="black" d="M2336.96,-755.91C2467.33,-711.33 2817.5,-591.57 2958.23,-543.44"/>
<polygon fill="black" stroke="black" points="2959.04,-546.86 2967.36,-540.32 2956.77,-540.24 2959.04,-546.86"/>
</g>
<!-- aeonik.joystick&#45;fixer.core/regex&#45;search&#45;&gt;id&#45;symlinks -->
<g id="node28" class="node">
<title>aeonik.joystick&#45;fixer.core/regex&#45;search&#45;&gt;id&#45;symlinks</title>
<ellipse fill="none" stroke="black" cx="1442" cy="-522" rx="270.6" ry="18"/>
<text text-anchor="middle" x="1442" y="-517.33" font-family="Times,serif" font-size="14.00">aeonik.joystick&#45;fixer.core/regex&#45;search&#45;&gt;id&#45;symlinks</text>
</g>
<!-- aeonik.joystick&#45;fixer.core/correlate&#45;joystick&#45;name&#45;&gt;aeonik.joystick&#45;fixer.core/regex&#45;search&#45;&gt;id&#45;symlinks -->
<g id="edge2" class="edge">
<title>aeonik.joystick&#45;fixer.core/correlate&#45;joystick&#45;name&#45;&gt;aeonik.joystick&#45;fixer.core/regex&#45;search&#45;&gt;id&#45;symlinks</title>
<path fill="none" stroke="black" d="M2229.58,-756.01C2078.89,-711.43 1672.55,-591.21 1510.29,-543.2"/>
<polygon fill="black" stroke="black" points="1511.53,-539.92 1500.95,-540.44 1509.54,-546.63 1511.53,-539.92"/>
</g>
<!-- aeonik.joystick&#45;fixer.core/joydev&#45;regexp -->
<g id="node31" class="node">
<title>aeonik.joystick&#45;fixer.core/joydev&#45;regexp</title>
<ellipse fill="none" stroke="black" cx="1993" cy="-522" rx="208.51" ry="18"/>
<text text-anchor="middle" x="1993" y="-517.33" font-family="Times,serif" font-size="14.00">aeonik.joystick&#45;fixer.core/joydev&#45;regexp</text>
</g>
<!-- aeonik.joystick&#45;fixer.core/correlate&#45;joystick&#45;name&#45;&gt;aeonik.joystick&#45;fixer.core/joydev&#45;regexp -->
<g id="edge3" class="edge">
<title>aeonik.joystick&#45;fixer.core/correlate&#45;joystick&#45;name&#45;&gt;aeonik.joystick&#45;fixer.core/joydev&#45;regexp</title>
<path fill="none" stroke="black" d="M2266.79,-755.82C2215.71,-712.38 2081.24,-598.04 2021.88,-547.56"/>
<polygon fill="black" stroke="black" points="2024.39,-545.1 2014.5,-541.28 2019.85,-550.43 2024.39,-545.1"/>
</g>
<!-- aeonik.joystick&#45;fixer.core/by&#45;id&#45;&gt;by&#45;path -->
<g id="node3" class="node">
<title>aeonik.joystick&#45;fixer.core/by&#45;id&#45;&gt;by&#45;path</title>
<ellipse fill="none" stroke="black" cx="887" cy="-522" rx="212.2" ry="18"/>
<text text-anchor="middle" x="887" y="-517.33" font-family="Times,serif" font-size="14.00">aeonik.joystick&#45;fixer.core/by&#45;id&#45;&gt;by&#45;path</text>
</g>
<!-- aeonik.joystick&#45;fixer.core/by&#45;id&#45;&gt;by&#45;path&#45;&gt;clojure.java.io/file -->
<g id="edge4" class="edge">
<title>aeonik.joystick&#45;fixer.core/by&#45;id&#45;&gt;by&#45;path&#45;&gt;clojure.java.io/file</title>
<path fill="none" stroke="black" d="M907.18,-503.76C976.71,-444.39 1202,-252 1202,-252 1202,-252 1465.84,-99.46 1566.56,-41.23"/>
<polygon fill="black" stroke="black" points="1568.12,-44.36 1575.03,-36.33 1564.62,-38.3 1568.12,-44.36"/>
</g>
<!-- aeonik.joystick&#45;fixer.core/file&#45;&gt;symlink -->
<g id="node25" class="node">
<title>aeonik.joystick&#45;fixer.core/file&#45;&gt;symlink</title>
<ellipse fill="none" stroke="black" cx="1442" cy="-270" rx="203.78" ry="18"/>
<text text-anchor="middle" x="1442" y="-265.32" font-family="Times,serif" font-size="14.00">aeonik.joystick&#45;fixer.core/file&#45;&gt;symlink</text>
</g>
<!-- aeonik.joystick&#45;fixer.core/by&#45;id&#45;&gt;by&#45;path&#45;&gt;aeonik.joystick&#45;fixer.core/file&#45;&gt;symlink -->
<g id="edge5" class="edge">
<title>aeonik.joystick&#45;fixer.core/by&#45;id&#45;&gt;by&#45;path&#45;&gt;aeonik.joystick&#45;fixer.core/file&#45;&gt;symlink</title>
<path fill="none" stroke="black" d="M925.15,-503.82C1023.39,-459.56 1284.96,-341.74 1393.62,-292.79"/>
<polygon fill="black" stroke="black" points="1394.89,-296.06 1402.57,-288.76 1392.02,-289.68 1394.89,-296.06"/>
</g>
<!-- aeonik.joystick&#45;fixer.core/device&#45;paths -->
<g id="node29" class="node">
<title>aeonik.joystick&#45;fixer.core/device&#45;paths</title>
<ellipse fill="none" stroke="black" cx="237" cy="-270" rx="201.15" ry="18"/>
<text text-anchor="middle" x="237" y="-265.32" font-family="Times,serif" font-size="14.00">aeonik.joystick&#45;fixer.core/device&#45;paths</text>
</g>
<!-- aeonik.joystick&#45;fixer.core/by&#45;id&#45;&gt;by&#45;path&#45;&gt;aeonik.joystick&#45;fixer.core/device&#45;paths -->
<g id="edge6" class="edge">
<title>aeonik.joystick&#45;fixer.core/by&#45;id&#45;&gt;by&#45;path&#45;&gt;aeonik.joystick&#45;fixer.core/device&#45;paths</title>
<path fill="none" stroke="black" d="M842.58,-503.91C727.14,-459.51 417.9,-340.58 291.73,-292.05"/>
<polygon fill="black" stroke="black" points="293.18,-288.86 282.59,-288.54 290.67,-295.39 293.18,-288.86"/>
</g>
<!-- aeonik.joystick&#45;fixer.core/get&#45;corresponding&#45;path -->
<g id="node33" class="node">
<title>aeonik.joystick&#45;fixer.core/get&#45;corresponding&#45;path</title>
<ellipse fill="none" stroke="black" cx="765" cy="-270" rx="255.34" ry="18"/>
<text text-anchor="middle" x="765" y="-265.32" font-family="Times,serif" font-size="14.00">aeonik.joystick&#45;fixer.core/get&#45;corresponding&#45;path</text>
</g>
<!-- aeonik.joystick&#45;fixer.core/by&#45;id&#45;&gt;by&#45;path&#45;&gt;aeonik.joystick&#45;fixer.core/get&#45;corresponding&#45;path -->
<g id="edge7" class="edge">
<title>aeonik.joystick&#45;fixer.core/by&#45;id&#45;&gt;by&#45;path&#45;&gt;aeonik.joystick&#45;fixer.core/get&#45;corresponding&#45;path</title>
<path fill="none" stroke="black" d="M878.61,-503.82C857.81,-461.18 803.67,-350.24 778.38,-298.42"/>
<polygon fill="black" stroke="black" points="781.64,-297.12 774.11,-289.66 775.35,-300.19 781.64,-297.12"/>
</g>
<!-- aeonik.joystick&#45;fixer.core/search&#45;path -->
<g id="node4" class="node">
<title>aeonik.joystick&#45;fixer.core/search&#45;path</title>
<ellipse fill="none" stroke="black" cx="2061" cy="-270" rx="196.94" ry="18"/>
<text text-anchor="middle" x="2061" y="-265.32" font-family="Times,serif" font-size="14.00">aeonik.joystick&#45;fixer.core/search&#45;path</text>
</g>
<!-- aeonik.joystick&#45;fixer.core/search&#45;path&#45;&gt;clojure.java.io/file -->
<g id="edge8" class="edge">
<title>aeonik.joystick&#45;fixer.core/search&#45;path&#45;&gt;clojure.java.io/file</title>
<path fill="none" stroke="black" d="M2029.66,-251.82C1949.04,-207.62 1734.57,-90.04 1645.09,-40.98"/>
<polygon fill="black" stroke="black" points="1646.84,-37.95 1636.39,-36.21 1643.48,-44.09 1646.84,-37.95"/>
</g>
<!-- aeonik.joystick&#45;fixer.core/symlink&#45;target&#45;&gt;info -->
<g id="node5" class="node">
<title>aeonik.joystick&#45;fixer.core/symlink&#45;target&#45;&gt;info</title>
<ellipse fill="none" stroke="black" cx="887" cy="-1026" rx="241.66" ry="18"/>
<text text-anchor="middle" x="887" y="-1021.33" font-family="Times,serif" font-size="14.00">aeonik.joystick&#45;fixer.core/symlink&#45;target&#45;&gt;info</text>
</g>
<!-- aeonik.joystick&#45;fixer.core/evdev&#45;path&#45;regexp -->
<g id="node26" class="node">
<title>aeonik.joystick&#45;fixer.core/evdev&#45;path&#45;regexp</title>
<ellipse fill="none" stroke="black" cx="310" cy="-774" rx="231.14" ry="18"/>
<text text-anchor="middle" x="310" y="-769.33" font-family="Times,serif" font-size="14.00">aeonik.joystick&#45;fixer.core/evdev&#45;path&#45;regexp</text>
</g>
<!-- aeonik.joystick&#45;fixer.core/symlink&#45;target&#45;&gt;info&#45;&gt;aeonik.joystick&#45;fixer.core/evdev&#45;path&#45;regexp -->
<g id="edge9" class="edge">
<title>aeonik.joystick&#45;fixer.core/symlink&#45;target&#45;&gt;info&#45;&gt;aeonik.joystick&#45;fixer.core/evdev&#45;path&#45;regexp</title>
<path fill="none" stroke="black" d="M847.34,-1007.82C745.1,-963.52 472.72,-845.5 359.96,-796.65"/>
<polygon fill="black" stroke="black" points="361.51,-793.5 350.94,-792.74 358.73,-799.93 361.51,-793.5"/>
</g>
<!-- aeonik.joystick&#45;fixer.core/symlink&#45;target&#45;&gt;joydev&#45;info -->
<g id="node27" class="node">
<title>aeonik.joystick&#45;fixer.core/symlink&#45;target&#45;&gt;joydev&#45;info</title>
<ellipse fill="none" stroke="black" cx="1511" cy="-774" rx="277.44" ry="18"/>
<text text-anchor="middle" x="1511" y="-769.33" font-family="Times,serif" font-size="14.00">aeonik.joystick&#45;fixer.core/symlink&#45;target&#45;&gt;joydev&#45;info</text>
</g>
<!-- aeonik.joystick&#45;fixer.core/symlink&#45;target&#45;&gt;info&#45;&gt;aeonik.joystick&#45;fixer.core/symlink&#45;target&#45;&gt;joydev&#45;info -->
<g id="edge10" class="edge">
<title>aeonik.joystick&#45;fixer.core/symlink&#45;target&#45;&gt;info&#45;&gt;aeonik.joystick&#45;fixer.core/symlink&#45;target&#45;&gt;joydev&#45;info</title>
<path fill="none" stroke="black" d="M929.89,-1007.82C1040.68,-963.43 1336.21,-845.03 1457.71,-796.35"/>
<polygon fill="black" stroke="black" points="1458.84,-799.67 1466.82,-792.7 1456.23,-793.17 1458.84,-799.67"/>
</g>
<!-- aeonik.joystick&#45;fixer.core/symlink&#45;target&#45;&gt;evdev&#45;info -->
<g id="node32" class="node">
<title>aeonik.joystick&#45;fixer.core/symlink&#45;target&#45;&gt;evdev&#45;info</title>
<ellipse fill="none" stroke="black" cx="887" cy="-774" rx="274.28" ry="18"/>
<text text-anchor="middle" x="887" y="-769.33" font-family="Times,serif" font-size="14.00">aeonik.joystick&#45;fixer.core/symlink&#45;target&#45;&gt;evdev&#45;info</text>
</g>
<!-- aeonik.joystick&#45;fixer.core/symlink&#45;target&#45;&gt;info&#45;&gt;aeonik.joystick&#45;fixer.core/symlink&#45;target&#45;&gt;evdev&#45;info -->
<g id="edge11" class="edge">
<title>aeonik.joystick&#45;fixer.core/symlink&#45;target&#45;&gt;info&#45;&gt;aeonik.joystick&#45;fixer.core/symlink&#45;target&#45;&gt;evdev&#45;info</title>
<path fill="none" stroke="black" d="M887,-1007.82C887,-965.54 887,-856.09 887,-803.73"/>
<polygon fill="black" stroke="black" points="890.5,-803.82 887,-793.82 883.5,-803.82 890.5,-803.82"/>
</g>
<!-- aeonik.joystick&#45;fixer.core/&#45;main -->
<g id="node6" class="node">
<title>aeonik.joystick&#45;fixer.core/&#45;main</title>
<ellipse fill="none" stroke="black" cx="1933" cy="-1530" rx="165.9" ry="18"/>
<text text-anchor="middle" x="1933" y="-1525.33" font-family="Times,serif" font-size="14.00">aeonik.joystick&#45;fixer.core/&#45;main</text>
</g>
<!-- aeonik.joystick&#45;fixer.core/process&#45;all&#45;joysticks -->
<g id="node8" class="node">
<title>aeonik.joystick&#45;fixer.core/process&#45;all&#45;joysticks</title>
<ellipse fill="none" stroke="black" cx="1511" cy="-1278" rx="238.5" ry="18"/>
<text text-anchor="middle" x="1511" y="-1273.33" font-family="Times,serif" font-size="14.00">aeonik.joystick&#45;fixer.core/process&#45;all&#45;joysticks</text>
</g>
<!-- aeonik.joystick&#45;fixer.core/&#45;main&#45;&gt;aeonik.joystick&#45;fixer.core/process&#45;all&#45;joysticks -->
<g id="edge12" class="edge">
<title>aeonik.joystick&#45;fixer.core/&#45;main&#45;&gt;aeonik.joystick&#45;fixer.core/process&#45;all&#45;joysticks</title>
<path fill="none" stroke="black" d="M1903.99,-1511.82C1829.91,-1467.93 1633.69,-1351.68 1549.86,-1302.02"/>
<polygon fill="black" stroke="black" points="1551.9,-1299.16 1541.51,-1297.08 1548.33,-1305.18 1551.9,-1299.16"/>
</g>
<!-- clojure.pprint/pprint -->
<g id="node35" class="node">
<title>clojure.pprint/pprint</title>
<ellipse fill="none" stroke="black" cx="1935" cy="-1278" rx="113.82" ry="18"/>
<text text-anchor="middle" x="1935" y="-1273.33" font-family="Times,serif" font-size="14.00">clojure.pprint/pprint</text>
</g>
<!-- aeonik.joystick&#45;fixer.core/&#45;main&#45;&gt;clojure.pprint/pprint -->
<g id="edge13" class="edge">
<title>aeonik.joystick&#45;fixer.core/&#45;main&#45;&gt;clojure.pprint/pprint</title>
<path fill="none" stroke="black" d="M1933.14,-1511.82C1933.48,-1469.54 1934.35,-1360.09 1934.77,-1307.73"/>
<polygon fill="black" stroke="black" points="1938.27,-1307.84 1934.85,-1297.82 1931.27,-1307.79 1938.27,-1307.84"/>
</g>
<!-- aeonik.joystick&#45;fixer.core/filename&#45;&gt;joystick&#45;name -->
<g id="node7" class="node">
<title>aeonik.joystick&#45;fixer.core/filename&#45;&gt;joystick&#45;name</title>
<ellipse fill="none" stroke="black" cx="3702" cy="-522" rx="261.13" ry="18"/>
<text text-anchor="middle" x="3702" y="-517.33" font-family="Times,serif" font-size="14.00">aeonik.joystick&#45;fixer.core/filename&#45;&gt;joystick&#45;name</text>
</g>
<!-- aeonik.joystick&#45;fixer.core/extract&#45;name&#45;rexexp -->
<g id="node23" class="node">
<title>aeonik.joystick&#45;fixer.core/extract&#45;name&#45;rexexp</title>
<ellipse fill="none" stroke="black" cx="3702" cy="-270" rx="241.66" ry="18"/>
<text text-anchor="middle" x="3702" y="-265.32" font-family="Times,serif" font-size="14.00">aeonik.joystick&#45;fixer.core/extract&#45;name&#45;rexexp</text>
</g>
<!-- aeonik.joystick&#45;fixer.core/filename&#45;&gt;joystick&#45;name&#45;&gt;aeonik.joystick&#45;fixer.core/extract&#45;name&#45;rexexp -->
<g id="edge14" class="edge">
<title>aeonik.joystick&#45;fixer.core/filename&#45;&gt;joystick&#45;name&#45;&gt;aeonik.joystick&#45;fixer.core/extract&#45;name&#45;rexexp</title>
<path fill="none" stroke="black" d="M3702,-503.82C3702,-461.54 3702,-352.09 3702,-299.73"/>
<polygon fill="black" stroke="black" points="3705.5,-299.82 3702,-289.82 3698.5,-299.82 3705.5,-299.82"/>
</g>
<!-- aeonik.joystick&#45;fixer.core/process&#45;all&#45;joysticks&#45;&gt;aeonik.joystick&#45;fixer.core/correlate&#45;joystick&#45;name -->
<g id="edge15" class="edge">
<title>aeonik.joystick&#45;fixer.core/process&#45;all&#45;joysticks&#45;&gt;aeonik.joystick&#45;fixer.core/correlate&#45;joystick&#45;name</title>
<path fill="none" stroke="black" d="M1586.31,-1260.5C1840.65,-1204.77 2652,-1027 2652,-1027"/>
<path fill="none" stroke="black" d="M2652,-1025C2652,-1025 2412.89,-861.23 2321.73,-798.79"/>
<polygon fill="black" stroke="black" points="2323.85,-796 2313.63,-793.24 2319.9,-801.77 2323.85,-796"/>
</g>
<!-- aeonik.joystick&#45;fixer.core/get&#45;joystick&#45;info -->
<g id="node10" class="node">
<title>aeonik.joystick&#45;fixer.core/get&#45;joystick&#45;info</title>
<ellipse fill="none" stroke="black" cx="1511" cy="-1026" rx="217.98" ry="18"/>
<text text-anchor="middle" x="1511" y="-1021.33" font-family="Times,serif" font-size="14.00">aeonik.joystick&#45;fixer.core/get&#45;joystick&#45;info</text>
</g>
<!-- aeonik.joystick&#45;fixer.core/process&#45;all&#45;joysticks&#45;&gt;aeonik.joystick&#45;fixer.core/get&#45;joystick&#45;info -->
<g id="edge16" class="edge">
<title>aeonik.joystick&#45;fixer.core/process&#45;all&#45;joysticks&#45;&gt;aeonik.joystick&#45;fixer.core/get&#45;joystick&#45;info</title>
<path fill="none" stroke="black" d="M1511,-1259.82C1511,-1217.54 1511,-1108.09 1511,-1055.73"/>
<polygon fill="black" stroke="black" points="1514.5,-1055.82 1511,-1045.82 1507.5,-1055.82 1514.5,-1055.82"/>
</g>
<!-- aeonik.joystick&#45;fixer.core/get&#45;joystick&#45;names -->
<g id="node20" class="node">
<title>aeonik.joystick&#45;fixer.core/get&#45;joystick&#45;names</title>
<ellipse fill="none" stroke="black" cx="3018" cy="-774" rx="231.66" ry="18"/>
<text text-anchor="middle" x="3018" y="-769.33" font-family="Times,serif" font-size="14.00">aeonik.joystick&#45;fixer.core/get&#45;joystick&#45;names</text>
</g>
<!-- aeonik.joystick&#45;fixer.core/process&#45;all&#45;joysticks&#45;&gt;aeonik.joystick&#45;fixer.core/get&#45;joystick&#45;names -->
<g id="edge17" class="edge">
<title>aeonik.joystick&#45;fixer.core/process&#45;all&#45;joysticks&#45;&gt;aeonik.joystick&#45;fixer.core/get&#45;joystick&#45;names</title>
<path fill="none" stroke="black" d="M2652,-1025C2652,-1025 2891.76,-861.23 2983.17,-798.79"/>
<polygon fill="black" stroke="black" points="2985.02,-801.77 2991.3,-793.23 2981.07,-795.99 2985.02,-801.77"/>
</g>
<!-- aeonik.joystick&#45;fixer.core/process&#45;all&#45;joysticks&#45;&gt;aeonik.joystick&#45;fixer.core/device&#45;paths -->
<g id="edge18" class="edge">
<title>aeonik.joystick&#45;fixer.core/process&#45;all&#45;joysticks&#45;&gt;aeonik.joystick&#45;fixer.core/device&#45;paths</title>
<path fill="none" stroke="black" d="M1446.13,-1260.24C1239.31,-1206.82 609,-1044 609,-1044 609,-1044 43,-792 43,-792 43,-792 43,-756 43,-756 43,-756 143,-504 143,-504 143,-504 200.94,-360.38 225.84,-298.65"/>
<polygon fill="black" stroke="black" points="229.03,-300.12 229.52,-289.54 222.53,-297.5 229.03,-300.12"/>
</g>
<!-- aeonik.joystick&#45;fixer.core/join&#45;evdev+joydev&#45;info -->
<g id="node22" class="node">
<title>aeonik.joystick&#45;fixer.core/join&#45;evdev+joydev&#45;info</title>
<ellipse fill="none" stroke="black" cx="3702" cy="-774" rx="252.18" ry="18"/>
<text text-anchor="middle" x="3702" y="-769.33" font-family="Times,serif" font-size="14.00">aeonik.joystick&#45;fixer.core/join&#45;evdev+joydev&#45;info</text>
</g>
<!-- aeonik.joystick&#45;fixer.core/get&#45;joystick&#45;info&#45;&gt;aeonik.joystick&#45;fixer.core/join&#45;evdev+joydev&#45;info -->
<g id="edge19" class="edge">
<title>aeonik.joystick&#45;fixer.core/get&#45;joystick&#45;info&#45;&gt;aeonik.joystick&#45;fixer.core/join&#45;evdev+joydev&#45;info</title>
<path fill="none" stroke="black" d="M1635.47,-1010.8C2015.4,-967.45 3158.6,-837 3560.44,-791.15"/>
<polygon fill="black" stroke="black" points="3560.78,-794.64 3570.32,-790.02 3559.99,-787.68 3560.78,-794.64"/>
</g>
<!-- aeonik.joystick&#45;fixer.core/get&#45;joystick&#45;info&#45;&gt;aeonik.joystick&#45;fixer.core/symlink&#45;target&#45;&gt;joydev&#45;info -->
<g id="edge20" class="edge">
<title>aeonik.joystick&#45;fixer.core/get&#45;joystick&#45;info&#45;&gt;aeonik.joystick&#45;fixer.core/symlink&#45;target&#45;&gt;joydev&#45;info</title>
<path fill="none" stroke="black" d="M1511,-1007.82C1511,-965.54 1511,-856.09 1511,-803.73"/>
<polygon fill="black" stroke="black" points="1514.5,-803.82 1511,-793.82 1507.5,-803.82 1514.5,-803.82"/>
</g>
<!-- aeonik.joystick&#45;fixer.core/get&#45;joystick&#45;info&#45;&gt;aeonik.joystick&#45;fixer.core/symlink&#45;target&#45;&gt;evdev&#45;info -->
<g id="edge21" class="edge">
<title>aeonik.joystick&#45;fixer.core/get&#45;joystick&#45;info&#45;&gt;aeonik.joystick&#45;fixer.core/symlink&#45;target&#45;&gt;evdev&#45;info</title>
<path fill="none" stroke="black" d="M1468.6,-1008.01C1358.23,-963.79 1062.15,-845.17 940.41,-796.4"/>
<polygon fill="black" stroke="black" points="941.86,-793.21 931.28,-792.74 939.26,-799.71 941.86,-793.21"/>
</g>
<!-- aeonik.joystick&#45;fixer.core/deep&#45;merge -->
<g id="node11" class="node">
<title>aeonik.joystick&#45;fixer.core/deep&#45;merge</title>
<ellipse fill="none" stroke="black" cx="2368" cy="-1530" rx="197.47" ry="18"/>
<text text-anchor="middle" x="2368" y="-1525.33" font-family="Times,serif" font-size="14.00">aeonik.joystick&#45;fixer.core/deep&#45;merge</text>
</g>
<!-- aeonik.joystick&#45;fixer.core/deep&#45;merge&#45;&gt;aeonik.joystick&#45;fixer.core/deep&#45;merge -->
<g id="edge22" class="edge">
<title>aeonik.joystick&#45;fixer.core/deep&#45;merge&#45;&gt;aeonik.joystick&#45;fixer.core/deep&#45;merge</title>
<path fill="none" stroke="black" d="M2399.72,-1548.12C2494.34,-1592.27 2637.47,-1586.23 2637.47,-1530 2637.47,-1475.8 2504.5,-1468.23 2410.16,-1507.29"/>
<polygon fill="black" stroke="black" points="2408.85,-1504.04 2401.11,-1511.27 2411.67,-1510.45 2408.85,-1504.04"/>
</g>
<!-- aeonik.joystick&#45;fixer.core/by&#45;path&#45;&gt;by&#45;id -->
<g id="node12" class="node">
<title>aeonik.joystick&#45;fixer.core/by&#45;path&#45;&gt;by&#45;id</title>
<ellipse fill="none" stroke="black" cx="391" cy="-522" rx="212.2" ry="18"/>
<text text-anchor="middle" x="391" y="-517.33" font-family="Times,serif" font-size="14.00">aeonik.joystick&#45;fixer.core/by&#45;path&#45;&gt;by&#45;id</text>
</g>
<!-- aeonik.joystick&#45;fixer.core/by&#45;path&#45;&gt;by&#45;id&#45;&gt;clojure.java.io/file -->
<g id="edge23" class="edge">
<title>aeonik.joystick&#45;fixer.core/by&#45;path&#45;&gt;by&#45;id&#45;&gt;clojure.java.io/file</title>
<path fill="none" stroke="black" d="M361.93,-503.68C271.32,-449.68 0,-288 0,-288 0,-288 0,-252 0,-252 0,-252 1184.01,-80.11 1518.15,-31.61"/>
<polygon fill="black" stroke="black" points="1518.31,-35.12 1527.71,-30.22 1517.31,-28.19 1518.31,-35.12"/>
</g>
<!-- aeonik.joystick&#45;fixer.core/by&#45;path&#45;&gt;by&#45;id&#45;&gt;aeonik.joystick&#45;fixer.core/file&#45;&gt;symlink -->
<g id="edge24" class="edge">
<title>aeonik.joystick&#45;fixer.core/by&#45;path&#45;&gt;by&#45;id&#45;&gt;aeonik.joystick&#45;fixer.core/file&#45;&gt;symlink</title>
<path fill="none" stroke="black" d="M459.96,-504.6C646.97,-460.11 1163.06,-337.35 1362.18,-289.99"/>
<polygon fill="black" stroke="black" points="1362.74,-293.45 1371.66,-287.73 1361.12,-286.64 1362.74,-293.45"/>
</g>
<!-- aeonik.joystick&#45;fixer.core/by&#45;path&#45;&gt;by&#45;id&#45;&gt;aeonik.joystick&#45;fixer.core/device&#45;paths -->
<g id="edge25" class="edge">
<title>aeonik.joystick&#45;fixer.core/by&#45;path&#45;&gt;by&#45;id&#45;&gt;aeonik.joystick&#45;fixer.core/device&#45;paths</title>
<path fill="none" stroke="black" d="M380.41,-503.82C354.09,-461.09 285.53,-349.78 253.69,-298.09"/>
<polygon fill="black" stroke="black" points="256.68,-296.27 248.45,-289.59 250.72,-299.94 256.68,-296.27"/>
</g>
<!-- aeonik.joystick&#45;fixer.core/by&#45;path&#45;&gt;by&#45;id&#45;&gt;aeonik.joystick&#45;fixer.core/get&#45;corresponding&#45;path -->
<g id="edge26" class="edge">
<title>aeonik.joystick&#45;fixer.core/by&#45;path&#45;&gt;by&#45;id&#45;&gt;aeonik.joystick&#45;fixer.core/get&#45;corresponding&#45;path</title>
<path fill="none" stroke="black" d="M416.71,-503.82C482.09,-460.11 654.85,-344.63 729.65,-294.63"/>
<polygon fill="black" stroke="black" points="731.49,-297.61 737.86,-289.14 727.6,-291.79 731.49,-297.61"/>
</g>
<!-- aeonik.joystick&#45;fixer.core/symlink&#45;&gt;target -->
<g id="node13" class="node">
<title>aeonik.joystick&#45;fixer.core/symlink&#45;&gt;target</title>
<ellipse fill="none" stroke="black" cx="1064" cy="-18" rx="219.56" ry="18"/>
<text text-anchor="middle" x="1064" y="-13.32" font-family="Times,serif" font-size="14.00">aeonik.joystick&#45;fixer.core/symlink&#45;&gt;target</text>
</g>
<!-- aeonik.joystick&#45;fixer.core/example&#45;joystick&#45;names -->
<g id="node14" class="node">
<title>aeonik.joystick&#45;fixer.core/example&#45;joystick&#45;names</title>
<ellipse fill="none" stroke="black" cx="2913" cy="-1530" rx="257.44" ry="18"/>
<text text-anchor="middle" x="2913" y="-1525.33" font-family="Times,serif" font-size="14.00">aeonik.joystick&#45;fixer.core/example&#45;joystick&#45;names</text>
</g>
<!-- aeonik.joystick&#45;fixer.core/split&#45;usb&#45;pci -->
<g id="node15" class="node">
<title>aeonik.joystick&#45;fixer.core/split&#45;usb&#45;pci</title>
<ellipse fill="none" stroke="black" cx="4234" cy="-522" rx="199.04" ry="18"/>
<text text-anchor="middle" x="4234" y="-517.33" font-family="Times,serif" font-size="14.00">aeonik.joystick&#45;fixer.core/split&#45;usb&#45;pci</text>
</g>
<!-- aeonik.joystick&#45;fixer.core/simple&#45;replace -->
<g id="node16" class="node">
<title>aeonik.joystick&#45;fixer.core/simple&#45;replace</title>
<ellipse fill="none" stroke="black" cx="3454" cy="-1530" rx="211.15" ry="18"/>
<text text-anchor="middle" x="3454" y="-1525.33" font-family="Times,serif" font-size="14.00">aeonik.joystick&#45;fixer.core/simple&#45;replace</text>
</g>
<!-- clojure.string/replace -->
<g id="node34" class="node">
<title>clojure.string/replace</title>
<ellipse fill="none" stroke="black" cx="3454" cy="-1278" rx="118.55" ry="18"/>
<text text-anchor="middle" x="3454" y="-1273.33" font-family="Times,serif" font-size="14.00">clojure.string/replace</text>
</g>
<!-- aeonik.joystick&#45;fixer.core/simple&#45;replace&#45;&gt;clojure.string/replace -->
<g id="edge27" class="edge">
<title>aeonik.joystick&#45;fixer.core/simple&#45;replace&#45;&gt;clojure.string/replace</title>
<path fill="none" stroke="black" d="M3454,-1511.82C3454,-1469.54 3454,-1360.09 3454,-1307.73"/>
<polygon fill="black" stroke="black" points="3457.5,-1307.82 3454,-1297.82 3450.5,-1307.82 3457.5,-1307.82"/>
</g>
<!-- aeonik.joystick&#45;fixer.core/transform&#45;data -->
<g id="node17" class="node">
<title>aeonik.joystick&#45;fixer.core/transform&#45;data</title>
<ellipse fill="none" stroke="black" cx="3950" cy="-1530" rx="213.25" ry="18"/>
<text text-anchor="middle" x="3950" y="-1525.33" font-family="Times,serif" font-size="14.00">aeonik.joystick&#45;fixer.core/transform&#45;data</text>
</g>
<!-- aeonik.joystick&#45;fixer.core/data2 -->
<g id="node18" class="node">
<title>aeonik.joystick&#45;fixer.core/data2</title>
<ellipse fill="none" stroke="black" cx="4402" cy="-1530" rx="166.43" ry="18"/>
<text text-anchor="middle" x="4402" y="-1525.33" font-family="Times,serif" font-size="14.00">aeonik.joystick&#45;fixer.core/data2</text>
</g>
<!-- aeonik.joystick&#45;fixer.core/example&#45;joydev&#45;info -->
<g id="node19" class="node">
<title>aeonik.joystick&#45;fixer.core/example&#45;joydev&#45;info</title>
<ellipse fill="none" stroke="black" cx="4614" cy="-1278" rx="237.98" ry="18"/>
<text text-anchor="middle" x="4614" y="-1273.33" font-family="Times,serif" font-size="14.00">aeonik.joystick&#45;fixer.core/example&#45;joydev&#45;info</text>
</g>
<!-- aeonik.joystick&#45;fixer.core/get&#45;joystick&#45;names&#45;&gt;clojure.java.io/file -->
<g id="edge28" class="edge">
<title>aeonik.joystick&#45;fixer.core/get&#45;joystick&#45;names&#45;&gt;clojure.java.io/file</title>
<path fill="none" stroke="black" d="M3035.72,-755.87C3091.38,-702.06 3259,-540 3259,-540 3259,-540 3332,-271 3332,-271"/>
</g>
<!-- aeonik.joystick&#45;fixer.core/get&#45;joystick&#45;names&#45;&gt;aeonik.joystick&#45;fixer.core/filename&#45;&gt;joystick&#45;name -->
<g id="edge29" class="edge">
<title>aeonik.joystick&#45;fixer.core/get&#45;joystick&#45;names&#45;&gt;aeonik.joystick&#45;fixer.core/filename&#45;&gt;joystick&#45;name</title>
<path fill="none" stroke="black" d="M3064.74,-755.91C3186.2,-711.52 3511.51,-592.62 3644.32,-544.08"/>
<polygon fill="black" stroke="black" points="3645.45,-547.4 3653.64,-540.68 3643.04,-540.82 3645.45,-547.4"/>
</g>
<!-- aeonik.joystick&#45;fixer.core/get&#45;joystick&#45;names&#45;&gt;aeonik.joystick&#45;fixer.core/evdev&#45;regexp -->
<g id="edge30" class="edge">
<title>aeonik.joystick&#45;fixer.core/get&#45;joystick&#45;names&#45;&gt;aeonik.joystick&#45;fixer.core/evdev&#45;regexp</title>
<path fill="none" stroke="black" d="M3018,-755.82C3018,-713.54 3018,-604.09 3018,-551.73"/>
<polygon fill="black" stroke="black" points="3021.5,-551.82 3018,-541.82 3014.5,-551.82 3021.5,-551.82"/>
</g>
<!-- aeonik.joystick&#45;fixer.core/example&#45;joystick&#45;map -->
<g id="node21" class="node">
<title>aeonik.joystick&#45;fixer.core/example&#45;joystick&#45;map</title>
<ellipse fill="none" stroke="black" cx="4887" cy="-1530" rx="246.39" ry="18"/>
<text text-anchor="middle" x="4887" y="-1525.33" font-family="Times,serif" font-size="14.00">aeonik.joystick&#45;fixer.core/example&#45;joystick&#45;map</text>
</g>
<!-- aeonik.joystick&#45;fixer.core/example&#45;joystick&#45;map&#45;&gt;aeonik.joystick&#45;fixer.core/example&#45;joydev&#45;info -->
<g id="edge31" class="edge">
<title>aeonik.joystick&#45;fixer.core/example&#45;joystick&#45;map&#45;&gt;aeonik.joystick&#45;fixer.core/example&#45;joydev&#45;info</title>
<path fill="none" stroke="black" d="M4868.24,-1511.82C4820.9,-1468.46 4696.45,-1354.51 4641.15,-1303.87"/>
<polygon fill="black" stroke="black" points="4643.75,-1301.5 4634.01,-1297.33 4639.02,-1306.66 4643.75,-1301.5"/>
</g>
<!-- aeonik.joystick&#45;fixer.core/example&#45;evdev&#45;info -->
<g id="node30" class="node">
<title>aeonik.joystick&#45;fixer.core/example&#45;evdev&#45;info</title>
<ellipse fill="none" stroke="black" cx="5159" cy="-1278" rx="234.82" ry="18"/>
<text text-anchor="middle" x="5159" y="-1273.33" font-family="Times,serif" font-size="14.00">aeonik.joystick&#45;fixer.core/example&#45;evdev&#45;info</text>
</g>
<!-- aeonik.joystick&#45;fixer.core/example&#45;joystick&#45;map&#45;&gt;aeonik.joystick&#45;fixer.core/example&#45;evdev&#45;info -->
<g id="edge32" class="edge">
<title>aeonik.joystick&#45;fixer.core/example&#45;joystick&#45;map&#45;&gt;aeonik.joystick&#45;fixer.core/example&#45;evdev&#45;info</title>
<path fill="none" stroke="black" d="M4905.7,-1511.82C4952.86,-1468.46 5076.85,-1354.51 5131.94,-1303.87"/>
<polygon fill="black" stroke="black" points="5134.07,-1306.67 5139.06,-1297.33 5129.33,-1301.52 5134.07,-1306.67"/>
</g>
<!-- aeonik.joystick&#45;fixer.core/join&#45;evdev+joydev&#45;info&#45;&gt;aeonik.joystick&#45;fixer.core/filename&#45;&gt;joystick&#45;name -->
<g id="edge33" class="edge">
<title>aeonik.joystick&#45;fixer.core/join&#45;evdev+joydev&#45;info&#45;&gt;aeonik.joystick&#45;fixer.core/filename&#45;&gt;joystick&#45;name</title>
<path fill="none" stroke="black" d="M3702,-755.82C3702,-713.54 3702,-604.09 3702,-551.73"/>
<polygon fill="black" stroke="black" points="3705.5,-551.82 3702,-541.82 3698.5,-551.82 3705.5,-551.82"/>
</g>
<!-- aeonik.joystick&#45;fixer.core/join&#45;evdev+joydev&#45;info&#45;&gt;aeonik.joystick&#45;fixer.core/split&#45;usb&#45;pci -->
<g id="edge34" class="edge">
<title>aeonik.joystick&#45;fixer.core/join&#45;evdev+joydev&#45;info&#45;&gt;aeonik.joystick&#45;fixer.core/split&#45;usb&#45;pci</title>
<path fill="none" stroke="black" d="M3738.57,-755.82C3832.64,-711.61 4082.96,-593.98 4187.31,-544.94"/>
<polygon fill="black" stroke="black" points="4188.6,-548.2 4196.16,-540.78 4185.62,-541.87 4188.6,-548.2"/>
</g>
<!-- aeonik.joystick&#45;fixer.core/lookup&#45;all&#45;symlinks -->
<g id="node24" class="node">
<title>aeonik.joystick&#45;fixer.core/lookup&#45;all&#45;symlinks</title>
<ellipse fill="none" stroke="black" cx="2507" cy="-522" rx="233.77" ry="18"/>
<text text-anchor="middle" x="2507" y="-517.33" font-family="Times,serif" font-size="14.00">aeonik.joystick&#45;fixer.core/lookup&#45;all&#45;symlinks</text>
</g>
<!-- aeonik.joystick&#45;fixer.core/lookup&#45;all&#45;symlinks&#45;&gt;clojure.java.io/file -->
<g id="edge35" class="edge">
<title>aeonik.joystick&#45;fixer.core/lookup&#45;all&#45;symlinks&#45;&gt;clojure.java.io/file</title>
<path fill="none" stroke="black" d="M2562.73,-504.11C2748.06,-447.95 3332,-271 3332,-271"/>
<path fill="none" stroke="black" d="M3332,-269C3332,-269 2042.99,-82.4 1692.21,-31.63"/>
<polygon fill="black" stroke="black" points="1692.77,-28.17 1682.37,-30.2 1691.77,-35.1 1692.77,-28.17"/>
</g>
<!-- aeonik.joystick&#45;fixer.core/lookup&#45;all&#45;symlinks&#45;&gt;aeonik.joystick&#45;fixer.core/file&#45;&gt;symlink -->
<g id="edge36" class="edge">
<title>aeonik.joystick&#45;fixer.core/lookup&#45;all&#45;symlinks&#45;&gt;aeonik.joystick&#45;fixer.core/file&#45;&gt;symlink</title>
<path fill="none" stroke="black" d="M2436.3,-504.4C2246.05,-459.74 1724.07,-337.21 1522.71,-289.95"/>
<polygon fill="black" stroke="black" points="1523.64,-286.57 1513.11,-287.69 1522.04,-293.39 1523.64,-286.57"/>
</g>
<!-- aeonik.joystick&#45;fixer.core/file&#45;&gt;symlink&#45;&gt;aeonik.joystick&#45;fixer.core/symlink&#45;&gt;target -->
<g id="edge37" class="edge">
<title>aeonik.joystick&#45;fixer.core/file&#45;&gt;symlink&#45;&gt;aeonik.joystick&#45;fixer.core/symlink&#45;&gt;target</title>
<path fill="none" stroke="black" d="M1416.02,-251.82C1349.93,-208.11 1175.32,-92.63 1099.73,-42.63"/>
<polygon fill="black" stroke="black" points="1101.7,-39.74 1091.43,-37.14 1097.84,-45.57 1101.7,-39.74"/>
</g>
<!-- aeonik.joystick&#45;fixer.core/symlink&#45;target&#45;&gt;joydev&#45;info&#45;&gt;aeonik.joystick&#45;fixer.core/by&#45;id&#45;&gt;by&#45;path -->
<g id="edge38" class="edge">
<title>aeonik.joystick&#45;fixer.core/symlink&#45;target&#45;&gt;joydev&#45;info&#45;&gt;aeonik.joystick&#45;fixer.core/by&#45;id&#45;&gt;by&#45;path</title>
<path fill="none" stroke="black" d="M1468.11,-755.82C1357.19,-711.38 1061.07,-592.74 939.85,-544.18"/>
<polygon fill="black" stroke="black" points="941.35,-541.01 930.77,-540.54 938.75,-547.5 941.35,-541.01"/>
</g>
<!-- aeonik.joystick&#45;fixer.core/symlink&#45;target&#45;&gt;joydev&#45;info&#45;&gt;aeonik.joystick&#45;fixer.core/by&#45;path&#45;&gt;by&#45;id -->
<g id="edge39" class="edge">
<title>aeonik.joystick&#45;fixer.core/symlink&#45;target&#45;&gt;joydev&#45;info&#45;&gt;aeonik.joystick&#45;fixer.core/by&#45;path&#45;&gt;by&#45;id</title>
<path fill="none" stroke="black" d="M1435.77,-756.21C1234.73,-711.33 685.92,-588.83 475.06,-541.76"/>
<polygon fill="black" stroke="black" points="476.07,-538.4 465.55,-539.64 474.55,-545.23 476.07,-538.4"/>
</g>
<!-- aeonik.joystick&#45;fixer.core/regex&#45;search&#45;&gt;id&#45;symlinks&#45;&gt;clojure.java.io/file -->
<g id="edge40" class="edge">
<title>aeonik.joystick&#45;fixer.core/regex&#45;search&#45;&gt;id&#45;symlinks&#45;&gt;clojure.java.io/file</title>
<path fill="none" stroke="black" d="M1459.65,-503.87C1515.07,-450.06 1682,-288 1682,-288 1682,-288 1682,-252 1682,-252 1682,-252 1634.73,-108.97 1614.27,-47.04"/>
<polygon fill="black" stroke="black" points="1617.6,-45.97 1611.14,-37.57 1610.95,-48.16 1617.6,-45.97"/>
</g>
<!-- aeonik.joystick&#45;fixer.core/regex&#45;search&#45;&gt;id&#45;symlinks&#45;&gt;aeonik.joystick&#45;fixer.core/search&#45;path -->
<g id="edge41" class="edge">
<title>aeonik.joystick&#45;fixer.core/regex&#45;search&#45;&gt;id&#45;symlinks&#45;&gt;aeonik.joystick&#45;fixer.core/search&#45;path</title>
<path fill="none" stroke="black" d="M1484.55,-503.82C1594.58,-459.38 1888.32,-340.74 2008.57,-292.18"/>
<polygon fill="black" stroke="black" points="2009.61,-295.53 2017.57,-288.54 2006.99,-289.04 2009.61,-295.53"/>
</g>
<!-- aeonik.joystick&#45;fixer.core/regex&#45;search&#45;&gt;id&#45;symlinks&#45;&gt;aeonik.joystick&#45;fixer.core/file&#45;&gt;symlink -->
<g id="edge42" class="edge">
<title>aeonik.joystick&#45;fixer.core/regex&#45;search&#45;&gt;id&#45;symlinks&#45;&gt;aeonik.joystick&#45;fixer.core/file&#45;&gt;symlink</title>
<path fill="none" stroke="black" d="M1442,-503.82C1442,-461.54 1442,-352.09 1442,-299.73"/>
<polygon fill="black" stroke="black" points="1445.5,-299.82 1442,-289.82 1438.5,-299.82 1445.5,-299.82"/>
</g>
<!-- aeonik.joystick&#45;fixer.core/regex&#45;search&#45;&gt;id&#45;symlinks&#45;&gt;aeonik.joystick&#45;fixer.core/device&#45;paths -->
<g id="edge43" class="edge">
<title>aeonik.joystick&#45;fixer.core/regex&#45;search&#45;&gt;id&#45;symlinks&#45;&gt;aeonik.joystick&#45;fixer.core/device&#45;paths</title>
<path fill="none" stroke="black" d="M1362,-504.4C1145.8,-459.55 550.95,-336.13 325.34,-289.33"/>
<polygon fill="black" stroke="black" points="326.21,-285.93 315.71,-287.33 324.79,-292.79 326.21,-285.93"/>
</g>
<!-- aeonik.joystick&#45;fixer.core/symlink&#45;target&#45;&gt;evdev&#45;info&#45;&gt;aeonik.joystick&#45;fixer.core/by&#45;id&#45;&gt;by&#45;path -->
<g id="edge44" class="edge">
<title>aeonik.joystick&#45;fixer.core/symlink&#45;target&#45;&gt;evdev&#45;info&#45;&gt;aeonik.joystick&#45;fixer.core/by&#45;id&#45;&gt;by&#45;path</title>
<path fill="none" stroke="black" d="M887,-755.82C887,-713.54 887,-604.09 887,-551.73"/>
<polygon fill="black" stroke="black" points="890.5,-551.82 887,-541.82 883.5,-551.82 890.5,-551.82"/>
</g>
<!-- aeonik.joystick&#45;fixer.core/symlink&#45;target&#45;&gt;evdev&#45;info&#45;&gt;aeonik.joystick&#45;fixer.core/by&#45;path&#45;&gt;by&#45;id -->
<g id="edge45" class="edge">
<title>aeonik.joystick&#45;fixer.core/symlink&#45;target&#45;&gt;evdev&#45;info&#45;&gt;aeonik.joystick&#45;fixer.core/by&#45;path&#45;&gt;by&#45;id</title>
<path fill="none" stroke="black" d="M852.91,-755.82C765.38,-711.7 532.76,-594.45 435.12,-545.24"/>
<polygon fill="black" stroke="black" points="436.86,-542.19 426.35,-540.82 433.71,-548.45 436.86,-542.19"/>
</g>
<!-- aeonik.joystick&#45;fixer.core/get&#45;corresponding&#45;path&#45;&gt;clojure.java.io/file -->
<g id="edge46" class="edge">
<title>aeonik.joystick&#45;fixer.core/get&#45;corresponding&#45;path&#45;&gt;clojure.java.io/file</title>
<path fill="none" stroke="black" d="M822.08,-252.01C974.07,-206.78 1387.7,-83.67 1544.05,-37.14"/>
<polygon fill="black" stroke="black" points="1544.82,-40.56 1553.4,-34.36 1542.82,-33.85 1544.82,-40.56"/>
</g>
<!-- aeonik.joystick&#45;fixer.core/get&#45;corresponding&#45;path&#45;&gt;aeonik.joystick&#45;fixer.core/symlink&#45;&gt;target -->
<g id="edge47" class="edge">
<title>aeonik.joystick&#45;fixer.core/get&#45;corresponding&#45;path&#45;&gt;aeonik.joystick&#45;fixer.core/symlink&#45;&gt;target</title>
<path fill="none" stroke="black" d="M785.55,-251.82C837.51,-208.38 974.25,-94.04 1034.63,-43.56"/>
<polygon fill="black" stroke="black" points="1036.72,-46.37 1042.14,-37.27 1032.23,-41 1036.72,-46.37"/>
</g>
<!-- aeonik.joystick&#45;fixer.core/temp&#45;file -->
<g id="node36" class="node">
<title>aeonik.joystick&#45;fixer.core/temp&#45;file</title>
<ellipse fill="none" stroke="black" cx="1511" cy="-1530" rx="182.21" ry="18"/>
<text text-anchor="middle" x="1511" y="-1525.33" font-family="Times,serif" font-size="14.00">aeonik.joystick&#45;fixer.core/temp&#45;file</text>
</g>
<!-- aeonik.joystick&#45;fixer.core/temp&#45;file&#45;&gt;aeonik.joystick&#45;fixer.core/process&#45;all&#45;joysticks -->
<g id="edge48" class="edge">
<title>aeonik.joystick&#45;fixer.core/temp&#45;file&#45;&gt;aeonik.joystick&#45;fixer.core/process&#45;all&#45;joysticks</title>
<path fill="none" stroke="black" d="M1511,-1511.82C1511,-1469.54 1511,-1360.09 1511,-1307.73"/>
<polygon fill="black" stroke="black" points="1514.5,-1307.82 1511,-1297.82 1507.5,-1307.82 1514.5,-1307.82"/>
</g>
</g>
</svg>
