<?xml version="1.0" encoding="UTF-8" standalone="no"?>
<!DOCTYPE svg PUBLIC "-//W3C//DTD SVG 1.1//EN"
 "http://www.w3.org/Graphics/SVG/1.1/DTD/svg11.dtd">
<!-- Generated by graphviz version 9.0.0 (0)
 -->
<!-- Pages: 1 -->
<svg width="2821pt" height="2608pt"
 viewBox="0.00 0.00 2821.01 2607.95" xmlns="http://www.w3.org/2000/svg" xmlns:xlink="http://www.w3.org/1999/xlink">
<g id="graph0" class="graph" transform="scale(1 1) rotate(0) translate(4 2603.95)">
<polygon fill="white" stroke="none" points="-4,4 -4,-2603.95 2817.01,-2603.95 2817.01,4 -4,4"/>
<!-- clojure.java.io/file -->
<g id="node1" class="node">
<title>clojure.java.io/file</title>
<ellipse fill="none" stroke="black" cx="979.95" cy="-1055.38" rx="99.61" ry="18"/>
<text text-anchor="middle" x="979.95" y="-1050.7" font-family="Times,serif" font-size="14.00">clojure.java.io/file</text>
</g>
<!-- aeonik.joystick&#45;fixer.core/correlate&#45;joystick&#45;name -->
<g id="node2" class="node">
<title>aeonik.joystick&#45;fixer.core/correlate&#45;joystick&#45;name</title>
<ellipse fill="none" stroke="black" cx="1216.47" cy="-473.41" rx="255.34" ry="18"/>
<text text-anchor="middle" x="1216.47" y="-468.73" font-family="Times,serif" font-size="14.00">aeonik.joystick&#45;fixer.core/correlate&#45;joystick&#45;name</text>
</g>
<!-- aeonik.joystick&#45;fixer.core/evdev&#45;regexp -->
<g id="node9" class="node">
<title>aeonik.joystick&#45;fixer.core/evdev&#45;regexp</title>
<ellipse fill="none" stroke="black" cx="1491.86" cy="-312.39" rx="205.36" ry="18"/>
<text text-anchor="middle" x="1491.86" y="-307.72" font-family="Times,serif" font-size="14.00">aeonik.joystick&#45;fixer.core/evdev&#45;regexp</text>
</g>
<!-- aeonik.joystick&#45;fixer.core/correlate&#45;joystick&#45;name&#45;&gt;aeonik.joystick&#45;fixer.core/evdev&#45;regexp -->
<g id="edge1" class="edge">
<title>aeonik.joystick&#45;fixer.core/correlate&#45;joystick&#45;name&#45;&gt;aeonik.joystick&#45;fixer.core/evdev&#45;regexp</title>
<path fill="none" stroke="black" d="M1247.79,-455.09C1297.82,-425.84 1395.77,-368.57 1451.16,-336.19"/>
<polygon fill="black" stroke="black" points="1452.81,-339.27 1459.68,-331.21 1449.28,-333.23 1452.81,-339.27"/>
</g>
<!-- aeonik.joystick&#45;fixer.core/regex&#45;search&#45;&gt;id&#45;symlinks -->
<g id="node28" class="node">
<title>aeonik.joystick&#45;fixer.core/regex&#45;search&#45;&gt;id&#45;symlinks</title>
<ellipse fill="none" stroke="black" cx="908.04" cy="-757.56" rx="270.6" ry="18"/>
<text text-anchor="middle" x="908.04" y="-752.88" font-family="Times,serif" font-size="14.00">aeonik.joystick&#45;fixer.core/regex&#45;search&#45;&gt;id&#45;symlinks</text>
</g>
<!-- aeonik.joystick&#45;fixer.core/correlate&#45;joystick&#45;name&#45;&gt;aeonik.joystick&#45;fixer.core/regex&#45;search&#45;&gt;id&#45;symlinks -->
<g id="edge2" class="edge">
<title>aeonik.joystick&#45;fixer.core/correlate&#45;joystick&#45;name&#45;&gt;aeonik.joystick&#45;fixer.core/regex&#45;search&#45;&gt;id&#45;symlinks</title>
<path fill="none" stroke="black" d="M1196.7,-491.62C1143.62,-540.52 997.82,-674.85 936.16,-731.65"/>
<polygon fill="black" stroke="black" points="934.13,-728.76 929.15,-738.11 938.87,-733.91 934.13,-728.76"/>
</g>
<!-- aeonik.joystick&#45;fixer.core/joydev&#45;regexp -->
<g id="node31" class="node">
<title>aeonik.joystick&#45;fixer.core/joydev&#45;regexp</title>
<ellipse fill="none" stroke="black" cx="1073" cy="-18" rx="208.51" ry="18"/>
<text text-anchor="middle" x="1073" y="-13.32" font-family="Times,serif" font-size="14.00">aeonik.joystick&#45;fixer.core/joydev&#45;regexp</text>
</g>
<!-- aeonik.joystick&#45;fixer.core/correlate&#45;joystick&#45;name&#45;&gt;aeonik.joystick&#45;fixer.core/joydev&#45;regexp -->
<g id="edge3" class="edge">
<title>aeonik.joystick&#45;fixer.core/correlate&#45;joystick&#45;name&#45;&gt;aeonik.joystick&#45;fixer.core/joydev&#45;regexp</title>
<path fill="none" stroke="black" d="M1210.67,-454.99C1188.51,-384.67 1109.15,-132.75 1082.1,-46.9"/>
<polygon fill="black" stroke="black" points="1085.51,-46.08 1079.17,-37.59 1078.84,-48.18 1085.51,-46.08"/>
</g>
<!-- aeonik.joystick&#45;fixer.core/by&#45;id&#45;&gt;by&#45;path -->
<g id="node3" class="node">
<title>aeonik.joystick&#45;fixer.core/by&#45;id&#45;&gt;by&#45;path</title>
<ellipse fill="none" stroke="black" cx="1219.14" cy="-1400.1" rx="212.2" ry="18"/>
<text text-anchor="middle" x="1219.14" y="-1395.43" font-family="Times,serif" font-size="14.00">aeonik.joystick&#45;fixer.core/by&#45;id&#45;&gt;by&#45;path</text>
</g>
<!-- aeonik.joystick&#45;fixer.core/by&#45;id&#45;&gt;by&#45;path&#45;&gt;clojure.java.io/file -->
<g id="edge4" class="edge">
<title>aeonik.joystick&#45;fixer.core/by&#45;id&#45;&gt;by&#45;path&#45;&gt;clojure.java.io/file</title>
<path fill="none" stroke="black" d="M1206.61,-1382.06C1167.31,-1325.41 1046.22,-1150.89 999.05,-1082.9"/>
<polygon fill="black" stroke="black" points="1002.08,-1081.13 993.5,-1074.91 996.33,-1085.12 1002.08,-1081.13"/>
</g>
<!-- aeonik.joystick&#45;fixer.core/file&#45;&gt;symlink -->
<g id="node25" class="node">
<title>aeonik.joystick&#45;fixer.core/file&#45;&gt;symlink</title>
<ellipse fill="none" stroke="black" cx="682.9" cy="-1239.52" rx="203.78" ry="18"/>
<text text-anchor="middle" x="682.9" y="-1234.84" font-family="Times,serif" font-size="14.00">aeonik.joystick&#45;fixer.core/file&#45;&gt;symlink</text>
</g>
<!-- aeonik.joystick&#45;fixer.core/by&#45;id&#45;&gt;by&#45;path&#45;&gt;aeonik.joystick&#45;fixer.core/file&#45;&gt;symlink -->
<g id="edge5" class="edge">
<title>aeonik.joystick&#45;fixer.core/by&#45;id&#45;&gt;by&#45;path&#45;&gt;aeonik.joystick&#45;fixer.core/file&#45;&gt;symlink</title>
<path fill="none" stroke="black" d="M1159.96,-1382.38C1060.26,-1352.52 859.28,-1292.34 752.79,-1260.45"/>
<polygon fill="black" stroke="black" points="753.89,-1257.12 743.3,-1257.61 751.88,-1263.83 753.89,-1257.12"/>
</g>
<!-- aeonik.joystick&#45;fixer.core/device&#45;paths -->
<g id="node29" class="node">
<title>aeonik.joystick&#45;fixer.core/device&#45;paths</title>
<ellipse fill="none" stroke="black" cx="1288.94" cy="-1058.58" rx="201.15" ry="18"/>
<text text-anchor="middle" x="1288.94" y="-1053.91" font-family="Times,serif" font-size="14.00">aeonik.joystick&#45;fixer.core/device&#45;paths</text>
</g>
<!-- aeonik.joystick&#45;fixer.core/by&#45;id&#45;&gt;by&#45;path&#45;&gt;aeonik.joystick&#45;fixer.core/device&#45;paths -->
<g id="edge6" class="edge">
<title>aeonik.joystick&#45;fixer.core/by&#45;id&#45;&gt;by&#45;path&#45;&gt;aeonik.joystick&#45;fixer.core/device&#45;paths</title>
<path fill="none" stroke="black" d="M1222.89,-1381.74C1234.32,-1325.8 1268.8,-1157.13 1282.86,-1088.31"/>
<polygon fill="black" stroke="black" points="1286.29,-1089.02 1284.86,-1078.52 1279.43,-1087.61 1286.29,-1089.02"/>
</g>
<!-- aeonik.joystick&#45;fixer.core/get&#45;corresponding&#45;path -->
<g id="node33" class="node">
<title>aeonik.joystick&#45;fixer.core/get&#45;corresponding&#45;path</title>
<ellipse fill="none" stroke="black" cx="704.34" cy="-1500.3" rx="255.34" ry="18"/>
<text text-anchor="middle" x="704.34" y="-1495.63" font-family="Times,serif" font-size="14.00">aeonik.joystick&#45;fixer.core/get&#45;corresponding&#45;path</text>
</g>
<!-- aeonik.joystick&#45;fixer.core/by&#45;id&#45;&gt;by&#45;path&#45;&gt;aeonik.joystick&#45;fixer.core/get&#45;corresponding&#45;path -->
<g id="edge7" class="edge">
<title>aeonik.joystick&#45;fixer.core/by&#45;id&#45;&gt;by&#45;path&#45;&gt;aeonik.joystick&#45;fixer.core/get&#45;corresponding&#45;path</title>
<path fill="none" stroke="black" d="M1132.39,-1416.99C1041.71,-1434.64 899.59,-1462.3 804.27,-1480.85"/>
<polygon fill="black" stroke="black" points="803.8,-1477.38 794.66,-1482.72 805.14,-1484.25 803.8,-1477.38"/>
</g>
<!-- aeonik.joystick&#45;fixer.core/search&#45;path -->
<g id="node4" class="node">
<title>aeonik.joystick&#45;fixer.core/search&#45;path</title>
<ellipse fill="none" stroke="black" cx="633.06" cy="-680.65" rx="196.94" ry="18"/>
<text text-anchor="middle" x="633.06" y="-675.98" font-family="Times,serif" font-size="14.00">aeonik.joystick&#45;fixer.core/search&#45;path</text>
</g>
<!-- aeonik.joystick&#45;fixer.core/search&#45;path&#45;&gt;clojure.java.io/file -->
<g id="edge8" class="edge">
<title>aeonik.joystick&#45;fixer.core/search&#45;path&#45;&gt;clojure.java.io/file</title>
<path fill="none" stroke="black" d="M650.03,-698.98C706.76,-760.26 889.97,-958.17 955.97,-1029.47"/>
<polygon fill="black" stroke="black" points="953.04,-1031.45 962.4,-1036.41 958.17,-1026.7 953.04,-1031.45"/>
</g>
<!-- aeonik.joystick&#45;fixer.core/symlink&#45;target&#45;&gt;info -->
<g id="node5" class="node">
<title>aeonik.joystick&#45;fixer.core/symlink&#45;target&#45;&gt;info</title>
<ellipse fill="none" stroke="black" cx="1444.27" cy="-2154.1" rx="241.66" ry="18"/>
<text text-anchor="middle" x="1444.27" y="-2149.43" font-family="Times,serif" font-size="14.00">aeonik.joystick&#45;fixer.core/symlink&#45;target&#45;&gt;info</text>
</g>
<!-- aeonik.joystick&#45;fixer.core/evdev&#45;path&#45;regexp -->
<g id="node26" class="node">
<title>aeonik.joystick&#45;fixer.core/evdev&#45;path&#45;regexp</title>
<ellipse fill="none" stroke="black" cx="1426.61" cy="-2581.95" rx="231.14" ry="18"/>
<text text-anchor="middle" x="1426.61" y="-2577.27" font-family="Times,serif" font-size="14.00">aeonik.joystick&#45;fixer.core/evdev&#45;path&#45;regexp</text>
</g>
<!-- aeonik.joystick&#45;fixer.core/symlink&#45;target&#45;&gt;info&#45;&gt;aeonik.joystick&#45;fixer.core/evdev&#45;path&#45;regexp -->
<g id="edge9" class="edge">
<title>aeonik.joystick&#45;fixer.core/symlink&#45;target&#45;&gt;info&#45;&gt;aeonik.joystick&#45;fixer.core/evdev&#45;path&#45;regexp</title>
<path fill="none" stroke="black" d="M1443.52,-2172.49C1440.75,-2239.34 1431.23,-2469.94 1427.83,-2552.37"/>
<polygon fill="black" stroke="black" points="1424.34,-2551.99 1427.43,-2562.12 1431.34,-2552.27 1424.34,-2551.99"/>
</g>
<!-- aeonik.joystick&#45;fixer.core/symlink&#45;target&#45;&gt;joydev&#45;info -->
<g id="node27" class="node">
<title>aeonik.joystick&#45;fixer.core/symlink&#45;target&#45;&gt;joydev&#45;info</title>
<ellipse fill="none" stroke="black" cx="1387.52" cy="-1739.17" rx="277.44" ry="18"/>
<text text-anchor="middle" x="1387.52" y="-1734.49" font-family="Times,serif" font-size="14.00">aeonik.joystick&#45;fixer.core/symlink&#45;target&#45;&gt;joydev&#45;info</text>
</g>
<!-- aeonik.joystick&#45;fixer.core/symlink&#45;target&#45;&gt;info&#45;&gt;aeonik.joystick&#45;fixer.core/symlink&#45;target&#45;&gt;joydev&#45;info -->
<g id="edge10" class="edge">
<title>aeonik.joystick&#45;fixer.core/symlink&#45;target&#45;&gt;info&#45;&gt;aeonik.joystick&#45;fixer.core/symlink&#45;target&#45;&gt;joydev&#45;info</title>
<path fill="none" stroke="black" d="M1441.76,-2135.74C1432.83,-2070.4 1402.52,-1848.82 1391.54,-1768.53"/>
<polygon fill="black" stroke="black" points="1395.03,-1768.25 1390.21,-1758.82 1388.1,-1769.2 1395.03,-1768.25"/>
</g>
<!-- aeonik.joystick&#45;fixer.core/symlink&#45;target&#45;&gt;evdev&#45;info -->
<g id="node32" class="node">
<title>aeonik.joystick&#45;fixer.core/symlink&#45;target&#45;&gt;evdev&#45;info</title>
<ellipse fill="none" stroke="black" cx="1492.08" cy="-1686.95" rx="274.28" ry="18"/>
<text text-anchor="middle" x="1492.08" y="-1682.28" font-family="Times,serif" font-size="14.00">aeonik.joystick&#45;fixer.core/symlink&#45;target&#45;&gt;evdev&#45;info</text>
</g>
<!-- aeonik.joystick&#45;fixer.core/symlink&#45;target&#45;&gt;info&#45;&gt;aeonik.joystick&#45;fixer.core/symlink&#45;target&#45;&gt;evdev&#45;info -->
<g id="edge11" class="edge">
<title>aeonik.joystick&#45;fixer.core/symlink&#45;target&#45;&gt;info&#45;&gt;aeonik.joystick&#45;fixer.core/symlink&#45;target&#45;&gt;evdev&#45;info</title>
<path fill="none" stroke="black" d="M1446.15,-2135.79C1453.44,-2064.5 1479.99,-1805.09 1489.03,-1716.69"/>
<polygon fill="black" stroke="black" points="1492.5,-1717.2 1490.04,-1706.9 1485.54,-1716.49 1492.5,-1717.2"/>
</g>
<!-- aeonik.joystick&#45;fixer.core/&#45;main -->
<g id="node6" class="node">
<title>aeonik.joystick&#45;fixer.core/&#45;main</title>
<ellipse fill="none" stroke="black" cx="1982.1" cy="-391.33" rx="165.9" ry="18"/>
<text text-anchor="middle" x="1982.1" y="-386.65" font-family="Times,serif" font-size="14.00">aeonik.joystick&#45;fixer.core/&#45;main</text>
</g>
<!-- aeonik.joystick&#45;fixer.core/process&#45;all&#45;joysticks -->
<g id="node8" class="node">
<title>aeonik.joystick&#45;fixer.core/process&#45;all&#45;joysticks</title>
<ellipse fill="none" stroke="black" cx="1839.71" cy="-851.38" rx="238.5" ry="18"/>
<text text-anchor="middle" x="1839.71" y="-846.71" font-family="Times,serif" font-size="14.00">aeonik.joystick&#45;fixer.core/process&#45;all&#45;joysticks</text>
</g>
<!-- aeonik.joystick&#45;fixer.core/&#45;main&#45;&gt;aeonik.joystick&#45;fixer.core/process&#45;all&#45;joysticks -->
<g id="edge12" class="edge">
<title>aeonik.joystick&#45;fixer.core/&#45;main&#45;&gt;aeonik.joystick&#45;fixer.core/process&#45;all&#45;joysticks</title>
<path fill="none" stroke="black" d="M1976.43,-409.65C1954.58,-480.27 1875.67,-735.22 1848.77,-822.13"/>
<polygon fill="black" stroke="black" points="1845.46,-820.98 1845.85,-831.57 1852.15,-823.05 1845.46,-820.98"/>
</g>
<!-- clojure.pprint/pprint -->
<g id="node35" class="node">
<title>clojure.pprint/pprint</title>
<ellipse fill="none" stroke="black" cx="2231.38" cy="-23.89" rx="113.82" ry="18"/>
<text text-anchor="middle" x="2231.38" y="-19.22" font-family="Times,serif" font-size="14.00">clojure.pprint/pprint</text>
</g>
<!-- aeonik.joystick&#45;fixer.core/&#45;main&#45;&gt;clojure.pprint/pprint -->
<g id="edge13" class="edge">
<title>aeonik.joystick&#45;fixer.core/&#45;main&#45;&gt;clojure.pprint/pprint</title>
<path fill="none" stroke="black" d="M1994.47,-373.11C2035,-313.36 2164.06,-123.13 2212.64,-51.52"/>
<polygon fill="black" stroke="black" points="2215.38,-53.72 2218.1,-43.48 2209.59,-49.79 2215.38,-53.72"/>
</g>
<!-- aeonik.joystick&#45;fixer.core/filename&#45;&gt;joystick&#45;name -->
<g id="node7" class="node">
<title>aeonik.joystick&#45;fixer.core/filename&#45;&gt;joystick&#45;name</title>
<ellipse fill="none" stroke="black" cx="2122.44" cy="-1053.91" rx="261.13" ry="18"/>
<text text-anchor="middle" x="2122.44" y="-1049.24" font-family="Times,serif" font-size="14.00">aeonik.joystick&#45;fixer.core/filename&#45;&gt;joystick&#45;name</text>
</g>
<!-- aeonik.joystick&#45;fixer.core/extract&#45;name&#45;rexexp -->
<g id="node23" class="node">
<title>aeonik.joystick&#45;fixer.core/extract&#45;name&#45;rexexp</title>
<ellipse fill="none" stroke="black" cx="2571.35" cy="-926.43" rx="241.66" ry="18"/>
<text text-anchor="middle" x="2571.35" y="-921.75" font-family="Times,serif" font-size="14.00">aeonik.joystick&#45;fixer.core/extract&#45;name&#45;rexexp</text>
</g>
<!-- aeonik.joystick&#45;fixer.core/filename&#45;&gt;joystick&#45;name&#45;&gt;aeonik.joystick&#45;fixer.core/extract&#45;name&#45;rexexp -->
<g id="edge14" class="edge">
<title>aeonik.joystick&#45;fixer.core/filename&#45;&gt;joystick&#45;name&#45;&gt;aeonik.joystick&#45;fixer.core/extract&#45;name&#45;rexexp</title>
<path fill="none" stroke="black" d="M2185.33,-1036.05C2267.36,-1012.75 2410.64,-972.07 2497.67,-947.35"/>
<polygon fill="black" stroke="black" points="2498.4,-950.78 2507.06,-944.68 2496.49,-944.05 2498.4,-950.78"/>
</g>
<!-- aeonik.joystick&#45;fixer.core/process&#45;all&#45;joysticks&#45;&gt;aeonik.joystick&#45;fixer.core/correlate&#45;joystick&#45;name -->
<g id="edge15" class="edge">
<title>aeonik.joystick&#45;fixer.core/process&#45;all&#45;joysticks&#45;&gt;aeonik.joystick&#45;fixer.core/correlate&#45;joystick&#45;name</title>
<path fill="none" stroke="black" d="M1809.65,-833.15C1707.23,-771.04 1371.84,-567.64 1256.14,-497.47"/>
<polygon fill="black" stroke="black" points="1258.25,-494.65 1247.88,-492.46 1254.62,-500.64 1258.25,-494.65"/>
</g>
<!-- aeonik.joystick&#45;fixer.core/get&#45;joystick&#45;info -->
<g id="node10" class="node">
<title>aeonik.joystick&#45;fixer.core/get&#45;joystick&#45;info</title>
<ellipse fill="none" stroke="black" cx="1813.37" cy="-1393.71" rx="217.98" ry="18"/>
<text text-anchor="middle" x="1813.37" y="-1389.04" font-family="Times,serif" font-size="14.00">aeonik.joystick&#45;fixer.core/get&#45;joystick&#45;info</text>
</g>
<!-- aeonik.joystick&#45;fixer.core/process&#45;all&#45;joysticks&#45;&gt;aeonik.joystick&#45;fixer.core/get&#45;joystick&#45;info -->
<g id="edge16" class="edge">
<title>aeonik.joystick&#45;fixer.core/process&#45;all&#45;joysticks&#45;&gt;aeonik.joystick&#45;fixer.core/get&#45;joystick&#45;info</title>
<path fill="none" stroke="black" d="M1838.82,-869.74C1834.96,-949.32 1819.62,-1264.95 1814.82,-1363.89"/>
<polygon fill="black" stroke="black" points="1811.32,-1363.69 1814.33,-1373.85 1818.31,-1364.03 1811.32,-1363.69"/>
</g>
<!-- aeonik.joystick&#45;fixer.core/get&#45;joystick&#45;names -->
<g id="node20" class="node">
<title>aeonik.joystick&#45;fixer.core/get&#45;joystick&#45;names</title>
<ellipse fill="none" stroke="black" cx="1361.54" cy="-813.23" rx="231.66" ry="18"/>
<text text-anchor="middle" x="1361.54" y="-808.55" font-family="Times,serif" font-size="14.00">aeonik.joystick&#45;fixer.core/get&#45;joystick&#45;names</text>
</g>
<!-- aeonik.joystick&#45;fixer.core/process&#45;all&#45;joysticks&#45;&gt;aeonik.joystick&#45;fixer.core/get&#45;joystick&#45;names -->
<g id="edge17" class="edge">
<title>aeonik.joystick&#45;fixer.core/process&#45;all&#45;joysticks&#45;&gt;aeonik.joystick&#45;fixer.core/get&#45;joystick&#45;names</title>
<path fill="none" stroke="black" d="M1673.48,-838.12C1629.23,-834.59 1581.31,-830.76 1536.61,-827.2"/>
<polygon fill="black" stroke="black" points="1537.07,-823.72 1526.82,-826.42 1536.51,-830.7 1537.07,-823.72"/>
</g>
<!-- aeonik.joystick&#45;fixer.core/process&#45;all&#45;joysticks&#45;&gt;aeonik.joystick&#45;fixer.core/device&#45;paths -->
<g id="edge18" class="edge">
<title>aeonik.joystick&#45;fixer.core/process&#45;all&#45;joysticks&#45;&gt;aeonik.joystick&#45;fixer.core/device&#45;paths</title>
<path fill="none" stroke="black" d="M1791.8,-869.41C1690.74,-907.43 1456.09,-995.7 1346.84,-1036.8"/>
<polygon fill="black" stroke="black" points="1345.89,-1033.42 1337.77,-1040.21 1348.36,-1039.97 1345.89,-1033.42"/>
</g>
<!-- aeonik.joystick&#45;fixer.core/join&#45;evdev+joydev&#45;info -->
<g id="node22" class="node">
<title>aeonik.joystick&#45;fixer.core/join&#45;evdev+joydev&#45;info</title>
<ellipse fill="none" stroke="black" cx="2207.16" cy="-1465.79" rx="252.18" ry="18"/>
<text text-anchor="middle" x="2207.16" y="-1461.12" font-family="Times,serif" font-size="14.00">aeonik.joystick&#45;fixer.core/join&#45;evdev+joydev&#45;info</text>
</g>
<!-- aeonik.joystick&#45;fixer.core/get&#45;joystick&#45;info&#45;&gt;aeonik.joystick&#45;fixer.core/join&#45;evdev+joydev&#45;info -->
<g id="edge19" class="edge">
<title>aeonik.joystick&#45;fixer.core/get&#45;joystick&#45;info&#45;&gt;aeonik.joystick&#45;fixer.core/join&#45;evdev+joydev&#45;info</title>
<path fill="none" stroke="black" d="M1904.7,-1410.43C1963.73,-1421.24 2040.74,-1435.33 2102.28,-1446.6"/>
<polygon fill="black" stroke="black" points="2101.63,-1450.04 2112.1,-1448.39 2102.89,-1443.15 2101.63,-1450.04"/>
</g>
<!-- aeonik.joystick&#45;fixer.core/get&#45;joystick&#45;info&#45;&gt;aeonik.joystick&#45;fixer.core/symlink&#45;target&#45;&gt;joydev&#45;info -->
<g id="edge20" class="edge">
<title>aeonik.joystick&#45;fixer.core/get&#45;joystick&#45;info&#45;&gt;aeonik.joystick&#45;fixer.core/symlink&#45;target&#45;&gt;joydev&#45;info</title>
<path fill="none" stroke="black" d="M1790.77,-1412.04C1719.74,-1469.66 1500.84,-1647.24 1418.91,-1713.7"/>
<polygon fill="black" stroke="black" points="1416.8,-1710.91 1411.24,-1719.93 1421.21,-1716.34 1416.8,-1710.91"/>
</g>
<!-- aeonik.joystick&#45;fixer.core/get&#45;joystick&#45;info&#45;&gt;aeonik.joystick&#45;fixer.core/symlink&#45;target&#45;&gt;evdev&#45;info -->
<g id="edge21" class="edge">
<title>aeonik.joystick&#45;fixer.core/get&#45;joystick&#45;info&#45;&gt;aeonik.joystick&#45;fixer.core/symlink&#45;target&#45;&gt;evdev&#45;info</title>
<path fill="none" stroke="black" d="M1793.27,-1412.05C1738.16,-1462.35 1584.53,-1602.57 1520.58,-1660.94"/>
<polygon fill="black" stroke="black" points="1518.31,-1658.27 1513.28,-1667.6 1523.03,-1663.44 1518.31,-1658.27"/>
</g>
<!-- aeonik.joystick&#45;fixer.core/deep&#45;merge -->
<g id="node11" class="node">
<title>aeonik.joystick&#45;fixer.core/deep&#45;merge</title>
<ellipse fill="none" stroke="black" cx="2417.47" cy="-573" rx="197.47" ry="18"/>
<text text-anchor="middle" x="2417.47" y="-568.33" font-family="Times,serif" font-size="14.00">aeonik.joystick&#45;fixer.core/deep&#45;merge</text>
</g>
<!-- aeonik.joystick&#45;fixer.core/deep&#45;merge&#45;&gt;aeonik.joystick&#45;fixer.core/deep&#45;merge -->
<g id="edge22" class="edge">
<title>aeonik.joystick&#45;fixer.core/deep&#45;merge&#45;&gt;aeonik.joystick&#45;fixer.core/deep&#45;merge</title>
<path fill="none" stroke="black" d="M2607.28,-578.22C2623.09,-577.09 2632.93,-575.36 2632.93,-573 2632.93,-571.27 2627.63,-569.87 2618.54,-568.81"/>
<polygon fill="black" stroke="black" points="2619.06,-565.34 2608.79,-567.92 2618.43,-572.31 2619.06,-565.34"/>
</g>
<!-- aeonik.joystick&#45;fixer.core/by&#45;path&#45;&gt;by&#45;id -->
<g id="node12" class="node">
<title>aeonik.joystick&#45;fixer.core/by&#45;path&#45;&gt;by&#45;id</title>
<ellipse fill="none" stroke="black" cx="1180.06" cy="-1474.61" rx="212.2" ry="18"/>
<text text-anchor="middle" x="1180.06" y="-1469.94" font-family="Times,serif" font-size="14.00">aeonik.joystick&#45;fixer.core/by&#45;path&#45;&gt;by&#45;id</text>
</g>
<!-- aeonik.joystick&#45;fixer.core/by&#45;path&#45;&gt;by&#45;id&#45;&gt;clojure.java.io/file -->
<g id="edge23" class="edge">
<title>aeonik.joystick&#45;fixer.core/by&#45;path&#45;&gt;by&#45;id&#45;&gt;clojure.java.io/file</title>
<path fill="none" stroke="black" d="M1171.34,-1456.33C1139.87,-1390.4 1032.06,-1164.55 993.67,-1084.11"/>
<polygon fill="black" stroke="black" points="996.85,-1082.64 989.38,-1075.12 990.53,-1085.66 996.85,-1082.64"/>
</g>
<!-- aeonik.joystick&#45;fixer.core/by&#45;path&#45;&gt;by&#45;id&#45;&gt;aeonik.joystick&#45;fixer.core/file&#45;&gt;symlink -->
<g id="edge24" class="edge">
<title>aeonik.joystick&#45;fixer.core/by&#45;path&#45;&gt;by&#45;id&#45;&gt;aeonik.joystick&#45;fixer.core/file&#45;&gt;symlink</title>
<path fill="none" stroke="black" d="M1141.88,-1456.56C1052.59,-1414.33 830.27,-1309.21 731.51,-1262.5"/>
<polygon fill="black" stroke="black" points="733.12,-1259.39 722.59,-1258.28 730.13,-1265.72 733.12,-1259.39"/>
</g>
<!-- aeonik.joystick&#45;fixer.core/by&#45;path&#45;&gt;by&#45;id&#45;&gt;aeonik.joystick&#45;fixer.core/device&#45;paths -->
<g id="edge25" class="edge">
<title>aeonik.joystick&#45;fixer.core/by&#45;path&#45;&gt;by&#45;id&#45;&gt;aeonik.joystick&#45;fixer.core/device&#45;paths</title>
<path fill="none" stroke="black" d="M1184.88,-1456.2C1202.06,-1390.55 1260.41,-1167.61 1281.36,-1087.53"/>
<polygon fill="black" stroke="black" points="1284.65,-1088.81 1283.79,-1078.25 1277.87,-1087.04 1284.65,-1088.81"/>
</g>
<!-- aeonik.joystick&#45;fixer.core/by&#45;path&#45;&gt;by&#45;id&#45;&gt;aeonik.joystick&#45;fixer.core/get&#45;corresponding&#45;path -->
<g id="edge26" class="edge">
<title>aeonik.joystick&#45;fixer.core/by&#45;path&#45;&gt;by&#45;id&#45;&gt;aeonik.joystick&#45;fixer.core/get&#45;corresponding&#45;path</title>
<path fill="none" stroke="black" d="M999.54,-1484.36C973.66,-1485.76 946.82,-1487.21 920.35,-1488.64"/>
<polygon fill="black" stroke="black" points="920.34,-1485.13 910.54,-1489.17 920.72,-1492.12 920.34,-1485.13"/>
</g>
<!-- aeonik.joystick&#45;fixer.core/symlink&#45;&gt;target -->
<g id="node13" class="node">
<title>aeonik.joystick&#45;fixer.core/symlink&#45;&gt;target</title>
<ellipse fill="none" stroke="black" cx="219.56" cy="-1486.11" rx="219.56" ry="18"/>
<text text-anchor="middle" x="219.56" y="-1481.44" font-family="Times,serif" font-size="14.00">aeonik.joystick&#45;fixer.core/symlink&#45;&gt;target</text>
</g>
<!-- aeonik.joystick&#45;fixer.core/example&#45;joystick&#45;names -->
<g id="node14" class="node">
<title>aeonik.joystick&#45;fixer.core/example&#45;joystick&#45;names</title>
<ellipse fill="none" stroke="black" cx="1145.44" cy="-2016" rx="257.44" ry="18"/>
<text text-anchor="middle" x="1145.44" y="-2011.33" font-family="Times,serif" font-size="14.00">aeonik.joystick&#45;fixer.core/example&#45;joystick&#45;names</text>
</g>
<!-- aeonik.joystick&#45;fixer.core/split&#45;usb&#45;pci -->
<g id="node15" class="node">
<title>aeonik.joystick&#45;fixer.core/split&#45;usb&#45;pci</title>
<ellipse fill="none" stroke="black" cx="2578.41" cy="-1700.4" rx="199.04" ry="18"/>
<text text-anchor="middle" x="2578.41" y="-1695.73" font-family="Times,serif" font-size="14.00">aeonik.joystick&#45;fixer.core/split&#45;usb&#45;pci</text>
</g>
<!-- aeonik.joystick&#45;fixer.core/simple&#45;replace -->
<g id="node16" class="node">
<title>aeonik.joystick&#45;fixer.core/simple&#45;replace</title>
<ellipse fill="none" stroke="black" cx="1876.15" cy="-1838" rx="211.15" ry="18"/>
<text text-anchor="middle" x="1876.15" y="-1833.33" font-family="Times,serif" font-size="14.00">aeonik.joystick&#45;fixer.core/simple&#45;replace</text>
</g>
<!-- clojure.string/replace -->
<g id="node34" class="node">
<title>clojure.string/replace</title>
<ellipse fill="none" stroke="black" cx="2170.68" cy="-1794" rx="118.55" ry="18"/>
<text text-anchor="middle" x="2170.68" y="-1789.33" font-family="Times,serif" font-size="14.00">clojure.string/replace</text>
</g>
<!-- aeonik.joystick&#45;fixer.core/simple&#45;replace&#45;&gt;clojure.string/replace -->
<g id="edge27" class="edge">
<title>aeonik.joystick&#45;fixer.core/simple&#45;replace&#45;&gt;clojure.string/replace</title>
<path fill="none" stroke="black" d="M1982.89,-1822.06C2012.67,-1817.61 2044.85,-1812.8 2074.01,-1808.44"/>
<polygon fill="black" stroke="black" points="2074.16,-1811.96 2083.53,-1807.02 2073.13,-1805.04 2074.16,-1811.96"/>
</g>
<!-- aeonik.joystick&#45;fixer.core/transform&#45;data -->
<g id="node17" class="node">
<title>aeonik.joystick&#45;fixer.core/transform&#45;data</title>
<ellipse fill="none" stroke="black" cx="2544.25" cy="-1239" rx="213.25" ry="18"/>
<text text-anchor="middle" x="2544.25" y="-1234.33" font-family="Times,serif" font-size="14.00">aeonik.joystick&#45;fixer.core/transform&#45;data</text>
</g>
<!-- aeonik.joystick&#45;fixer.core/data2 -->
<g id="node18" class="node">
<title>aeonik.joystick&#45;fixer.core/data2</title>
<ellipse fill="none" stroke="black" cx="832.43" cy="-2238" rx="166.43" ry="18"/>
<text text-anchor="middle" x="832.43" y="-2233.32" font-family="Times,serif" font-size="14.00">aeonik.joystick&#45;fixer.core/data2</text>
</g>
<!-- aeonik.joystick&#45;fixer.core/example&#45;joydev&#45;info -->
<g id="node19" class="node">
<title>aeonik.joystick&#45;fixer.core/example&#45;joydev&#45;info</title>
<ellipse fill="none" stroke="black" cx="2346.98" cy="-2112.32" rx="237.98" ry="18"/>
<text text-anchor="middle" x="2346.98" y="-2107.65" font-family="Times,serif" font-size="14.00">aeonik.joystick&#45;fixer.core/example&#45;joydev&#45;info</text>
</g>
<!-- aeonik.joystick&#45;fixer.core/get&#45;joystick&#45;names&#45;&gt;clojure.java.io/file -->
<g id="edge28" class="edge">
<title>aeonik.joystick&#45;fixer.core/get&#45;joystick&#45;names&#45;&gt;clojure.java.io/file</title>
<path fill="none" stroke="black" d="M1332.86,-831.43C1264.85,-874.59 1093.81,-983.13 1017.6,-1031.49"/>
<polygon fill="black" stroke="black" points="1015.78,-1028.5 1009.21,-1036.81 1019.53,-1034.41 1015.78,-1028.5"/>
</g>
<!-- aeonik.joystick&#45;fixer.core/get&#45;joystick&#45;names&#45;&gt;aeonik.joystick&#45;fixer.core/filename&#45;&gt;joystick&#45;name -->
<g id="edge29" class="edge">
<title>aeonik.joystick&#45;fixer.core/get&#45;joystick&#45;names&#45;&gt;aeonik.joystick&#45;fixer.core/filename&#45;&gt;joystick&#45;name</title>
<path fill="none" stroke="black" d="M1418.11,-831.12C1555.54,-874.59 1906.53,-985.62 2054.75,-1032.5"/>
<polygon fill="black" stroke="black" points="2053.46,-1035.76 2064.05,-1035.44 2055.57,-1029.09 2053.46,-1035.76"/>
</g>
<!-- aeonik.joystick&#45;fixer.core/get&#45;joystick&#45;names&#45;&gt;aeonik.joystick&#45;fixer.core/evdev&#45;regexp -->
<g id="edge30" class="edge">
<title>aeonik.joystick&#45;fixer.core/get&#45;joystick&#45;names&#45;&gt;aeonik.joystick&#45;fixer.core/evdev&#45;regexp</title>
<path fill="none" stroke="black" d="M1366.34,-794.81C1385.93,-719.49 1460.08,-434.53 1484.21,-341.77"/>
<polygon fill="black" stroke="black" points="1487.58,-342.74 1486.71,-332.18 1480.8,-340.97 1487.58,-342.74"/>
</g>
<!-- aeonik.joystick&#45;fixer.core/example&#45;joystick&#45;map -->
<g id="node21" class="node">
<title>aeonik.joystick&#45;fixer.core/example&#45;joystick&#45;map</title>
<ellipse fill="none" stroke="black" cx="2380.77" cy="-2068.32" rx="246.39" ry="18"/>
<text text-anchor="middle" x="2380.77" y="-2063.64" font-family="Times,serif" font-size="14.00">aeonik.joystick&#45;fixer.core/example&#45;joystick&#45;map</text>
</g>
<!-- aeonik.joystick&#45;fixer.core/example&#45;joystick&#45;map&#45;&gt;aeonik.joystick&#45;fixer.core/example&#45;joydev&#45;info -->
<g id="edge31" class="edge">
<title>aeonik.joystick&#45;fixer.core/example&#45;joystick&#45;map&#45;&gt;aeonik.joystick&#45;fixer.core/example&#45;joydev&#45;info</title>
<path fill="none" stroke="black" d="M2366.63,-2086.73C2366.52,-2086.88 2366.4,-2087.03 2366.28,-2087.19"/>
<polygon fill="black" stroke="black" points="2365.18,-2082.87 2361.87,-2092.93 2370.74,-2087.13 2365.18,-2082.87"/>
</g>
<!-- aeonik.joystick&#45;fixer.core/example&#45;evdev&#45;info -->
<g id="node30" class="node">
<title>aeonik.joystick&#45;fixer.core/example&#45;evdev&#45;info</title>
<ellipse fill="none" stroke="black" cx="2399.27" cy="-2016" rx="234.82" ry="18"/>
<text text-anchor="middle" x="2399.27" y="-2011.33" font-family="Times,serif" font-size="14.00">aeonik.joystick&#45;fixer.core/example&#45;evdev&#45;info</text>
</g>
<!-- aeonik.joystick&#45;fixer.core/example&#45;joystick&#45;map&#45;&gt;aeonik.joystick&#45;fixer.core/example&#45;evdev&#45;info -->
<g id="edge32" class="edge">
<title>aeonik.joystick&#45;fixer.core/example&#45;joystick&#45;map&#45;&gt;aeonik.joystick&#45;fixer.core/example&#45;evdev&#45;info</title>
<path fill="none" stroke="black" d="M2387.24,-2050.02C2387.8,-2048.44 2388.38,-2046.81 2388.96,-2045.17"/>
<polygon fill="black" stroke="black" points="2392.23,-2046.4 2392.27,-2035.8 2385.64,-2044.06 2392.23,-2046.4"/>
</g>
<!-- aeonik.joystick&#45;fixer.core/join&#45;evdev+joydev&#45;info&#45;&gt;aeonik.joystick&#45;fixer.core/filename&#45;&gt;joystick&#45;name -->
<g id="edge33" class="edge">
<title>aeonik.joystick&#45;fixer.core/join&#45;evdev+joydev&#45;info&#45;&gt;aeonik.joystick&#45;fixer.core/filename&#45;&gt;joystick&#45;name</title>
<path fill="none" stroke="black" d="M2203.41,-1447.57C2190.1,-1382.85 2145.03,-1163.76 2128.54,-1083.6"/>
<polygon fill="black" stroke="black" points="2131.99,-1082.97 2126.54,-1073.88 2125.13,-1084.38 2131.99,-1082.97"/>
</g>
<!-- aeonik.joystick&#45;fixer.core/join&#45;evdev+joydev&#45;info&#45;&gt;aeonik.joystick&#45;fixer.core/split&#45;usb&#45;pci -->
<g id="edge34" class="edge">
<title>aeonik.joystick&#45;fixer.core/join&#45;evdev+joydev&#45;info&#45;&gt;aeonik.joystick&#45;fixer.core/split&#45;usb&#45;pci</title>
<path fill="none" stroke="black" d="M2235.98,-1484.01C2302.26,-1525.89 2465.52,-1629.06 2540.11,-1676.2"/>
<polygon fill="black" stroke="black" points="2538,-1679.01 2548.33,-1681.39 2541.74,-1673.09 2538,-1679.01"/>
</g>
<!-- aeonik.joystick&#45;fixer.core/lookup&#45;all&#45;symlinks -->
<g id="node24" class="node">
<title>aeonik.joystick&#45;fixer.core/lookup&#45;all&#45;symlinks</title>
<ellipse fill="none" stroke="black" cx="454.96" cy="-979.56" rx="233.77" ry="18"/>
<text text-anchor="middle" x="454.96" y="-974.88" font-family="Times,serif" font-size="14.00">aeonik.joystick&#45;fixer.core/lookup&#45;all&#45;symlinks</text>
</g>
<!-- aeonik.joystick&#45;fixer.core/lookup&#45;all&#45;symlinks&#45;&gt;clojure.java.io/file -->
<g id="edge35" class="edge">
<title>aeonik.joystick&#45;fixer.core/lookup&#45;all&#45;symlinks&#45;&gt;clojure.java.io/file</title>
<path fill="none" stroke="black" d="M567.26,-995.78C663.6,-1009.69 800.61,-1029.48 889.89,-1042.37"/>
<polygon fill="black" stroke="black" points="889.18,-1045.8 899.58,-1043.77 890.18,-1038.88 889.18,-1045.8"/>
</g>
<!-- aeonik.joystick&#45;fixer.core/lookup&#45;all&#45;symlinks&#45;&gt;aeonik.joystick&#45;fixer.core/file&#45;&gt;symlink -->
<g id="edge36" class="edge">
<title>aeonik.joystick&#45;fixer.core/lookup&#45;all&#45;symlinks&#45;&gt;aeonik.joystick&#45;fixer.core/file&#45;&gt;symlink</title>
<path fill="none" stroke="black" d="M470.99,-997.84C510.55,-1042.96 612.99,-1159.79 659.42,-1212.74"/>
<polygon fill="black" stroke="black" points="656.67,-1214.91 665.89,-1220.12 661.93,-1210.29 656.67,-1214.91"/>
</g>
<!-- aeonik.joystick&#45;fixer.core/file&#45;&gt;symlink&#45;&gt;aeonik.joystick&#45;fixer.core/symlink&#45;&gt;target -->
<g id="edge37" class="edge">
<title>aeonik.joystick&#45;fixer.core/file&#45;&gt;symlink&#45;&gt;aeonik.joystick&#45;fixer.core/symlink&#45;&gt;target</title>
<path fill="none" stroke="black" d="M648.83,-1257.65C566.33,-1301.56 355.84,-1413.59 263.78,-1462.58"/>
<polygon fill="black" stroke="black" points="262.2,-1459.45 255.02,-1467.24 265.49,-1465.63 262.2,-1459.45"/>
</g>
<!-- aeonik.joystick&#45;fixer.core/symlink&#45;target&#45;&gt;joydev&#45;info&#45;&gt;aeonik.joystick&#45;fixer.core/by&#45;id&#45;&gt;by&#45;path -->
<g id="edge38" class="edge">
<title>aeonik.joystick&#45;fixer.core/symlink&#45;target&#45;&gt;joydev&#45;info&#45;&gt;aeonik.joystick&#45;fixer.core/by&#45;id&#45;&gt;by&#45;path</title>
<path fill="none" stroke="black" d="M1378.47,-1720.94C1350.72,-1665.05 1266.69,-1495.85 1233.17,-1428.35"/>
<polygon fill="black" stroke="black" points="1236.49,-1427.18 1228.91,-1419.78 1230.22,-1430.29 1236.49,-1427.18"/>
</g>
<!-- aeonik.joystick&#45;fixer.core/symlink&#45;target&#45;&gt;joydev&#45;info&#45;&gt;aeonik.joystick&#45;fixer.core/by&#45;path&#45;&gt;by&#45;id -->
<g id="edge39" class="edge">
<title>aeonik.joystick&#45;fixer.core/symlink&#45;target&#45;&gt;joydev&#45;info&#45;&gt;aeonik.joystick&#45;fixer.core/by&#45;path&#45;&gt;by&#45;id</title>
<path fill="none" stroke="black" d="M1373.26,-1720.98C1337.51,-1675.39 1243.89,-1556 1201.48,-1501.93"/>
<polygon fill="black" stroke="black" points="1204.28,-1499.82 1195.36,-1494.12 1198.77,-1504.14 1204.28,-1499.82"/>
</g>
<!-- aeonik.joystick&#45;fixer.core/regex&#45;search&#45;&gt;id&#45;symlinks&#45;&gt;clojure.java.io/file -->
<g id="edge40" class="edge">
<title>aeonik.joystick&#45;fixer.core/regex&#45;search&#45;&gt;id&#45;symlinks&#45;&gt;clojure.java.io/file</title>
<path fill="none" stroke="black" d="M912.43,-775.74C924.46,-825.59 958.07,-964.76 972.84,-1025.91"/>
<polygon fill="black" stroke="black" points="969.42,-1026.68 975.17,-1035.58 976.23,-1025.04 969.42,-1026.68"/>
</g>
<!-- aeonik.joystick&#45;fixer.core/regex&#45;search&#45;&gt;id&#45;symlinks&#45;&gt;aeonik.joystick&#45;fixer.core/search&#45;path -->
<g id="edge41" class="edge">
<title>aeonik.joystick&#45;fixer.core/regex&#45;search&#45;&gt;id&#45;symlinks&#45;&gt;aeonik.joystick&#45;fixer.core/search&#45;path</title>
<path fill="none" stroke="black" d="M843.91,-739.62C802.75,-728.11 749.17,-713.12 706.32,-701.14"/>
<polygon fill="black" stroke="black" points="707.42,-697.81 696.85,-698.49 705.54,-704.55 707.42,-697.81"/>
</g>
<!-- aeonik.joystick&#45;fixer.core/regex&#45;search&#45;&gt;id&#45;symlinks&#45;&gt;aeonik.joystick&#45;fixer.core/file&#45;&gt;symlink -->
<g id="edge42" class="edge">
<title>aeonik.joystick&#45;fixer.core/regex&#45;search&#45;&gt;id&#45;symlinks&#45;&gt;aeonik.joystick&#45;fixer.core/file&#45;&gt;symlink</title>
<path fill="none" stroke="black" d="M899.49,-775.86C865.25,-849.15 737.92,-1121.73 696.22,-1211.01"/>
<polygon fill="black" stroke="black" points="693.16,-1209.28 692.1,-1219.82 699.5,-1212.24 693.16,-1209.28"/>
</g>
<!-- aeonik.joystick&#45;fixer.core/regex&#45;search&#45;&gt;id&#45;symlinks&#45;&gt;aeonik.joystick&#45;fixer.core/device&#45;paths -->
<g id="edge43" class="edge">
<title>aeonik.joystick&#45;fixer.core/regex&#45;search&#45;&gt;id&#45;symlinks&#45;&gt;aeonik.joystick&#45;fixer.core/device&#45;paths</title>
<path fill="none" stroke="black" d="M931.29,-775.94C996.66,-827.59 1182.13,-974.17 1257.01,-1033.35"/>
<polygon fill="black" stroke="black" points="1254.79,-1036.05 1264.8,-1039.51 1259.13,-1030.56 1254.79,-1036.05"/>
</g>
<!-- aeonik.joystick&#45;fixer.core/symlink&#45;target&#45;&gt;evdev&#45;info&#45;&gt;aeonik.joystick&#45;fixer.core/by&#45;id&#45;&gt;by&#45;path -->
<g id="edge44" class="edge">
<title>aeonik.joystick&#45;fixer.core/symlink&#45;target&#45;&gt;evdev&#45;info&#45;&gt;aeonik.joystick&#45;fixer.core/by&#45;id&#45;&gt;by&#45;path</title>
<path fill="none" stroke="black" d="M1474.59,-1668.57C1427.7,-1619.29 1299.03,-1484.06 1244.3,-1426.55"/>
<polygon fill="black" stroke="black" points="1246.95,-1424.26 1237.52,-1419.43 1241.88,-1429.09 1246.95,-1424.26"/>
</g>
<!-- aeonik.joystick&#45;fixer.core/symlink&#45;target&#45;&gt;evdev&#45;info&#45;&gt;aeonik.joystick&#45;fixer.core/by&#45;path&#45;&gt;by&#45;id -->
<g id="edge45" class="edge">
<title>aeonik.joystick&#45;fixer.core/symlink&#45;target&#45;&gt;evdev&#45;info&#45;&gt;aeonik.joystick&#45;fixer.core/by&#45;path&#45;&gt;by&#45;id</title>
<path fill="none" stroke="black" d="M1465.2,-1668.67C1409.11,-1630.49 1279.5,-1542.29 1216.19,-1499.2"/>
<polygon fill="black" stroke="black" points="1218.47,-1496.52 1208.23,-1493.78 1214.53,-1502.3 1218.47,-1496.52"/>
</g>
<!-- aeonik.joystick&#45;fixer.core/get&#45;corresponding&#45;path&#45;&gt;clojure.java.io/file -->
<g id="edge46" class="edge">
<title>aeonik.joystick&#45;fixer.core/get&#45;corresponding&#45;path&#45;&gt;clojure.java.io/file</title>
<path fill="none" stroke="black" d="M715.66,-1482.03C758.54,-1412.81 911.2,-1166.37 962.78,-1083.1"/>
<polygon fill="black" stroke="black" points="965.61,-1085.19 967.9,-1074.84 959.65,-1081.5 965.61,-1085.19"/>
</g>
<!-- aeonik.joystick&#45;fixer.core/get&#45;corresponding&#45;path&#45;&gt;aeonik.joystick&#45;fixer.core/symlink&#45;&gt;target -->
<g id="edge47" class="edge">
<title>aeonik.joystick&#45;fixer.core/get&#45;corresponding&#45;path&#45;&gt;aeonik.joystick&#45;fixer.core/symlink&#45;&gt;target</title>
<path fill="none" stroke="black" d="M467.28,-1493.36C457.61,-1493.08 447.94,-1492.8 438.31,-1492.52"/>
<polygon fill="black" stroke="black" points="438.65,-1489.02 428.55,-1492.23 438.44,-1496.02 438.65,-1489.02"/>
</g>
<!-- aeonik.joystick&#45;fixer.core/temp&#45;file -->
<g id="node36" class="node">
<title>aeonik.joystick&#45;fixer.core/temp&#45;file</title>
<ellipse fill="none" stroke="black" cx="2151.11" cy="-693.87" rx="182.21" ry="18"/>
<text text-anchor="middle" x="2151.11" y="-689.19" font-family="Times,serif" font-size="14.00">aeonik.joystick&#45;fixer.core/temp&#45;file</text>
</g>
<!-- aeonik.joystick&#45;fixer.core/temp&#45;file&#45;&gt;aeonik.joystick&#45;fixer.core/process&#45;all&#45;joysticks -->
<g id="edge48" class="edge">
<title>aeonik.joystick&#45;fixer.core/temp&#45;file&#45;&gt;aeonik.joystick&#45;fixer.core/process&#45;all&#45;joysticks</title>
<path fill="none" stroke="black" d="M2115.39,-711.93C2058.64,-740.64 1947.94,-796.64 1885.46,-828.24"/>
<polygon fill="black" stroke="black" points="1884.19,-824.96 1876.85,-832.6 1887.35,-831.21 1884.19,-824.96"/>
</g>
</g>
</svg>
