<?xml version="1.0" encoding="UTF-8" standalone="no"?>
<!DOCTYPE svg PUBLIC "-//W3C//DTD SVG 1.1//EN"
 "http://www.w3.org/Graphics/SVG/1.1/DTD/svg11.dtd">
<!-- Generated by graphviz version 9.0.0 (0)
 -->
<!-- Pages: 1 -->
<svg width="5591pt" height="1585pt"
 viewBox="0.00 0.00 5590.82 1585.46" xmlns="http://www.w3.org/2000/svg" xmlns:xlink="http://www.w3.org/1999/xlink">
<g id="graph0" class="graph" transform="scale(1 1) rotate(0) translate(4 1581.46)">
<polygon fill="white" stroke="none" points="-4,4 -4,-1581.46 5586.82,-1581.46 5586.82,4 -4,4"/>
<!-- clojure.java.io/file -->
<g id="node1" class="node">
<title>clojure.java.io/file</title>
<ellipse fill="none" stroke="black" cx="1834" cy="-18" rx="99.61" ry="18"/>
<text text-anchor="middle" x="1834" y="-13.32" font-family="Times,serif" font-size="14.00">clojure.java.io/file</text>
</g>
<!-- aeonik.joystick&#45;fixer.core/correlate&#45;joystick&#45;name -->
<g id="node2" class="node">
<title>aeonik.joystick&#45;fixer.core/correlate&#45;joystick&#45;name</title>
<ellipse fill="none" stroke="black" cx="2073" cy="-774" rx="255.34" ry="18"/>
<text text-anchor="middle" x="2073" y="-769.33" font-family="Times,serif" font-size="14.00">aeonik.joystick&#45;fixer.core/correlate&#45;joystick&#45;name</text>
</g>
<!-- aeonik.joystick&#45;fixer.core/evdev&#45;regexp -->
<g id="node9" class="node">
<title>aeonik.joystick&#45;fixer.core/evdev&#45;regexp</title>
<ellipse fill="none" stroke="black" cx="3036" cy="-522" rx="205.36" ry="18"/>
<text text-anchor="middle" x="3036" y="-517.33" font-family="Times,serif" font-size="14.00">aeonik.joystick&#45;fixer.core/evdev&#45;regexp</text>
</g>
<!-- aeonik.joystick&#45;fixer.core/correlate&#45;joystick&#45;name&#45;&gt;aeonik.joystick&#45;fixer.core/evdev&#45;regexp -->
<g id="edge1" class="edge">
<title>aeonik.joystick&#45;fixer.core/correlate&#45;joystick&#45;name&#45;&gt;aeonik.joystick&#45;fixer.core/evdev&#45;regexp</title>
<path fill="none" stroke="black" d="M2138.06,-756.11C2310.43,-711.36 2778.2,-589.93 2961.19,-542.42"/>
<polygon fill="black" stroke="black" points="2962.04,-545.82 2970.84,-539.92 2960.28,-539.04 2962.04,-545.82"/>
</g>
<!-- aeonik.joystick&#45;fixer.core/regex&#45;search&#45;&gt;id&#45;symlinks -->
<g id="node28" class="node">
<title>aeonik.joystick&#45;fixer.core/regex&#45;search&#45;&gt;id&#45;symlinks</title>
<ellipse fill="none" stroke="black" cx="1460" cy="-522" rx="270.6" ry="18"/>
<text text-anchor="middle" x="1460" y="-517.33" font-family="Times,serif" font-size="14.00">aeonik.joystick&#45;fixer.core/regex&#45;search&#45;&gt;id&#45;symlinks</text>
</g>
<!-- aeonik.joystick&#45;fixer.core/correlate&#45;joystick&#45;name&#45;&gt;aeonik.joystick&#45;fixer.core/regex&#45;search&#45;&gt;id&#45;symlinks -->
<g id="edge2" class="edge">
<title>aeonik.joystick&#45;fixer.core/correlate&#45;joystick&#45;name&#45;&gt;aeonik.joystick&#45;fixer.core/regex&#45;search&#45;&gt;id&#45;symlinks</title>
<path fill="none" stroke="black" d="M2030.87,-755.82C1922.03,-711.43 1631.71,-593.03 1512.35,-544.35"/>
<polygon fill="black" stroke="black" points="1514.01,-541.25 1503.42,-540.71 1511.36,-547.73 1514.01,-541.25"/>
</g>
<!-- aeonik.joystick&#45;fixer.core/joydev&#45;regexp -->
<g id="node31" class="node">
<title>aeonik.joystick&#45;fixer.core/joydev&#45;regexp</title>
<ellipse fill="none" stroke="black" cx="2011" cy="-522" rx="208.51" ry="18"/>
<text text-anchor="middle" x="2011" y="-517.33" font-family="Times,serif" font-size="14.00">aeonik.joystick&#45;fixer.core/joydev&#45;regexp</text>
</g>
<!-- aeonik.joystick&#45;fixer.core/correlate&#45;joystick&#45;name&#45;&gt;aeonik.joystick&#45;fixer.core/joydev&#45;regexp -->
<g id="edge3" class="edge">
<title>aeonik.joystick&#45;fixer.core/correlate&#45;joystick&#45;name&#45;&gt;aeonik.joystick&#45;fixer.core/joydev&#45;regexp</title>
<path fill="none" stroke="black" d="M2068.74,-755.82C2058.23,-713.45 2031,-603.63 2018.04,-551.4"/>
<polygon fill="black" stroke="black" points="2021.46,-550.64 2015.66,-541.77 2014.67,-552.32 2021.46,-550.64"/>
</g>
<!-- aeonik.joystick&#45;fixer.core/by&#45;id&#45;&gt;by&#45;path -->
<g id="node3" class="node">
<title>aeonik.joystick&#45;fixer.core/by&#45;id&#45;&gt;by&#45;path</title>
<ellipse fill="none" stroke="black" cx="905" cy="-522" rx="212.2" ry="18"/>
<text text-anchor="middle" x="905" y="-517.33" font-family="Times,serif" font-size="14.00">aeonik.joystick&#45;fixer.core/by&#45;id&#45;&gt;by&#45;path</text>
</g>
<!-- aeonik.joystick&#45;fixer.core/by&#45;id&#45;&gt;by&#45;path&#45;&gt;clojure.java.io/file -->
<g id="edge4" class="edge">
<title>aeonik.joystick&#45;fixer.core/by&#45;id&#45;&gt;by&#45;path&#45;&gt;clojure.java.io/file</title>
<path fill="none" stroke="black" d="M929.09,-503.76C1012.08,-444.39 1281,-252 1281,-252 1281,-252 1650.75,-96.21 1785.57,-39.41"/>
<polygon fill="black" stroke="black" points="1786.74,-42.71 1794.6,-35.6 1784.02,-36.26 1786.74,-42.71"/>
</g>
<!-- aeonik.joystick&#45;fixer.core/file&#45;&gt;symlink -->
<g id="node25" class="node">
<title>aeonik.joystick&#45;fixer.core/file&#45;&gt;symlink</title>
<ellipse fill="none" stroke="black" cx="1521" cy="-270" rx="203.78" ry="18"/>
<text text-anchor="middle" x="1521" y="-265.32" font-family="Times,serif" font-size="14.00">aeonik.joystick&#45;fixer.core/file&#45;&gt;symlink</text>
</g>
<!-- aeonik.joystick&#45;fixer.core/by&#45;id&#45;&gt;by&#45;path&#45;&gt;aeonik.joystick&#45;fixer.core/file&#45;&gt;symlink -->
<g id="edge5" class="edge">
<title>aeonik.joystick&#45;fixer.core/by&#45;id&#45;&gt;by&#45;path&#45;&gt;aeonik.joystick&#45;fixer.core/file&#45;&gt;symlink</title>
<path fill="none" stroke="black" d="M946.86,-504.01C1055.94,-459.74 1348.8,-340.89 1468.71,-292.22"/>
<polygon fill="black" stroke="black" points="1469.73,-295.58 1477.68,-288.58 1467.1,-289.1 1469.73,-295.58"/>
</g>
<!-- aeonik.joystick&#45;fixer.core/device&#45;paths -->
<g id="node29" class="node">
<title>aeonik.joystick&#45;fixer.core/device&#45;paths</title>
<ellipse fill="none" stroke="black" cx="316" cy="-270" rx="201.15" ry="18"/>
<text text-anchor="middle" x="316" y="-265.32" font-family="Times,serif" font-size="14.00">aeonik.joystick&#45;fixer.core/device&#45;paths</text>
</g>
<!-- aeonik.joystick&#45;fixer.core/by&#45;id&#45;&gt;by&#45;path&#45;&gt;aeonik.joystick&#45;fixer.core/device&#45;paths -->
<g id="edge6" class="edge">
<title>aeonik.joystick&#45;fixer.core/by&#45;id&#45;&gt;by&#45;path&#45;&gt;aeonik.joystick&#45;fixer.core/device&#45;paths</title>
<path fill="none" stroke="black" d="M864.98,-504.01C760.78,-459.79 481.22,-341.13 366.34,-292.37"/>
<polygon fill="black" stroke="black" points="368.04,-289.29 357.47,-288.6 365.31,-295.73 368.04,-289.29"/>
</g>
<!-- aeonik.joystick&#45;fixer.core/get&#45;corresponding&#45;path -->
<g id="node33" class="node">
<title>aeonik.joystick&#45;fixer.core/get&#45;corresponding&#45;path</title>
<ellipse fill="none" stroke="black" cx="844" cy="-270" rx="255.34" ry="18"/>
<text text-anchor="middle" x="844" y="-265.32" font-family="Times,serif" font-size="14.00">aeonik.joystick&#45;fixer.core/get&#45;corresponding&#45;path</text>
</g>
<!-- aeonik.joystick&#45;fixer.core/by&#45;id&#45;&gt;by&#45;path&#45;&gt;aeonik.joystick&#45;fixer.core/get&#45;corresponding&#45;path -->
<g id="edge7" class="edge">
<title>aeonik.joystick&#45;fixer.core/by&#45;id&#45;&gt;by&#45;path&#45;&gt;aeonik.joystick&#45;fixer.core/get&#45;corresponding&#45;path</title>
<path fill="none" stroke="black" d="M900.81,-503.82C890.47,-461.45 863.67,-351.63 850.93,-299.4"/>
<polygon fill="black" stroke="black" points="854.35,-298.66 848.58,-289.77 847.55,-300.32 854.35,-298.66"/>
</g>
<!-- aeonik.joystick&#45;fixer.core/search&#45;path -->
<g id="node4" class="node">
<title>aeonik.joystick&#45;fixer.core/search&#45;path</title>
<ellipse fill="none" stroke="black" cx="2140" cy="-270" rx="196.94" ry="18"/>
<text text-anchor="middle" x="2140" y="-265.32" font-family="Times,serif" font-size="14.00">aeonik.joystick&#45;fixer.core/search&#45;path</text>
</g>
<!-- aeonik.joystick&#45;fixer.core/search&#45;path&#45;&gt;clojure.java.io/file -->
<g id="edge8" class="edge">
<title>aeonik.joystick&#45;fixer.core/search&#45;path&#45;&gt;clojure.java.io/file</title>
<path fill="none" stroke="black" d="M2118.97,-251.82C2065.67,-208.27 1925.17,-93.49 1863.61,-43.19"/>
<polygon fill="black" stroke="black" points="1865.91,-40.55 1855.95,-36.93 1861.48,-45.97 1865.91,-40.55"/>
</g>
<!-- aeonik.joystick&#45;fixer.core/symlink&#45;target&#45;&gt;info -->
<g id="node5" class="node">
<title>aeonik.joystick&#45;fixer.core/symlink&#45;target&#45;&gt;info</title>
<ellipse fill="none" stroke="black" cx="844" cy="-1026" rx="241.66" ry="18"/>
<text text-anchor="middle" x="844" y="-1021.33" font-family="Times,serif" font-size="14.00">aeonik.joystick&#45;fixer.core/symlink&#45;target&#45;&gt;info</text>
</g>
<!-- aeonik.joystick&#45;fixer.core/evdev&#45;path&#45;regexp -->
<g id="node26" class="node">
<title>aeonik.joystick&#45;fixer.core/evdev&#45;path&#45;regexp</title>
<ellipse fill="none" stroke="black" cx="267" cy="-774" rx="231.14" ry="18"/>
<text text-anchor="middle" x="267" y="-769.33" font-family="Times,serif" font-size="14.00">aeonik.joystick&#45;fixer.core/evdev&#45;path&#45;regexp</text>
</g>
<!-- aeonik.joystick&#45;fixer.core/symlink&#45;target&#45;&gt;info&#45;&gt;aeonik.joystick&#45;fixer.core/evdev&#45;path&#45;regexp -->
<g id="edge9" class="edge">
<title>aeonik.joystick&#45;fixer.core/symlink&#45;target&#45;&gt;info&#45;&gt;aeonik.joystick&#45;fixer.core/evdev&#45;path&#45;regexp</title>
<path fill="none" stroke="black" d="M804.34,-1007.82C702.1,-963.52 429.72,-845.5 316.96,-796.65"/>
<polygon fill="black" stroke="black" points="318.51,-793.5 307.94,-792.74 315.73,-799.93 318.51,-793.5"/>
</g>
<!-- aeonik.joystick&#45;fixer.core/symlink&#45;target&#45;&gt;joydev&#45;info -->
<g id="node27" class="node">
<title>aeonik.joystick&#45;fixer.core/symlink&#45;target&#45;&gt;joydev&#45;info</title>
<ellipse fill="none" stroke="black" cx="1468" cy="-774" rx="277.44" ry="18"/>
<text text-anchor="middle" x="1468" y="-769.33" font-family="Times,serif" font-size="14.00">aeonik.joystick&#45;fixer.core/symlink&#45;target&#45;&gt;joydev&#45;info</text>
</g>
<!-- aeonik.joystick&#45;fixer.core/symlink&#45;target&#45;&gt;info&#45;&gt;aeonik.joystick&#45;fixer.core/symlink&#45;target&#45;&gt;joydev&#45;info -->
<g id="edge10" class="edge">
<title>aeonik.joystick&#45;fixer.core/symlink&#45;target&#45;&gt;info&#45;&gt;aeonik.joystick&#45;fixer.core/symlink&#45;target&#45;&gt;joydev&#45;info</title>
<path fill="none" stroke="black" d="M886.89,-1007.82C997.68,-963.43 1293.21,-845.03 1414.71,-796.35"/>
<polygon fill="black" stroke="black" points="1415.84,-799.67 1423.82,-792.7 1413.23,-793.17 1415.84,-799.67"/>
</g>
<!-- aeonik.joystick&#45;fixer.core/symlink&#45;target&#45;&gt;evdev&#45;info -->
<g id="node32" class="node">
<title>aeonik.joystick&#45;fixer.core/symlink&#45;target&#45;&gt;evdev&#45;info</title>
<ellipse fill="none" stroke="black" cx="844" cy="-774" rx="274.28" ry="18"/>
<text text-anchor="middle" x="844" y="-769.33" font-family="Times,serif" font-size="14.00">aeonik.joystick&#45;fixer.core/symlink&#45;target&#45;&gt;evdev&#45;info</text>
</g>
<!-- aeonik.joystick&#45;fixer.core/symlink&#45;target&#45;&gt;info&#45;&gt;aeonik.joystick&#45;fixer.core/symlink&#45;target&#45;&gt;evdev&#45;info -->
<g id="edge11" class="edge">
<title>aeonik.joystick&#45;fixer.core/symlink&#45;target&#45;&gt;info&#45;&gt;aeonik.joystick&#45;fixer.core/symlink&#45;target&#45;&gt;evdev&#45;info</title>
<path fill="none" stroke="black" d="M844,-1007.82C844,-965.54 844,-856.09 844,-803.73"/>
<polygon fill="black" stroke="black" points="847.5,-803.82 844,-793.82 840.5,-803.82 847.5,-803.82"/>
</g>
<!-- aeonik.joystick&#45;fixer.core/&#45;main -->
<g id="node6" class="node">
<title>aeonik.joystick&#45;fixer.core/&#45;main</title>
<ellipse fill="none" stroke="black" cx="2122" cy="-1530" rx="165.9" ry="18"/>
<text text-anchor="middle" x="2122" y="-1525.33" font-family="Times,serif" font-size="14.00">aeonik.joystick&#45;fixer.core/&#45;main</text>
</g>
<!-- aeonik.joystick&#45;fixer.core/process&#45;all&#45;joysticks -->
<g id="node8" class="node">
<title>aeonik.joystick&#45;fixer.core/process&#45;all&#45;joysticks</title>
<ellipse fill="none" stroke="black" cx="1700" cy="-1278" rx="238.5" ry="18"/>
<text text-anchor="middle" x="1700" y="-1273.33" font-family="Times,serif" font-size="14.00">aeonik.joystick&#45;fixer.core/process&#45;all&#45;joysticks</text>
</g>
<!-- aeonik.joystick&#45;fixer.core/&#45;main&#45;&gt;aeonik.joystick&#45;fixer.core/process&#45;all&#45;joysticks -->
<g id="edge12" class="edge">
<title>aeonik.joystick&#45;fixer.core/&#45;main&#45;&gt;aeonik.joystick&#45;fixer.core/process&#45;all&#45;joysticks</title>
<path fill="none" stroke="black" d="M2092.99,-1511.82C2018.91,-1467.93 1822.69,-1351.68 1738.86,-1302.02"/>
<polygon fill="black" stroke="black" points="1740.9,-1299.16 1730.51,-1297.08 1737.33,-1305.18 1740.9,-1299.16"/>
</g>
<!-- clojure.pprint/pprint -->
<g id="node35" class="node">
<title>clojure.pprint/pprint</title>
<ellipse fill="none" stroke="black" cx="2124" cy="-1278" rx="113.82" ry="18"/>
<text text-anchor="middle" x="2124" y="-1273.33" font-family="Times,serif" font-size="14.00">clojure.pprint/pprint</text>
</g>
<!-- aeonik.joystick&#45;fixer.core/&#45;main&#45;&gt;clojure.pprint/pprint -->
<g id="edge13" class="edge">
<title>aeonik.joystick&#45;fixer.core/&#45;main&#45;&gt;clojure.pprint/pprint</title>
<path fill="none" stroke="black" d="M2122.14,-1511.82C2122.48,-1469.54 2123.35,-1360.09 2123.77,-1307.73"/>
<polygon fill="black" stroke="black" points="2127.27,-1307.84 2123.85,-1297.82 2120.27,-1307.79 2127.27,-1307.84"/>
</g>
<!-- aeonik.joystick&#45;fixer.core/filename&#45;&gt;joystick&#45;name -->
<g id="node7" class="node">
<title>aeonik.joystick&#45;fixer.core/filename&#45;&gt;joystick&#45;name</title>
<ellipse fill="none" stroke="black" cx="3720" cy="-522" rx="261.13" ry="18"/>
<text text-anchor="middle" x="3720" y="-517.33" font-family="Times,serif" font-size="14.00">aeonik.joystick&#45;fixer.core/filename&#45;&gt;joystick&#45;name</text>
</g>
<!-- aeonik.joystick&#45;fixer.core/extract&#45;name&#45;rexexp -->
<g id="node23" class="node">
<title>aeonik.joystick&#45;fixer.core/extract&#45;name&#45;rexexp</title>
<ellipse fill="none" stroke="black" cx="3720" cy="-270" rx="241.66" ry="18"/>
<text text-anchor="middle" x="3720" y="-265.32" font-family="Times,serif" font-size="14.00">aeonik.joystick&#45;fixer.core/extract&#45;name&#45;rexexp</text>
</g>
<!-- aeonik.joystick&#45;fixer.core/filename&#45;&gt;joystick&#45;name&#45;&gt;aeonik.joystick&#45;fixer.core/extract&#45;name&#45;rexexp -->
<g id="edge14" class="edge">
<title>aeonik.joystick&#45;fixer.core/filename&#45;&gt;joystick&#45;name&#45;&gt;aeonik.joystick&#45;fixer.core/extract&#45;name&#45;rexexp</title>
<path fill="none" stroke="black" d="M3720,-503.82C3720,-461.54 3720,-352.09 3720,-299.73"/>
<polygon fill="black" stroke="black" points="3723.5,-299.82 3720,-289.82 3716.5,-299.82 3723.5,-299.82"/>
</g>
<!-- aeonik.joystick&#45;fixer.core/process&#45;all&#45;joysticks&#45;&gt;aeonik.joystick&#45;fixer.core/correlate&#45;joystick&#45;name -->
<g id="edge15" class="edge">
<title>aeonik.joystick&#45;fixer.core/process&#45;all&#45;joysticks&#45;&gt;aeonik.joystick&#45;fixer.core/correlate&#45;joystick&#45;name</title>
<path fill="none" stroke="black" d="M1712.84,-1259.72C1768.15,-1185.28 1986.3,-891.68 2053.31,-801.49"/>
<polygon fill="black" stroke="black" points="2055.96,-803.8 2059.12,-793.68 2050.35,-799.62 2055.96,-803.8"/>
</g>
<!-- aeonik.joystick&#45;fixer.core/get&#45;joystick&#45;info -->
<g id="node10" class="node">
<title>aeonik.joystick&#45;fixer.core/get&#45;joystick&#45;info</title>
<ellipse fill="none" stroke="black" cx="1537" cy="-1026" rx="217.98" ry="18"/>
<text text-anchor="middle" x="1537" y="-1021.33" font-family="Times,serif" font-size="14.00">aeonik.joystick&#45;fixer.core/get&#45;joystick&#45;info</text>
</g>
<!-- aeonik.joystick&#45;fixer.core/process&#45;all&#45;joysticks&#45;&gt;aeonik.joystick&#45;fixer.core/get&#45;joystick&#45;info -->
<g id="edge16" class="edge">
<title>aeonik.joystick&#45;fixer.core/process&#45;all&#45;joysticks&#45;&gt;aeonik.joystick&#45;fixer.core/get&#45;joystick&#45;info</title>
<path fill="none" stroke="black" d="M1688.8,-1259.82C1660.88,-1217 1588.06,-1105.31 1554.45,-1053.77"/>
<polygon fill="black" stroke="black" points="1557.5,-1052.04 1549.11,-1045.57 1551.64,-1055.86 1557.5,-1052.04"/>
</g>
<!-- aeonik.joystick&#45;fixer.core/get&#45;joystick&#45;names -->
<g id="node20" class="node">
<title>aeonik.joystick&#45;fixer.core/get&#45;joystick&#45;names</title>
<ellipse fill="none" stroke="black" cx="3100" cy="-774" rx="231.66" ry="18"/>
<text text-anchor="middle" x="3100" y="-769.33" font-family="Times,serif" font-size="14.00">aeonik.joystick&#45;fixer.core/get&#45;joystick&#45;names</text>
</g>
<!-- aeonik.joystick&#45;fixer.core/process&#45;all&#45;joysticks&#45;&gt;aeonik.joystick&#45;fixer.core/get&#45;joystick&#45;names -->
<g id="edge17" class="edge">
<title>aeonik.joystick&#45;fixer.core/process&#45;all&#45;joysticks&#45;&gt;aeonik.joystick&#45;fixer.core/get&#45;joystick&#45;names</title>
<path fill="none" stroke="black" d="M1747.38,-1260.01C1958.26,-1184.4 2811.19,-878.56 3042.11,-795.76"/>
<polygon fill="black" stroke="black" points="3042.97,-799.17 3051.2,-792.5 3040.61,-792.58 3042.97,-799.17"/>
</g>
<!-- aeonik.joystick&#45;fixer.core/process&#45;all&#45;joysticks&#45;&gt;aeonik.joystick&#45;fixer.core/device&#45;paths -->
<g id="edge18" class="edge">
<title>aeonik.joystick&#45;fixer.core/process&#45;all&#45;joysticks&#45;&gt;aeonik.joystick&#45;fixer.core/device&#45;paths</title>
<path fill="none" stroke="black" d="M1620.26,-1260.62C1362.14,-1207.58 566,-1044 566,-1044 566,-1044 0,-792 0,-792 0,-792 0,-756 0,-756 0,-756 161,-504 161,-504 161,-504 257.74,-358.58 298.37,-297.51"/>
<polygon fill="black" stroke="black" points="301.14,-299.66 303.76,-289.39 295.31,-295.78 301.14,-299.66"/>
</g>
<!-- aeonik.joystick&#45;fixer.core/join&#45;evdev+joydev&#45;info -->
<g id="node22" class="node">
<title>aeonik.joystick&#45;fixer.core/join&#45;evdev+joydev&#45;info</title>
<ellipse fill="none" stroke="black" cx="3720" cy="-774" rx="252.18" ry="18"/>
<text text-anchor="middle" x="3720" y="-769.33" font-family="Times,serif" font-size="14.00">aeonik.joystick&#45;fixer.core/join&#45;evdev+joydev&#45;info</text>
</g>
<!-- aeonik.joystick&#45;fixer.core/get&#45;joystick&#45;info&#45;&gt;aeonik.joystick&#45;fixer.core/join&#45;evdev+joydev&#45;info -->
<g id="edge19" class="edge">
<title>aeonik.joystick&#45;fixer.core/get&#45;joystick&#45;info&#45;&gt;aeonik.joystick&#45;fixer.core/join&#45;evdev+joydev&#45;info</title>
<path fill="none" stroke="black" d="M1661.02,-1010.8C2039.56,-967.45 3178.58,-837 3578.96,-791.15"/>
<polygon fill="black" stroke="black" points="3579.26,-794.64 3588.8,-790.03 3578.46,-787.69 3579.26,-794.64"/>
</g>
<!-- aeonik.joystick&#45;fixer.core/get&#45;joystick&#45;info&#45;&gt;aeonik.joystick&#45;fixer.core/symlink&#45;target&#45;&gt;joydev&#45;info -->
<g id="edge20" class="edge">
<title>aeonik.joystick&#45;fixer.core/get&#45;joystick&#45;info&#45;&gt;aeonik.joystick&#45;fixer.core/symlink&#45;target&#45;&gt;joydev&#45;info</title>
<path fill="none" stroke="black" d="M1532.26,-1007.82C1520.56,-965.45 1490.25,-855.63 1475.84,-803.4"/>
<polygon fill="black" stroke="black" points="1479.21,-802.47 1473.18,-793.76 1472.47,-804.33 1479.21,-802.47"/>
</g>
<!-- aeonik.joystick&#45;fixer.core/get&#45;joystick&#45;info&#45;&gt;aeonik.joystick&#45;fixer.core/symlink&#45;target&#45;&gt;evdev&#45;info -->
<g id="edge21" class="edge">
<title>aeonik.joystick&#45;fixer.core/get&#45;joystick&#45;info&#45;&gt;aeonik.joystick&#45;fixer.core/symlink&#45;target&#45;&gt;evdev&#45;info</title>
<path fill="none" stroke="black" d="M1489.91,-1008.01C1366.97,-963.66 1036.54,-844.46 902.09,-795.96"/>
<polygon fill="black" stroke="black" points="903.63,-792.79 893.03,-792.69 901.25,-799.38 903.63,-792.79"/>
</g>
<!-- aeonik.joystick&#45;fixer.core/deep&#45;merge -->
<g id="node11" class="node">
<title>aeonik.joystick&#45;fixer.core/deep&#45;merge</title>
<ellipse fill="none" stroke="black" cx="2557" cy="-1530" rx="197.47" ry="18"/>
<text text-anchor="middle" x="2557" y="-1525.33" font-family="Times,serif" font-size="14.00">aeonik.joystick&#45;fixer.core/deep&#45;merge</text>
</g>
<!-- aeonik.joystick&#45;fixer.core/deep&#45;merge&#45;&gt;aeonik.joystick&#45;fixer.core/deep&#45;merge -->
<g id="edge22" class="edge">
<title>aeonik.joystick&#45;fixer.core/deep&#45;merge&#45;&gt;aeonik.joystick&#45;fixer.core/deep&#45;merge</title>
<path fill="none" stroke="black" d="M2588.72,-1548.12C2683.34,-1592.27 2826.47,-1586.23 2826.47,-1530 2826.47,-1475.8 2693.5,-1468.23 2599.16,-1507.29"/>
<polygon fill="black" stroke="black" points="2597.85,-1504.04 2590.11,-1511.27 2600.67,-1510.45 2597.85,-1504.04"/>
</g>
<!-- aeonik.joystick&#45;fixer.core/by&#45;path&#45;&gt;by&#45;id -->
<g id="node12" class="node">
<title>aeonik.joystick&#45;fixer.core/by&#45;path&#45;&gt;by&#45;id</title>
<ellipse fill="none" stroke="black" cx="409" cy="-522" rx="212.2" ry="18"/>
<text text-anchor="middle" x="409" y="-517.33" font-family="Times,serif" font-size="14.00">aeonik.joystick&#45;fixer.core/by&#45;path&#45;&gt;by&#45;id</text>
</g>
<!-- aeonik.joystick&#45;fixer.core/by&#45;path&#45;&gt;by&#45;id&#45;&gt;clojure.java.io/file -->
<g id="edge23" class="edge">
<title>aeonik.joystick&#45;fixer.core/by&#45;path&#45;&gt;by&#45;id&#45;&gt;clojure.java.io/file</title>
<path fill="none" stroke="black" d="M384.47,-503.68C307.99,-449.68 79,-288 79,-288 79,-288 79,-252 79,-252 79,-252 1385.9,-78.49 1744.14,-30.93"/>
<polygon fill="black" stroke="black" points="1744.52,-34.41 1753.97,-29.63 1743.59,-27.47 1744.52,-34.41"/>
</g>
<!-- aeonik.joystick&#45;fixer.core/by&#45;path&#45;&gt;by&#45;id&#45;&gt;aeonik.joystick&#45;fixer.core/file&#45;&gt;symlink -->
<g id="edge24" class="edge">
<title>aeonik.joystick&#45;fixer.core/by&#45;path&#45;&gt;by&#45;id&#45;&gt;aeonik.joystick&#45;fixer.core/file&#45;&gt;symlink</title>
<path fill="none" stroke="black" d="M481.53,-504.69C679.44,-460.2 1227.96,-336.88 1437.84,-289.7"/>
<polygon fill="black" stroke="black" points="1438.31,-293.18 1447.3,-287.57 1436.78,-286.35 1438.31,-293.18"/>
</g>
<!-- aeonik.joystick&#45;fixer.core/by&#45;path&#45;&gt;by&#45;id&#45;&gt;aeonik.joystick&#45;fixer.core/device&#45;paths -->
<g id="edge25" class="edge">
<title>aeonik.joystick&#45;fixer.core/by&#45;path&#45;&gt;by&#45;id&#45;&gt;aeonik.joystick&#45;fixer.core/device&#45;paths</title>
<path fill="none" stroke="black" d="M402.61,-503.82C386.81,-461.36 345.82,-351.17 326.44,-299.07"/>
<polygon fill="black" stroke="black" points="329.73,-297.87 322.96,-289.72 323.17,-300.32 329.73,-297.87"/>
</g>
<!-- aeonik.joystick&#45;fixer.core/by&#45;path&#45;&gt;by&#45;id&#45;&gt;aeonik.joystick&#45;fixer.core/get&#45;corresponding&#45;path -->
<g id="edge26" class="edge">
<title>aeonik.joystick&#45;fixer.core/by&#45;path&#45;&gt;by&#45;id&#45;&gt;aeonik.joystick&#45;fixer.core/get&#45;corresponding&#45;path</title>
<path fill="none" stroke="black" d="M438.9,-503.82C515.26,-459.93 717.53,-343.68 803.94,-294.02"/>
<polygon fill="black" stroke="black" points="805.65,-297.08 812.58,-289.06 802.17,-291.01 805.65,-297.08"/>
</g>
<!-- aeonik.joystick&#45;fixer.core/symlink&#45;&gt;target -->
<g id="node13" class="node">
<title>aeonik.joystick&#45;fixer.core/symlink&#45;&gt;target</title>
<ellipse fill="none" stroke="black" cx="1144" cy="-18" rx="219.56" ry="18"/>
<text text-anchor="middle" x="1144" y="-13.32" font-family="Times,serif" font-size="14.00">aeonik.joystick&#45;fixer.core/symlink&#45;&gt;target</text>
</g>
<!-- aeonik.joystick&#45;fixer.core/example&#45;joystick&#45;names -->
<g id="node14" class="node">
<title>aeonik.joystick&#45;fixer.core/example&#45;joystick&#45;names</title>
<ellipse fill="none" stroke="black" cx="3102" cy="-1530" rx="257.44" ry="18"/>
<text text-anchor="middle" x="3102" y="-1525.33" font-family="Times,serif" font-size="14.00">aeonik.joystick&#45;fixer.core/example&#45;joystick&#45;names</text>
</g>
<!-- aeonik.joystick&#45;fixer.core/split&#45;usb&#45;pci -->
<g id="node15" class="node">
<title>aeonik.joystick&#45;fixer.core/split&#45;usb&#45;pci</title>
<ellipse fill="none" stroke="black" cx="4252" cy="-522" rx="199.04" ry="18"/>
<text text-anchor="middle" x="4252" y="-517.33" font-family="Times,serif" font-size="14.00">aeonik.joystick&#45;fixer.core/split&#45;usb&#45;pci</text>
</g>
<!-- aeonik.joystick&#45;fixer.core/simple&#45;replace -->
<g id="node16" class="node">
<title>aeonik.joystick&#45;fixer.core/simple&#45;replace</title>
<ellipse fill="none" stroke="black" cx="3643" cy="-1530" rx="211.15" ry="18"/>
<text text-anchor="middle" x="3643" y="-1525.33" font-family="Times,serif" font-size="14.00">aeonik.joystick&#45;fixer.core/simple&#45;replace</text>
</g>
<!-- clojure.string/replace -->
<g id="node34" class="node">
<title>clojure.string/replace</title>
<ellipse fill="none" stroke="black" cx="3643" cy="-1278" rx="118.55" ry="18"/>
<text text-anchor="middle" x="3643" y="-1273.33" font-family="Times,serif" font-size="14.00">clojure.string/replace</text>
</g>
<!-- aeonik.joystick&#45;fixer.core/simple&#45;replace&#45;&gt;clojure.string/replace -->
<g id="edge27" class="edge">
<title>aeonik.joystick&#45;fixer.core/simple&#45;replace&#45;&gt;clojure.string/replace</title>
<path fill="none" stroke="black" d="M3643,-1511.82C3643,-1469.54 3643,-1360.09 3643,-1307.73"/>
<polygon fill="black" stroke="black" points="3646.5,-1307.82 3643,-1297.82 3639.5,-1307.82 3646.5,-1307.82"/>
</g>
<!-- aeonik.joystick&#45;fixer.core/transform&#45;data -->
<g id="node17" class="node">
<title>aeonik.joystick&#45;fixer.core/transform&#45;data</title>
<ellipse fill="none" stroke="black" cx="4139" cy="-1530" rx="213.25" ry="18"/>
<text text-anchor="middle" x="4139" y="-1525.33" font-family="Times,serif" font-size="14.00">aeonik.joystick&#45;fixer.core/transform&#45;data</text>
</g>
<!-- aeonik.joystick&#45;fixer.core/data2 -->
<g id="node18" class="node">
<title>aeonik.joystick&#45;fixer.core/data2</title>
<ellipse fill="none" stroke="black" cx="4591" cy="-1530" rx="166.43" ry="18"/>
<text text-anchor="middle" x="4591" y="-1525.33" font-family="Times,serif" font-size="14.00">aeonik.joystick&#45;fixer.core/data2</text>
</g>
<!-- aeonik.joystick&#45;fixer.core/example&#45;joydev&#45;info -->
<g id="node19" class="node">
<title>aeonik.joystick&#45;fixer.core/example&#45;joydev&#45;info</title>
<ellipse fill="none" stroke="black" cx="4803" cy="-1278" rx="237.98" ry="18"/>
<text text-anchor="middle" x="4803" y="-1273.33" font-family="Times,serif" font-size="14.00">aeonik.joystick&#45;fixer.core/example&#45;joydev&#45;info</text>
</g>
<!-- aeonik.joystick&#45;fixer.core/get&#45;joystick&#45;names&#45;&gt;clojure.java.io/file -->
<g id="edge28" class="edge">
<title>aeonik.joystick&#45;fixer.core/get&#45;joystick&#45;names&#45;&gt;clojure.java.io/file</title>
<path fill="none" stroke="black" d="M3113.02,-755.87C3153.89,-702.06 3277,-540 3277,-540 3277,-540 3277,-504 3277,-504 3277,-504 2156.14,-127.27 1890.13,-37.87"/>
<polygon fill="black" stroke="black" points="1891.6,-34.67 1881,-34.8 1889.37,-41.3 1891.6,-34.67"/>
</g>
<!-- aeonik.joystick&#45;fixer.core/get&#45;joystick&#45;names&#45;&gt;aeonik.joystick&#45;fixer.core/filename&#45;&gt;joystick&#45;name -->
<g id="edge29" class="edge">
<title>aeonik.joystick&#45;fixer.core/get&#45;joystick&#45;names&#45;&gt;aeonik.joystick&#45;fixer.core/filename&#45;&gt;joystick&#45;name</title>
<path fill="none" stroke="black" d="M3142.62,-755.82C3252.69,-711.43 3546.33,-593.03 3667.05,-544.35"/>
<polygon fill="black" stroke="black" points="3668.13,-547.69 3676.09,-540.7 3665.51,-541.2 3668.13,-547.69"/>
</g>
<!-- aeonik.joystick&#45;fixer.core/get&#45;joystick&#45;names&#45;&gt;aeonik.joystick&#45;fixer.core/evdev&#45;regexp -->
<g id="edge30" class="edge">
<title>aeonik.joystick&#45;fixer.core/get&#45;joystick&#45;names&#45;&gt;aeonik.joystick&#45;fixer.core/evdev&#45;regexp</title>
<path fill="none" stroke="black" d="M3095.6,-755.82C3084.75,-713.45 3056.64,-603.63 3043.27,-551.4"/>
<polygon fill="black" stroke="black" points="3046.68,-550.59 3040.81,-541.77 3039.89,-552.33 3046.68,-550.59"/>
</g>
<!-- aeonik.joystick&#45;fixer.core/example&#45;joystick&#45;map -->
<g id="node21" class="node">
<title>aeonik.joystick&#45;fixer.core/example&#45;joystick&#45;map</title>
<ellipse fill="none" stroke="black" cx="5076" cy="-1530" rx="246.39" ry="18"/>
<text text-anchor="middle" x="5076" y="-1525.33" font-family="Times,serif" font-size="14.00">aeonik.joystick&#45;fixer.core/example&#45;joystick&#45;map</text>
</g>
<!-- aeonik.joystick&#45;fixer.core/example&#45;joystick&#45;map&#45;&gt;aeonik.joystick&#45;fixer.core/example&#45;joydev&#45;info -->
<g id="edge31" class="edge">
<title>aeonik.joystick&#45;fixer.core/example&#45;joystick&#45;map&#45;&gt;aeonik.joystick&#45;fixer.core/example&#45;joydev&#45;info</title>
<path fill="none" stroke="black" d="M5057.24,-1511.82C5009.9,-1468.46 4885.45,-1354.51 4830.15,-1303.87"/>
<polygon fill="black" stroke="black" points="4832.75,-1301.5 4823.01,-1297.33 4828.02,-1306.66 4832.75,-1301.5"/>
</g>
<!-- aeonik.joystick&#45;fixer.core/example&#45;evdev&#45;info -->
<g id="node30" class="node">
<title>aeonik.joystick&#45;fixer.core/example&#45;evdev&#45;info</title>
<ellipse fill="none" stroke="black" cx="5348" cy="-1278" rx="234.82" ry="18"/>
<text text-anchor="middle" x="5348" y="-1273.33" font-family="Times,serif" font-size="14.00">aeonik.joystick&#45;fixer.core/example&#45;evdev&#45;info</text>
</g>
<!-- aeonik.joystick&#45;fixer.core/example&#45;joystick&#45;map&#45;&gt;aeonik.joystick&#45;fixer.core/example&#45;evdev&#45;info -->
<g id="edge32" class="edge">
<title>aeonik.joystick&#45;fixer.core/example&#45;joystick&#45;map&#45;&gt;aeonik.joystick&#45;fixer.core/example&#45;evdev&#45;info</title>
<path fill="none" stroke="black" d="M5094.7,-1511.82C5141.86,-1468.46 5265.85,-1354.51 5320.94,-1303.87"/>
<polygon fill="black" stroke="black" points="5323.07,-1306.67 5328.06,-1297.33 5318.33,-1301.52 5323.07,-1306.67"/>
</g>
<!-- aeonik.joystick&#45;fixer.core/join&#45;evdev+joydev&#45;info&#45;&gt;aeonik.joystick&#45;fixer.core/filename&#45;&gt;joystick&#45;name -->
<g id="edge33" class="edge">
<title>aeonik.joystick&#45;fixer.core/join&#45;evdev+joydev&#45;info&#45;&gt;aeonik.joystick&#45;fixer.core/filename&#45;&gt;joystick&#45;name</title>
<path fill="none" stroke="black" d="M3720,-755.82C3720,-713.54 3720,-604.09 3720,-551.73"/>
<polygon fill="black" stroke="black" points="3723.5,-551.82 3720,-541.82 3716.5,-551.82 3723.5,-551.82"/>
</g>
<!-- aeonik.joystick&#45;fixer.core/join&#45;evdev+joydev&#45;info&#45;&gt;aeonik.joystick&#45;fixer.core/split&#45;usb&#45;pci -->
<g id="edge34" class="edge">
<title>aeonik.joystick&#45;fixer.core/join&#45;evdev+joydev&#45;info&#45;&gt;aeonik.joystick&#45;fixer.core/split&#45;usb&#45;pci</title>
<path fill="none" stroke="black" d="M3756.57,-755.82C3850.64,-711.61 4100.96,-593.98 4205.31,-544.94"/>
<polygon fill="black" stroke="black" points="4206.6,-548.2 4214.16,-540.78 4203.62,-541.87 4206.6,-548.2"/>
</g>
<!-- aeonik.joystick&#45;fixer.core/lookup&#45;all&#45;symlinks -->
<g id="node24" class="node">
<title>aeonik.joystick&#45;fixer.core/lookup&#45;all&#45;symlinks</title>
<ellipse fill="none" stroke="black" cx="2525" cy="-522" rx="233.77" ry="18"/>
<text text-anchor="middle" x="2525" y="-517.33" font-family="Times,serif" font-size="14.00">aeonik.joystick&#45;fixer.core/lookup&#45;all&#45;symlinks</text>
</g>
<!-- aeonik.joystick&#45;fixer.core/lookup&#45;all&#45;symlinks&#45;&gt;clojure.java.io/file -->
<g id="edge35" class="edge">
<title>aeonik.joystick&#45;fixer.core/lookup&#45;all&#45;symlinks&#45;&gt;clojure.java.io/file</title>
<path fill="none" stroke="black" d="M2515.26,-503.76C2481.71,-444.39 2373,-252 2373,-252 2373,-252 2013.33,-96.52 1881.6,-39.58"/>
<polygon fill="black" stroke="black" points="1883,-36.37 1872.44,-35.62 1880.23,-42.8 1883,-36.37"/>
</g>
<!-- aeonik.joystick&#45;fixer.core/lookup&#45;all&#45;symlinks&#45;&gt;aeonik.joystick&#45;fixer.core/file&#45;&gt;symlink -->
<g id="edge36" class="edge">
<title>aeonik.joystick&#45;fixer.core/lookup&#45;all&#45;symlinks&#45;&gt;aeonik.joystick&#45;fixer.core/file&#45;&gt;symlink</title>
<path fill="none" stroke="black" d="M2457.96,-504.31C2278.65,-459.66 1788.78,-337.68 1598.25,-290.24"/>
<polygon fill="black" stroke="black" points="1599.25,-286.88 1588.7,-287.86 1597.56,-293.67 1599.25,-286.88"/>
</g>
<!-- aeonik.joystick&#45;fixer.core/file&#45;&gt;symlink&#45;&gt;aeonik.joystick&#45;fixer.core/symlink&#45;&gt;target -->
<g id="edge37" class="edge">
<title>aeonik.joystick&#45;fixer.core/file&#45;&gt;symlink&#45;&gt;aeonik.joystick&#45;fixer.core/symlink&#45;&gt;target</title>
<path fill="none" stroke="black" d="M1495.09,-251.82C1429.17,-208.11 1255.03,-92.63 1179.63,-42.63"/>
<polygon fill="black" stroke="black" points="1181.62,-39.75 1171.36,-37.14 1177.76,-45.58 1181.62,-39.75"/>
</g>
<!-- aeonik.joystick&#45;fixer.core/symlink&#45;target&#45;&gt;joydev&#45;info&#45;&gt;aeonik.joystick&#45;fixer.core/by&#45;id&#45;&gt;by&#45;path -->
<g id="edge38" class="edge">
<title>aeonik.joystick&#45;fixer.core/symlink&#45;target&#45;&gt;joydev&#45;info&#45;&gt;aeonik.joystick&#45;fixer.core/by&#45;id&#45;&gt;by&#45;path</title>
<path fill="none" stroke="black" d="M1429.3,-755.82C1329.65,-711.56 1064.31,-593.74 954.08,-544.79"/>
<polygon fill="black" stroke="black" points="955.54,-541.61 944.98,-540.75 952.7,-548.01 955.54,-541.61"/>
</g>
<!-- aeonik.joystick&#45;fixer.core/symlink&#45;target&#45;&gt;joydev&#45;info&#45;&gt;aeonik.joystick&#45;fixer.core/by&#45;path&#45;&gt;by&#45;id -->
<g id="edge39" class="edge">
<title>aeonik.joystick&#45;fixer.core/symlink&#45;target&#45;&gt;joydev&#45;info&#45;&gt;aeonik.joystick&#45;fixer.core/by&#45;path&#45;&gt;by&#45;id</title>
<path fill="none" stroke="black" d="M1396.87,-756.21C1207.19,-711.43 690.13,-589.37 489.8,-542.07"/>
<polygon fill="black" stroke="black" points="490.79,-538.71 480.25,-539.82 489.18,-545.52 490.79,-538.71"/>
</g>
<!-- aeonik.joystick&#45;fixer.core/regex&#45;search&#45;&gt;id&#45;symlinks&#45;&gt;clojure.java.io/file -->
<g id="edge40" class="edge">
<title>aeonik.joystick&#45;fixer.core/regex&#45;search&#45;&gt;id&#45;symlinks&#45;&gt;clojure.java.io/file</title>
<path fill="none" stroke="black" d="M1482.13,-503.87C1551.65,-450.06 1761,-288 1761,-288 1761,-288 1807.66,-116.08 1826.37,-47.12"/>
<polygon fill="black" stroke="black" points="1829.68,-48.26 1828.93,-37.7 1822.93,-46.43 1829.68,-48.26"/>
</g>
<!-- aeonik.joystick&#45;fixer.core/regex&#45;search&#45;&gt;id&#45;symlinks&#45;&gt;aeonik.joystick&#45;fixer.core/search&#45;path -->
<g id="edge41" class="edge">
<title>aeonik.joystick&#45;fixer.core/regex&#45;search&#45;&gt;id&#45;symlinks&#45;&gt;aeonik.joystick&#45;fixer.core/search&#45;path</title>
<path fill="none" stroke="black" d="M1506.74,-503.82C1627.86,-459.29 1951.6,-340.26 2083.2,-291.88"/>
<polygon fill="black" stroke="black" points="2084.23,-295.23 2092.41,-288.5 2081.82,-288.66 2084.23,-295.23"/>
</g>
<!-- aeonik.joystick&#45;fixer.core/regex&#45;search&#45;&gt;id&#45;symlinks&#45;&gt;aeonik.joystick&#45;fixer.core/file&#45;&gt;symlink -->
<g id="edge42" class="edge">
<title>aeonik.joystick&#45;fixer.core/regex&#45;search&#45;&gt;id&#45;symlinks&#45;&gt;aeonik.joystick&#45;fixer.core/file&#45;&gt;symlink</title>
<path fill="none" stroke="black" d="M1464.19,-503.82C1474.53,-461.45 1501.33,-351.63 1514.07,-299.4"/>
<polygon fill="black" stroke="black" points="1517.45,-300.32 1516.42,-289.77 1510.65,-298.66 1517.45,-300.32"/>
</g>
<!-- aeonik.joystick&#45;fixer.core/regex&#45;search&#45;&gt;id&#45;symlinks&#45;&gt;aeonik.joystick&#45;fixer.core/device&#45;paths -->
<g id="edge43" class="edge">
<title>aeonik.joystick&#45;fixer.core/regex&#45;search&#45;&gt;id&#45;symlinks&#45;&gt;aeonik.joystick&#45;fixer.core/device&#45;paths</title>
<path fill="none" stroke="black" d="M1383.61,-504.31C1178.4,-459.46 616.21,-336.61 401.18,-289.62"/>
<polygon fill="black" stroke="black" points="401.97,-286.21 391.46,-287.49 400.48,-293.04 401.97,-286.21"/>
</g>
<!-- aeonik.joystick&#45;fixer.core/symlink&#45;target&#45;&gt;evdev&#45;info&#45;&gt;aeonik.joystick&#45;fixer.core/by&#45;id&#45;&gt;by&#45;path -->
<g id="edge44" class="edge">
<title>aeonik.joystick&#45;fixer.core/symlink&#45;target&#45;&gt;evdev&#45;info&#45;&gt;aeonik.joystick&#45;fixer.core/by&#45;id&#45;&gt;by&#45;path</title>
<path fill="none" stroke="black" d="M848.19,-755.82C858.53,-713.45 885.33,-603.63 898.07,-551.4"/>
<polygon fill="black" stroke="black" points="901.45,-552.32 900.42,-541.77 894.65,-550.66 901.45,-552.32"/>
</g>
<!-- aeonik.joystick&#45;fixer.core/symlink&#45;target&#45;&gt;evdev&#45;info&#45;&gt;aeonik.joystick&#45;fixer.core/by&#45;path&#45;&gt;by&#45;id -->
<g id="edge45" class="edge">
<title>aeonik.joystick&#45;fixer.core/symlink&#45;target&#45;&gt;evdev&#45;info&#45;&gt;aeonik.joystick&#45;fixer.core/by&#45;path&#45;&gt;by&#45;id</title>
<path fill="none" stroke="black" d="M813.76,-755.62C737.11,-711.57 535.2,-595.53 448.97,-545.97"/>
<polygon fill="black" stroke="black" points="450.77,-542.97 440.36,-541.02 447.28,-549.04 450.77,-542.97"/>
</g>
<!-- aeonik.joystick&#45;fixer.core/get&#45;corresponding&#45;path&#45;&gt;clojure.java.io/file -->
<g id="edge46" class="edge">
<title>aeonik.joystick&#45;fixer.core/get&#45;corresponding&#45;path&#45;&gt;clojure.java.io/file</title>
<path fill="none" stroke="black" d="M910.49,-252.21C1090.44,-206.77 1585.54,-81.74 1766.57,-36.03"/>
<polygon fill="black" stroke="black" points="1767.22,-39.47 1776.05,-33.63 1765.5,-32.69 1767.22,-39.47"/>
</g>
<!-- aeonik.joystick&#45;fixer.core/get&#45;corresponding&#45;path&#45;&gt;aeonik.joystick&#45;fixer.core/symlink&#45;&gt;target -->
<g id="edge47" class="edge">
<title>aeonik.joystick&#45;fixer.core/get&#45;corresponding&#45;path&#45;&gt;aeonik.joystick&#45;fixer.core/symlink&#45;&gt;target</title>
<path fill="none" stroke="black" d="M864.62,-251.82C916.75,-208.38 1053.95,-94.04 1114.53,-43.56"/>
<polygon fill="black" stroke="black" points="1116.63,-46.36 1122.07,-37.27 1112.15,-40.99 1116.63,-46.36"/>
</g>
<!-- aeonik.joystick&#45;fixer.core/temp&#45;file -->
<g id="node36" class="node">
<title>aeonik.joystick&#45;fixer.core/temp&#45;file</title>
<ellipse fill="none" stroke="black" cx="1700" cy="-1530" rx="182.21" ry="18"/>
<text text-anchor="middle" x="1700" y="-1525.33" font-family="Times,serif" font-size="14.00">aeonik.joystick&#45;fixer.core/temp&#45;file</text>
</g>
<!-- aeonik.joystick&#45;fixer.core/temp&#45;file&#45;&gt;aeonik.joystick&#45;fixer.core/process&#45;all&#45;joysticks -->
<g id="edge48" class="edge">
<title>aeonik.joystick&#45;fixer.core/temp&#45;file&#45;&gt;aeonik.joystick&#45;fixer.core/process&#45;all&#45;joysticks</title>
<path fill="none" stroke="black" d="M1700,-1511.82C1700,-1469.54 1700,-1360.09 1700,-1307.73"/>
<polygon fill="black" stroke="black" points="1703.5,-1307.82 1700,-1297.82 1696.5,-1307.82 1703.5,-1307.82"/>
</g>
</g>
</svg>
